<svg width="16" height="14" viewBox="0 0 16 14" fill="none" xmlns="http://www.w3.org/2000/svg">
<path d="M0.546778 5.01083L4.1697 1.38791C4.46853 1.08896 4.77175 0.937469 5.0707 0.937469C5.4811 0.937469 5.96047 1.24973 5.96047 2.12961V3.28793C11.094 3.51376 15.3672 7.42661 15.9965 12.5659C16.0225 12.7777 15.9021 12.9802 15.7038 13.0587C15.6476 13.0809 15.5893 13.0916 15.5315 13.0916C15.3854 13.0916 15.2436 13.0232 15.1532 12.8998C13.4237 10.5367 10.6468 9.12595 7.725 9.12595C7.13638 9.12595 6.54446 9.18356 5.96047 9.29758V10.5362C5.96047 11.4161 5.4811 11.7284 5.0707 11.7284H5.07058C4.77163 11.7284 4.46853 11.5768 4.1697 11.2779L0.546778 7.655C-0.182226 6.926 -0.182226 5.73984 0.546778 5.01083V5.01083ZM1.2095 6.99228L4.83242 10.6151C4.90212 10.6848 4.95974 10.7287 5.00222 10.7553C5.01345 10.7065 5.0231 10.6347 5.0231 10.5362V8.91928C5.0231 8.70212 5.17251 8.51328 5.38394 8.46323C6.15457 8.28098 6.94216 8.18869 7.725 8.18869C9.34561 8.18869 10.9577 8.58078 12.3869 9.32285C13.2277 9.75937 14.0077 10.3171 14.6974 10.9709C13.4596 7.02023 9.76528 4.21506 5.49172 4.21506C5.23294 4.21506 5.0231 4.00522 5.0231 3.74631V2.12961C5.0231 2.0311 5.01345 1.95932 5.00222 1.91037C4.95974 1.93698 4.90212 1.98105 4.83242 2.05063L1.2095 5.67355C0.845972 6.03708 0.845972 6.62863 1.2095 6.99228V6.99228Z" fill="black"/>
</svg>
