<svg width="22" height="22" viewBox="0 0 22 22" fill="none" xmlns="http://www.w3.org/2000/svg">
<g clip-path="url(#clip0_2348_36300)">
<path d="M18.5816 15.3874C17.3289 14.1348 16.6252 12.4358 16.6252 10.6643V9.00731C16.6252 6.37153 14.8122 4.15947 12.3654 3.54936V1.86533C12.3654 1.11131 11.754 0.5 11 0.5C10.2459 0.5 9.63464 1.11131 9.63464 1.86533V3.54931C7.18777 4.15947 5.37482 6.37149 5.37482 9.00726V10.6642C5.37482 12.4358 4.67106 14.1347 3.41842 15.3874C2.86782 15.938 2.70311 16.766 3.00109 17.4854C3.29907 18.2048 4.00107 18.6739 4.77973 18.6739H8.17387C8.17387 20.2347 9.43918 21.5 11 21.5C12.5608 21.5 13.8261 20.2347 13.8261 18.6739H17.2202C17.9989 18.6739 18.7009 18.2049 18.9989 17.4854C19.2969 16.7661 19.1322 15.938 18.5816 15.3874ZM11 20.1128C10.2066 20.1128 9.56112 19.4673 9.56112 18.6739H12.4388C12.4388 19.4673 11.7934 20.1128 11 20.1128ZM17.7172 16.9546C17.6337 17.1563 17.4386 17.2866 17.2202 17.2866H4.77973C4.56138 17.2866 4.36629 17.1563 4.28273 16.9546C4.19917 16.7529 4.24495 16.5227 4.39935 16.3683C5.92296 14.8447 6.76202 12.819 6.76202 10.6643V9.00731C6.76202 6.67049 8.66315 4.76935 11 4.76935C13.3368 4.76935 15.2379 6.67049 15.2379 9.00731V10.6643C15.2379 12.819 16.077 14.8447 17.6006 16.3683C17.755 16.5227 17.8008 16.7528 17.7172 16.9546Z" fill="#AFB8D6"/>
<g clip-path="url(#clip1_2348_36300)">
<path d="M42.914 -72.7345C116.845 -72.7345 187.708 -129.586 187.708 -223.707C187.709 -303.546 122.755 -368.5 42.914 -368.5H-232.622C-306.553 -368.5 -377.416 -311.649 -377.416 -217.528C-377.416 -145.339 -324.316 -85.3195 -255.123 -74.479V21.74C-255.123 42.389 -229.501 52.0625 -215.822 36.7055L-118.333 -72.7345H42.914ZM-145.223 -110.2L-210.124 -37.3435V-95.2345C-210.124 -107.661 -220.198 -117.735 -232.624 -117.735C-287.652 -117.735 -332.419 -162.502 -332.419 -217.53C-332.419 -283.909 -284.473 -323.503 -232.624 -323.503H42.9125C97.94 -323.503 142.708 -278.736 142.708 -223.708C142.708 -157.329 94.76 -117.735 42.9125 -117.735H-128.422C-134.84 -117.733 -140.954 -114.991 -145.223 -110.2Z" fill="#AFB8D6"/>
<rect x="18.4088" y="0.293993" width="2" height="27.1753" rx="1" transform="rotate(41.8046 18.4088 0.293993)" fill="#AFB8D6" stroke="white"/>
</g>
</g>
<defs>
<clipPath id="clip0_2348_36300">
<rect width="21" height="21" fill="white" transform="translate(0.5 0.5)"/>
</clipPath>
<clipPath id="clip1_2348_36300">
<rect width="768" height="768" fill="white" transform="translate(-377.5 -368.5)"/>
</clipPath>
</defs>
</svg>
