<svg width="18" height="22" viewBox="0 0 18 22" fill="none" xmlns="http://www.w3.org/2000/svg">
<path d="M16.5816 15.3874C15.3289 14.1348 14.6252 12.4358 14.6252 10.6643V9.00731C14.6252 6.37153 12.8122 4.15947 10.3654 3.54936V1.86533C10.3654 1.11131 9.75404 0.5 8.99997 0.5C8.24591 0.5 7.63464 1.11131 7.63464 1.86533V3.54931C5.18777 4.15947 3.37482 6.37149 3.37482 9.00726V10.6642C3.37482 12.4358 2.67106 14.1347 1.41842 15.3874C0.867825 15.938 0.703112 16.766 1.00109 17.4854C1.29907 18.2048 2.00107 18.6739 2.77973 18.6739H6.17387C6.17387 20.2347 7.43918 21.5 8.99997 21.5C10.5608 21.5 11.8261 20.2347 11.8261 18.6739H15.2202C15.9989 18.6739 16.7009 18.2049 16.9989 17.4854C17.2969 16.7661 17.1322 15.938 16.5816 15.3874ZM8.99997 20.1128C8.20656 20.1128 7.56112 19.4673 7.56112 18.6739H10.4388C10.4388 19.4673 9.79339 20.1128 8.99997 20.1128ZM15.7172 16.9546C15.6337 17.1563 15.4386 17.2866 15.2202 17.2866H2.77973C2.56138 17.2866 2.36629 17.1563 2.28273 16.9546C2.19917 16.7529 2.24495 16.5227 2.39935 16.3683C3.92296 14.8447 4.76202 12.819 4.76202 10.6643V9.00731C4.76202 6.67049 6.66315 4.76935 8.99997 4.76935C11.3368 4.76935 13.2379 6.67049 13.2379 9.00731V10.6643C13.2379 12.819 14.077 14.8447 15.6006 16.3683C15.755 16.5227 15.8008 16.7528 15.7172 16.9546Z" fill="black"/>
</svg>
