<svg width="18" height="18" viewBox="0 0 18 18" fill="none" xmlns="http://www.w3.org/2000/svg">
<path d="M17.2688 10.4165C17.2688 9.95625 17.2688 0.989576 17.2688 0.527588C17.2688 0.236354 17.0326 0.000244141 16.7414 0.000244141H1.25859C0.967359 0.000244141 0.73125 0.236354 0.73125 0.527588V10.4165C0.316723 10.487 0 10.8485 0 11.2828V12.8773C0 13.362 0.394277 13.7563 0.878906 13.7563H2.83683L1.6284 17.3021C1.51151 17.6453 1.76787 17.9996 2.12762 17.9996H4.41137C4.63707 17.9996 4.83746 17.8558 4.91059 17.6424L6.23503 13.7563H11.7649L13.0894 17.6424C13.1625 17.8558 13.3629 17.9996 13.5886 17.9996H15.8723C16.232 17.9996 16.4885 17.6454 16.3716 17.3021L15.1631 13.7563H17.1211C17.6057 13.7563 18 13.362 18 12.8774V11.2828C18 10.8485 17.6833 10.487 17.2688 10.4165ZM1.78594 1.05493H16.2141V7.92798H11.8828C11.3982 7.92798 11.0039 8.32226 11.0039 8.80688V10.4039H1.78594V1.05493ZM16.2141 8.98267V10.4039H12.0586V8.98267H16.2141ZM4.03379 16.9449H2.8645L3.95128 13.7563H5.12058L4.03379 16.9449ZM13.9662 16.9449L12.8794 13.7563H14.0487L15.1355 16.9449H13.9662ZM16.9453 12.7016C16.502 12.7016 1.4991 12.7016 1.05469 12.7016V11.4586H16.9453V12.7016Z" fill="black"/>
<path d="M3.86523 3.91278H14.1344C14.4256 3.91278 14.6617 3.67667 14.6617 3.38544C14.6617 3.0942 14.4256 2.85809 14.1344 2.85809H3.86523C3.574 2.85809 3.33789 3.0942 3.33789 3.38544C3.33789 3.67667 3.574 3.91278 3.86523 3.91278V3.91278Z" fill="black"/>
<path d="M10.1582 5.76587H3.86524C3.574 5.76587 3.33789 6.00198 3.33789 6.29321C3.33789 6.58445 3.574 6.82056 3.86524 6.82056H10.1582C10.4495 6.82056 10.6856 6.58445 10.6856 6.29321C10.6856 6.00198 10.4495 5.76587 10.1582 5.76587Z" fill="black"/>
</svg>
