<?xml version="1.0" encoding="UTF-8" standalone="no"?>
<svg
   width="40"
   height="40"
   viewBox="0 0 40 40"
   fill="none"
   version="1.1"
   id="svg20"
   sodipodi:docname="cake.svg"
   inkscape:version="1.2.2 (732a01da63, 2022-12-09)"
   xmlns:inkscape="http://www.inkscape.org/namespaces/inkscape"
   xmlns:sodipodi="http://sodipodi.sourceforge.net/DTD/sodipodi-0.dtd"
   xmlns="http://www.w3.org/2000/svg"
   xmlns:svg="http://www.w3.org/2000/svg">
  <defs
     id="defs24" />
  <sodipodi:namedview
     id="namedview22"
     pagecolor="#ffffff"
     bordercolor="#000000"
     borderopacity="0.25"
     inkscape:showpageshadow="2"
     inkscape:pageopacity="0.0"
     inkscape:pagecheckerboard="0"
     inkscape:deskcolor="#d1d1d1"
     showgrid="false"
     inkscape:zoom="20.65"
     inkscape:cx="20.024213"
     inkscape:cy="20.024213"
     inkscape:window-width="1920"
     inkscape:window-height="1013"
     inkscape:window-x="-9"
     inkscape:window-y="-9"
     inkscape:window-maximized="1"
     inkscape:current-layer="svg20" />
  <path
     style="color:#000000;fill:#0968ff;stroke-linecap:round;stroke-linejoin:round;-inkscape-stroke:none"
     d="m 10,17.333984 c -1.1489046,0 -2.2520727,0.457177 -3.0644531,1.269532 -0.8124176,0.812391 -1.2695313,1.913652 -1.2695313,3.0625 V 35 a 1,1 0 0 0 1,1 1,1 0 0 0 1,-1 V 21.666016 c 0,-0.619151 0.2457726,-1.210631 0.6835938,-1.648438 C 8.7874677,19.579734 9.3807664,19.333984 10,19.333984 h 20 c 0.619143,0 1.212578,0.245782 1.650391,0.683594 0.437812,0.437812 0.683593,1.029295 0.683593,1.648438 V 35 a 1,1 0 0 0 1,1 1,1 0 0 0 1,-1 V 21.666016 c 0,-1.148856 -0.457144,-2.250114 -1.269531,-3.0625 C 32.252067,17.791129 31.148856,17.333984 30,17.333984 Z"
     id="path2" />
  <path
     style="color:#000000;fill:#0968ff;stroke-linecap:round;stroke-linejoin:round;-inkscape-stroke:none"
     d="m 10,24 c -1.4722334,0 -2.5553164,0.514166 -3.2285156,1.052734 -0.6731993,0.538569 -1,1.166016 -1,1.166016 A 1,1 0 0 0 6.21875,27.560547 1,1 0 0 0 7.5605469,27.113281 c 0,0 0.092468,-0.205219 0.4609375,-0.5 C 8.3899541,26.318501 8.9722159,26 10,26 c 0.805559,0 1.667335,0.613941 2.708984,1.447266 1.041649,0.833324 2.262593,1.886718 3.957032,1.886718 1.694438,0 2.91731,-1.053394 3.958984,-1.886718 C 21.666674,26.613941 22.528425,26 23.333984,26 c 0.80556,0 1.667311,0.613941 2.708985,1.447266 1.041674,0.833324 2.262593,1.886718 3.957031,1.886718 1.472212,0 2.555324,-0.514193 3.228516,-1.052734 0.673192,-0.538541 1,-1.167969 1,-1.167969 A 1,1 0 0 0 33.78125,25.771484 1,1 0 0 0 32.439453,26.21875 c 0,0 -0.09053,0.205242 -0.458984,0.5 -0.368457,0.294758 -0.952683,0.615234 -1.980469,0.615234 -0.805559,0 -1.66731,-0.613941 -2.708984,-1.447265 C 26.249342,25.053395 25.028423,24 23.333984,24 c -1.694438,0 -2.91731,1.053395 -3.958984,1.886719 -1.041674,0.833324 -1.903425,1.447265 -2.708984,1.447265 -0.80556,0 -1.665383,-0.613941 -2.707032,-1.447265 C 12.917335,25.053395 11.694438,24 10,24 Z"
     id="path4" />
  <path
     style="color:#000000;fill:#0968ff;stroke-linecap:round;stroke-linejoin:round;-inkscape-stroke:none"
     d="m 3.3339844,34 a 1,1 0 0 0 -1,1 1,1 0 0 0 1,1 H 36.666016 a 1,1 0 0 0 1,-1 1,1 0 0 0 -1,-1 z"
     id="path6" />
  <path
     style="color:#000000;fill:#0968ff;stroke-linecap:round;stroke-linejoin:round;-inkscape-stroke:none"
     d="m 11.666016,12.333984 a 1,1 0 0 0 -1,1 v 3.332032 a 1,1 0 0 0 1,1 1,1 0 0 0 1,-1 v -3.332032 a 1,1 0 0 0 -1,-1 z"
     id="path8" />
  <path
     style="color:#000000;fill:#0968ff;stroke-linecap:round;stroke-linejoin:round;-inkscape-stroke:none"
     d="m 20,12.333984 a 1,1 0 0 0 -1,1 v 3.332032 a 1,1 0 0 0 1,1 1,1 0 0 0 1,-1 v -3.332032 a 1,1 0 0 0 -1,-1 z"
     id="path10" />
  <path
     style="color:#000000;fill:#0968ff;stroke-linecap:round;stroke-linejoin:round;-inkscape-stroke:none"
     d="m 28.333984,12.333984 a 1,1 0 0 0 -1,1 v 3.332032 a 1,1 0 0 0 1,1 1,1 0 0 0 1,-1 v -3.332032 a 1,1 0 0 0 -1,-1 z"
     id="path12" />
  <path
     style="color:#000000;fill:#0968ff;stroke-linecap:round;stroke-linejoin:round;-inkscape-stroke:none"
     d="m 11.666016,5.6660156 a 1,1 0 0 0 -1,1 1,1 0 0 0 1,1 h 0.01758 a 1,1 0 0 0 1,-1 1,1 0 0 0 -1,-1 z"
     id="path14" />
  <path
     style="color:#000000;fill:#0968ff;stroke-linecap:round;stroke-linejoin:round;-inkscape-stroke:none"
     d="m 20,5.6660156 a 1,1 0 0 0 -1,1 1,1 0 0 0 1,1 h 0.01758 a 1,1 0 0 0 1,-1 1,1 0 0 0 -1,-1 z"
     id="path16" />
  <path
     style="color:#000000;fill:#0968ff;stroke-linecap:round;stroke-linejoin:round;-inkscape-stroke:none"
     d="m 28.333984,5.6660156 a 1,1 0 0 0 -1,1 1,1 0 0 0 1,1 h 0.01563 a 1,1 0 0 0 1,-1 1,1 0 0 0 -1,-1 z"
     id="path18" />
</svg>
