<svg width="18" height="18" viewBox="0 0 18 18" fill="none" xmlns="http://www.w3.org/2000/svg">
<g clip-path="url(#clip0_2383:2972)">
<path d="M16.6987 1.73499H1.30112C0.703219 1.73499 0.216797 2.22141 0.216797 2.81931V16.9157C0.216797 17.5136 0.703219 18.0001 1.30112 18.0001H16.6987C17.2966 18.0001 17.783 17.5136 17.783 16.9157V2.81934C17.783 2.22144 17.2966 1.73499 16.6987 1.73499ZM16.4818 16.6989H1.518V3.03619H16.4819V16.6989H16.4818Z" fill="black"/>
<path d="M17.1323 6.07227H0.867188V7.37347H17.1323V6.07227Z" fill="black"/>
<path d="M4.77121 0C4.41187 0 4.12061 0.29127 4.12061 0.650602V4.12049C4.12061 4.47982 4.41187 4.77109 4.77121 4.77109C5.13054 4.77109 5.42181 4.47982 5.42181 4.12049V0.650602C5.42181 0.29127 5.13054 0 4.77121 0Z" fill="black"/>
<path d="M13.4455 0C13.0862 0 12.7949 0.29127 12.7949 0.650602V4.12049C12.7949 4.47982 13.0862 4.77109 13.4455 4.77109C13.8049 4.77109 14.0961 4.47982 14.0961 4.12049V0.650602C14.0961 0.29127 13.8049 0 13.4455 0Z" fill="black"/>
<path d="M11.4939 13.012H6.72287C6.36353 13.012 6.07227 13.3032 6.07227 13.6626C6.07227 14.0219 6.36353 14.3132 6.72287 14.3132H11.4939C11.8533 14.3132 12.1445 14.0219 12.1445 13.6626C12.1445 13.3032 11.8533 13.012 11.4939 13.012Z" fill="black"/>
<path d="M11.4939 9.97595H6.72287C6.36353 9.97595 6.07227 10.2672 6.07227 10.6266C6.07227 10.9859 6.36353 11.2772 6.72287 11.2772H11.4939C11.8533 11.2772 12.1445 10.9859 12.1445 10.6266C12.1445 10.2672 11.8533 9.97595 11.4939 9.97595Z" fill="black"/>
</g>
<defs>
<clipPath id="clip0_2383:2972">
<rect width="18" height="18" fill="white"/>
</clipPath>
</defs>
</svg>
