<svg width="25" height="24" viewBox="0 0 25 24" fill="none" xmlns="http://www.w3.org/2000/svg">
<path d="M12.5 14C14.1569 14 15.5 12.6569 15.5 11C15.5 9.34315 14.1569 8 12.5 8C10.8431 8 9.5 9.34315 9.5 11C9.5 12.6569 10.8431 14 12.5 14Z" fill="#F4F5F8"/>
<path d="M20.5 4H17.33L16.09 2.65C15.9036 2.44539 15.6767 2.28191 15.4235 2.16999C15.1704 2.05807 14.8968 2.00017 14.62 2H10.38C9.82 2 9.28 2.24 8.9 2.65L7.67 4H4.5C3.4 4 2.5 4.9 2.5 6V18C2.5 19.1 3.4 20 4.5 20H20.5C21.6 20 22.5 19.1 22.5 18V6C22.5 4.9 21.6 4 20.5 4ZM12.5 17C9.74 17 7.5 14.76 7.5 12C7.5 9.24 9.74 7 12.5 7C15.26 7 17.5 9.24 17.5 12C17.5 14.76 15.26 17 12.5 17Z" fill="#F4F5F8"/>
</svg>
