<svg width="18" height="18" viewBox="0 0 18 18" fill="none" xmlns="http://www.w3.org/2000/svg">
<path d="M9.85295 6.932C11.5857 6.932 13.2465 5.59955 13.2465 3.3936C13.2466 1.52237 11.7242 0 9.85295 0H3.39506C1.66232 0 0.00146484 1.33246 0.00146484 3.53841C0.00146484 5.23034 1.246 6.63704 2.86772 6.89112V9.14625C2.86772 9.63021 3.46822 9.85693 3.78881 9.497L6.07372 6.932H9.85295ZM5.44348 6.05391L3.92237 7.76148V6.40466C3.92237 6.11343 3.68626 5.87732 3.39503 5.87732C2.10532 5.87732 1.05608 4.82808 1.05608 3.53837C1.05608 1.9826 2.17982 1.05462 3.39503 1.05462H9.85291C11.1426 1.05462 12.1919 2.10386 12.1919 3.39356C12.1919 4.94933 11.0681 5.87732 9.85291 5.87732H5.83726C5.68683 5.87735 5.54353 5.94162 5.44348 6.05391V6.05391Z" fill="black"/>
<path d="M3.40913 4.11929C3.76993 4.11929 4.06241 3.82681 4.06241 3.46602C4.06241 3.10522 3.76993 2.81274 3.40913 2.81274C3.04834 2.81274 2.75586 3.10522 2.75586 3.46602C2.75586 3.82681 3.04834 4.11929 3.40913 4.11929Z" fill="black"/>
<path d="M7.2304 3.71648C7.36858 3.38311 7.21035 3.00084 6.87698 2.86266C6.54361 2.72447 6.16134 2.8827 6.02315 3.21608C5.88497 3.54945 6.0432 3.93172 6.37657 4.06991C6.70994 4.20809 7.09221 4.04986 7.2304 3.71648Z" fill="black"/>
<path d="M9.83931 4.11929C10.2001 4.11929 10.4926 3.82681 10.4926 3.46602C10.4926 3.10522 10.2001 2.81274 9.83931 2.81274C9.47852 2.81274 9.18604 3.10522 9.18604 3.46602C9.18604 3.82681 9.47852 4.11929 9.83931 4.11929Z" fill="black"/>
<path d="M14.6039 8.32605H8.14604C6.42187 8.32605 4.75244 9.65053 4.75244 11.8645C4.75244 13.7357 6.27481 15.2581 8.14604 15.2581H11.9253L14.2102 17.8231C14.5321 18.1844 15.1313 17.9552 15.1313 17.4723V15.2172C16.753 14.9631 17.9975 13.5564 17.9975 11.8645C17.9975 9.67475 16.3499 8.32605 14.6039 8.32605ZM16.9429 11.8645C16.9429 13.1542 15.8936 14.2034 14.6039 14.2034C14.3127 14.2034 14.0766 14.4395 14.0766 14.7307V16.0876L12.5555 14.38C12.4554 14.2677 12.3121 14.2034 12.1617 14.2034H8.14604C6.85633 14.2034 5.80709 13.1542 5.80709 11.8645C5.80709 10.3087 6.93086 9.38074 8.14604 9.38074H14.6039C15.783 9.3807 16.9429 10.2704 16.9429 11.8645Z" fill="black"/>
<path d="M15.2001 12.0441C15.3383 11.7107 15.1801 11.3285 14.8467 11.1903C14.5133 11.0521 14.1311 11.2103 13.9929 11.5437C13.8547 11.8771 14.0129 12.2594 14.3463 12.3975C14.6797 12.5357 15.0619 12.3775 15.2001 12.0441Z" fill="black"/>
<path d="M11.375 12.4452C11.7357 12.4452 12.0282 12.1527 12.0282 11.7919C12.0282 11.4312 11.7357 11.1387 11.375 11.1387C11.0142 11.1387 10.7217 11.4312 10.7217 11.7919C10.7217 12.1527 11.0142 12.4452 11.375 12.4452Z" fill="black"/>
<path d="M8.26203 12.4372C8.61813 12.3795 8.86001 12.044 8.80229 11.6879C8.74456 11.3318 8.40909 11.0899 8.05298 11.1477C7.69688 11.2054 7.455 11.5409 7.51273 11.897C7.57045 12.2531 7.90593 12.495 8.26203 12.4372Z" fill="black"/>
</svg>
