<?xml version="1.0" encoding="UTF-8" standalone="no"?>
<svg
   width="20"
   height="20"
   viewBox="0 0 20 20"
   fill="none"
   version="1.1"
   id="svg10"
   sodipodi:docname="child.svg"
   inkscape:version="1.2.2 (732a01da63, 2022-12-09)"
   xmlns:inkscape="http://www.inkscape.org/namespaces/inkscape"
   xmlns:sodipodi="http://sodipodi.sourceforge.net/DTD/sodipodi-0.dtd"
   xmlns="http://www.w3.org/2000/svg"
   xmlns:svg="http://www.w3.org/2000/svg">
  <defs
     id="defs14" />
  <sodipodi:namedview
     id="namedview12"
     pagecolor="#ffffff"
     bordercolor="#000000"
     borderopacity="0.25"
     inkscape:showpageshadow="2"
     inkscape:pageopacity="0.0"
     inkscape:pagecheckerboard="0"
     inkscape:deskcolor="#d1d1d1"
     showgrid="false"
     inkscape:zoom="41.3"
     inkscape:cx="10.012107"
     inkscape:cy="10.012107"
     inkscape:window-width="1920"
     inkscape:window-height="1013"
     inkscape:window-x="-9"
     inkscape:window-y="-9"
     inkscape:window-maximized="1"
     inkscape:current-layer="svg10" />
  <path
     style="color:#000000;fill:#0968ff;stroke-linecap:round;stroke-linejoin:round;-inkscape-stroke:none"
     d="m 7.5,9 a 1,1 0 0 0 -1,1 1,1 0 0 0 1,1 h 0.00781 a 1,1 0 0 0 1,-1 1,1 0 0 0 -1,-1 z"
     id="path2" />
  <path
     style="color:#000000;fill:#0968ff;stroke-linecap:round;stroke-linejoin:round;-inkscape-stroke:none"
     d="m 12.5,9 a 1,1 0 0 0 -1,1 1,1 0 0 0 1,1 h 0.0078 a 1,1 0 0 0 1,-1 1,1 0 0 0 -1,-1 z"
     id="path4" />
  <path
     style="color:#000000;fill:#0968ff;stroke-linecap:round;stroke-linejoin:round;-inkscape-stroke:none"
     d="m 8.0898438,12.363281 a 1,1 0 0 0 -0.6132813,0.455078 1,1 0 0 0 0.3417969,1.373047 C 8.4199395,14.552351 9.1666317,14.75 10,14.75 c 0.833331,0 1.580022,-0.197565 2.181641,-0.558594 a 1,1 0 0 0 0.341797,-1.373047 1,1 0 0 0 -1.371094,-0.341796 C 10.920763,12.615533 10.499908,12.75 10,12.75 9.5000297,12.75 9.0794153,12.615617 8.8476563,12.476563 A 1,1 0 0 0 8.0898438,12.363281 Z"
     id="path6" />
  <path
     style="color:#000000;fill:#0968ff;stroke-linecap:round;stroke-linejoin:round;-inkscape-stroke:none"
     d="M 9.9980469,1.5 C 8.0419872,1.5039436 6.1467352,2.183211 4.6328125,3.421875 3.2116757,4.5846213 2.2577386,6.1948497 1.8164062,7.9707031 1.5725993,8.1608592 1.2985045,8.3196484 1.1328125,8.5839844 0.86679704,9.0083965 0.7265625,9.4991264 0.7265625,10 c 0,0.500878 0.14011491,0.991557 0.40625,1.416016 0.1661861,0.265134 0.4408211,0.424754 0.6855469,0.615234 0.4550599,1.763389 1.416772,3.359157 2.8378906,4.507812 1.5123605,1.222518 3.3991021,1.888672 5.34375,1.888672 1.944717,0 3.831372,-0.666167 5.34375,-1.888672 1.421037,-1.148649 2.382784,-2.744434 2.837891,-4.507812 0.244679,-0.190444 0.519322,-0.350055 0.685546,-0.615234 0.26595,-0.424367 0.40625,-0.915117 0.40625,-1.416016 0,-0.5008949 -0.14042,-0.9916955 -0.40625,-1.4160156 C 18.690716,8.3024685 18.402837,8.1282639 18.138672,7.9316406 17.845396,6.7397647 17.382654,5.589039 16.615234,4.6269531 A 1,1 0 0 0 15.208984,4.46875 1,1 0 0 0 15.050781,5.8730469 c 0.654291,0.8202594 1.101096,1.7863273 1.300781,2.8164062 a 1.0001,1.0001 0 0 0 0.544922,0.7109375 c 0.112763,0.054628 0.20886,0.1399608 0.275391,0.2460938 0.06657,0.1062593 0.101562,0.2282311 0.101562,0.3535156 0,0.1253 -0.03511,0.247483 -0.101562,0.353516 -0.06654,0.106145 -0.16258,0.19143 -0.275391,0.246093 a 1.0001,1.0001 0 0 0 -0.541015,0.691407 c -0.311868,1.45437 -1.112836,2.756428 -2.269531,3.691406 -1.156819,0.935094 -2.598459,1.445312 -4.085938,1.445312 -1.4873887,0 -2.9291607,-0.510231 -4.0859375,-1.445312 C 4.7573136,14.04745 3.9563533,12.745376 3.6445313,11.291016 A 1.0001,1.0001 0 0 0 3.1035156,10.599609 C 2.9907056,10.544964 2.8947019,10.459733 2.828125,10.353516 2.7617004,10.247575 2.7265625,10.125322 2.7265625,10 c 0,-0.1253057 0.035018,-0.2473482 0.1015625,-0.3535156 C 2.8946964,9.54028 2.9907532,9.4550011 3.1035156,9.4003906 A 1.0001,1.0001 0 0 0 3.6464844,8.6992188 C 3.9457137,7.2332796 4.7404765,5.916171 5.8984375,4.96875 7.0559083,4.0217285 8.5045554,3.5034637 10,3.5 c 0.650019,0 1.181548,0.1867322 1.5,0.4160156 0.318452,0.2292834 0.416016,0.4417839 0.416016,0.6679688 0,0.738099 -0.415961,1.0820312 -0.666016,1.0820312 -0.15405,0 -0.271408,-0.045494 -0.3125,-0.066406 A 1,1 0 0 0 10,4.8339844 a 1,1 0 0 0 -1,1 C 9,6.4729171 9.4069136,7.0069987 9.8378906,7.28125 10.268868,7.5555013 10.750014,7.6660156 11.25,7.6660156 c 1.583343,0 2.666016,-1.4867926 2.666016,-3.0820312 0,-0.940474 -0.524825,-1.7702998 -1.248047,-2.2910156 C 11.944747,1.7722529 11.016679,1.5 10,1.5 a 1.0001,1.0001 0 0 0 -0.00195,0 z"
     id="path8" />
</svg>
