<svg width="15" height="16" viewBox="0 0 15 16" fill="none" xmlns="http://www.w3.org/2000/svg">
<path d="M2.07129 8.88373L7.81754 3.13874C8.40455 2.55701 9.19809 2.23149 10.0245 2.23341C10.851 2.23534 11.643 2.56455 12.2273 3.14901C12.8116 3.73347 13.1405 4.52558 13.1422 5.35201C13.1439 6.17844 12.8182 6.97189 12.2363 7.55873L5.60754 14.1875C5.37179 14.4152 5.05603 14.5412 4.72829 14.5383C4.40054 14.5355 4.08703 14.404 3.85527 14.1723C3.62351 13.9405 3.49204 13.627 3.4892 13.2992C3.48635 12.9715 3.61234 12.6557 3.84004 12.42L10.4688 5.78998C10.5826 5.67211 10.6456 5.51423 10.6442 5.35036C10.6428 5.18649 10.5771 5.02973 10.4612 4.91385C10.3453 4.79797 10.1885 4.73224 10.0247 4.73081C9.86079 4.72939 9.70291 4.79239 9.58504 4.90624L2.95504 11.5375C2.48627 12.0064 2.22298 12.6424 2.2231 13.3054C2.22316 13.6337 2.28788 13.9588 2.41358 14.2621C2.53927 14.5654 2.72347 14.841 2.95566 15.0731C3.18786 15.3052 3.4635 15.4893 3.76684 15.6149C4.07018 15.7405 4.39529 15.8051 4.72361 15.805C5.38666 15.8049 6.02252 15.5414 6.49129 15.0725L13.12 8.44373C13.9406 7.62322 14.4015 6.51037 14.4015 5.34999C14.4015 4.1896 13.9406 3.07675 13.12 2.25624C12.2995 1.43572 11.1867 0.974762 10.0263 0.974762C8.86591 0.974762 7.75305 1.43572 6.93254 2.25624L1.18754 7.99998C1.12785 8.05764 1.08023 8.12661 1.04748 8.20286C1.01472 8.27911 0.997479 8.36112 0.996758 8.44411C0.996037 8.5271 1.01185 8.6094 1.04328 8.68621C1.0747 8.76302 1.12111 8.8328 1.17979 8.89148C1.23848 8.95016 1.30826 8.99657 1.38507 9.028C1.46188 9.05942 1.54418 9.07524 1.62717 9.07452C1.71015 9.07379 1.79216 9.05655 1.86842 9.0238C1.94467 8.99104 2.01364 8.94343 2.07129 8.88373Z" fill="#D5DAEA"/>
</svg>
