<svg width="8" height="8" viewBox="0 0 8 8" fill="none" xmlns="http://www.w3.org/2000/svg">
<path d="M6.96964 0.287712L3.99984 3.25752L1.02997 0.287644C0.825093 0.0827688 0.492426 0.0827687 0.287483 0.287712C0.0826084 0.492587 0.0826084 0.825254 0.287483 1.03013L3.25735 4L0.287483 6.96987C0.0826084 7.17475 0.0826084 7.50741 0.287483 7.71229C0.492426 7.91723 0.825093 7.91723 1.02997 7.71236L3.99984 4.74248L6.96964 7.71229C7.17459 7.91723 7.50725 7.91723 7.71213 7.71236C7.91707 7.50741 7.91707 7.17475 7.71213 6.9698L4.74232 4L7.71213 1.0302C7.91707 0.825254 7.91707 0.492587 7.71213 0.287644C7.50725 0.0827688 7.17459 0.0827687 6.96964 0.287712V0.287712Z" fill="#AFB8D6"/>
</svg>
