<svg width="17" height="17" viewBox="0 0 17 17" fill="none" xmlns="http://www.w3.org/2000/svg">
<g clip-path="url(#clip0_5237_7282)">
<path d="M8.75 12.5625C8.5775 12.5625 8.4375 12.7025 8.4375 12.875C8.4375 13.0475 8.5775 13.1875 8.75 13.1875C8.9225 13.1875 9.0625 13.0475 9.0625 12.875C9.0625 12.7025 8.9225 12.5625 8.75 12.5625Z" fill="#AFB8D6"/>
<path d="M15.409 2.41781C14.64 2.10809 13.6402 1.9375 12.5938 1.9375C11.5473 1.9375 10.5475 2.10809 9.77853 2.41781C9.32409 2.60084 8.97713 2.82453 8.75 3.07553C8.52287 2.82453 8.17591 2.60087 7.72147 2.41784C6.95247 2.10809 5.95266 1.9375 4.90625 1.9375C3.85984 1.9375 2.86003 2.10809 2.09103 2.41781C1.22625 2.76612 0.75 3.26144 0.75 3.8125V11.3125C0.75 11.8636 1.22625 12.3589 2.09103 12.7072C2.80625 12.9952 3.72119 13.1628 4.6875 13.1848V13.1875C4.6875 14.2564 6.434 15.0625 8.75 15.0625C11.066 15.0625 12.8125 14.2564 12.8125 13.1875V13.1848C13.7788 13.1628 14.6938 12.9952 15.409 12.7072C16.2738 12.3589 16.75 11.8636 16.75 11.3125V3.8125C16.75 3.26144 16.2738 2.76612 15.409 2.41781ZM16.125 9.4375C16.125 9.70428 15.7612 10.0165 15.1755 10.2524C14.5416 10.5078 13.6905 10.6622 12.8125 10.6844V9.4375C12.8125 9.43659 12.8124 9.43569 12.8124 9.43481C13.7788 9.41278 14.6937 9.24528 15.409 8.95719C15.6897 8.84413 15.9292 8.7155 16.125 8.57456L16.125 9.4375ZM8.4375 5.6875C8.4375 5.95428 8.07366 6.26653 7.48797 6.50244C6.8015 6.77894 5.8605 6.9375 4.90625 6.9375C3.952 6.9375 3.011 6.77894 2.32453 6.50244C1.73884 6.26653 1.375 5.95428 1.375 5.6875V4.82456C1.57084 4.9655 1.81031 5.09413 2.09103 5.20719C2.86003 5.51691 3.85984 5.6875 4.90625 5.6875C5.95266 5.6875 6.95247 5.51691 7.72147 5.20719C8.00219 5.09413 8.24166 4.9655 8.4375 4.82456V5.6875ZM2.09103 7.08219C2.86003 7.39191 3.85984 7.5625 4.90625 7.5625C5.95266 7.5625 6.95247 7.39191 7.72147 7.08219C8.00219 6.96913 8.24166 6.8405 8.4375 6.69956V7.56803C7.62906 7.59541 6.85375 7.72809 6.22666 7.94894C5.59769 8.17047 5.14509 8.46588 4.89897 8.81241C3.94722 8.81159 3.00925 8.65322 2.32453 8.37744C1.73884 8.14153 1.375 7.82928 1.375 7.5625V6.69956C1.57084 6.8405 1.81031 6.96913 2.09103 7.08219ZM1.375 8.57456C1.57084 8.7155 1.81031 8.84413 2.09103 8.95719C2.80628 9.24525 3.72125 9.41275 4.68759 9.43481C4.68759 9.43572 4.68753 9.43663 4.68753 9.4375V10.6844C3.8095 10.6622 2.95847 10.5078 2.32456 10.2524C1.73884 10.0165 1.375 9.70428 1.375 9.4375V8.57456ZM5.34556 9.28397C5.57716 8.745 6.91388 8.1875 8.75 8.1875C10.5861 8.1875 11.9228 8.745 12.1542 9.28334C12.1766 9.33587 12.1875 9.38628 12.1875 9.4375C12.1875 9.71225 11.8488 10.0174 11.2814 10.2538C10.6103 10.5335 9.71128 10.6875 8.75 10.6875C7.78872 10.6875 6.88972 10.5335 6.21859 10.2538C5.65122 10.0174 5.3125 9.71225 5.3125 9.4375C5.3125 9.38628 5.32341 9.33588 5.34556 9.28397ZM16.125 7.5625C16.125 7.82928 15.7612 8.14153 15.1755 8.37744C14.4908 8.65322 13.5528 8.81159 12.6011 8.81241C12.3552 8.46606 11.9025 8.17053 11.2733 7.94894C10.6463 7.72806 9.87094 7.59541 9.0625 7.56803V6.69956C9.25834 6.8405 9.49781 6.96913 9.77853 7.08219C10.5475 7.39191 11.5473 7.5625 12.5938 7.5625C13.6402 7.5625 14.64 7.39191 15.409 7.08219C15.6897 6.96913 15.9292 6.8405 16.125 6.69956V7.5625ZM16.125 5.6875C16.125 5.95428 15.7612 6.26653 15.1755 6.50244C14.489 6.77894 13.548 6.9375 12.5938 6.9375C11.6395 6.9375 10.6985 6.77894 10.012 6.50244C9.42634 6.26653 9.0625 5.95428 9.0625 5.6875V4.82456C9.25834 4.9655 9.49781 5.09413 9.77853 5.20719C10.5475 5.51691 11.5473 5.6875 12.5938 5.6875C13.6402 5.6875 14.64 5.51691 15.409 5.20719C15.6897 5.09413 15.9292 4.9655 16.125 4.82456V5.6875ZM10.012 2.99756C10.6985 2.72106 11.6395 2.5625 12.5938 2.5625C13.548 2.5625 14.489 2.72106 15.1755 2.99756C15.7612 3.23347 16.125 3.54572 16.125 3.8125C16.125 4.07928 15.7612 4.39153 15.1755 4.62744C14.489 4.90394 13.548 5.0625 12.5938 5.0625C11.6395 5.0625 10.6985 4.90394 10.012 4.62744C9.42634 4.39153 9.0625 4.07928 9.0625 3.8125C9.0625 3.54572 9.42634 3.23347 10.012 2.99756ZM2.32453 2.99756C3.011 2.72106 3.952 2.5625 4.90625 2.5625C5.8605 2.5625 6.8015 2.72106 7.48797 2.99756C8.07366 3.23347 8.4375 3.54572 8.4375 3.8125C8.4375 4.07928 8.07366 4.39153 7.48797 4.62744C6.8015 4.90394 5.8605 5.0625 4.90625 5.0625C3.952 5.0625 3.011 4.90394 2.32453 4.62744C1.73884 4.39153 1.375 4.07928 1.375 3.8125C1.375 3.54572 1.73884 3.23347 2.32453 2.99756ZM2.32453 12.1274C1.73884 11.8915 1.375 11.5793 1.375 11.3125V10.4496C1.57084 10.5905 1.81031 10.7191 2.09103 10.8322C2.80625 11.1202 3.72119 11.2878 4.6875 11.3098V12.5594C3.80947 12.5372 2.95844 12.3828 2.32453 12.1274ZM11.2814 14.0038C10.6103 14.2835 9.71128 14.4375 8.75 14.4375C7.78872 14.4375 6.88972 14.2835 6.21859 14.0038C5.65122 13.7674 5.3125 13.4622 5.3125 13.1875V12.3428C5.38328 12.394 5.4615 12.4449 5.54825 12.4951C6.03353 12.7759 6.69381 12.9836 7.45775 13.0957C7.47316 13.098 7.48841 13.0991 7.50353 13.0991C7.65603 13.0991 7.7895 12.9873 7.81231 12.8319C7.83738 12.6612 7.71925 12.5024 7.54853 12.4774C6.09619 12.2642 5.3125 11.7181 5.3125 11.3125V10.465C6.01981 10.9826 7.26834 11.3125 8.75 11.3125C10.2317 11.3125 11.4802 10.9826 12.1875 10.465V11.3125C12.1875 11.7181 11.4038 12.2642 9.95147 12.4774C9.78072 12.5024 9.66259 12.6612 9.68769 12.8319C9.7105 12.9873 9.84397 13.0991 9.99647 13.0991C10.0116 13.0991 10.0269 13.098 10.0422 13.0957C10.8062 12.9836 11.4664 12.7759 11.9517 12.4951C12.0385 12.4449 12.1167 12.394 12.1875 12.3428V13.1875C12.1875 13.4622 11.8488 13.7674 11.2814 14.0038ZM15.1755 12.1274C14.5416 12.3828 13.6905 12.5372 12.8125 12.5594V11.3098C13.7788 11.2877 14.6938 11.1202 15.409 10.8322C15.6897 10.7191 15.9292 10.5905 16.125 10.4495V11.3125C16.125 11.5793 15.7612 11.8915 15.1755 12.1274Z" fill="#AFB8D6"/>
</g>
<defs>
<clipPath id="clip0_5237_7282">
<rect width="16" height="16" fill="white" transform="translate(0.75 0.5)"/>
</clipPath>
</defs>
</svg>
