<svg width="16" height="13" viewBox="0 0 16 13" fill="none" xmlns="http://www.w3.org/2000/svg">
<path d="M14.7786 10.3013C15.5281 9.51786 16 8.53125 16 7.42857C16 5.10714 13.8625 3.19196 11.0866 2.87277C10.226 1.18973 8.17181 0 5.78449 0C2.59214 0 0.0105013 2.08929 0.0105013 4.64286C0.0105013 5.71652 0.454654 6.70312 1.23192 7.51562C0.787769 8.38616 0.177059 9.08259 0.177059 9.11161C0.0105012 9.28571 -0.0450178 9.57589 0.0382608 9.83705C0.149299 10.0692 0.371375 10.2433 0.648971 10.2433C2.12023 10.2433 3.31389 9.63393 4.11891 9.11161C4.36875 9.16964 4.64635 9.19866 4.89618 9.2567C5.78449 10.9107 7.81093 12.0714 10.226 12.0714C10.7812 12.0714 11.3364 12.0134 11.8638 11.8973C12.6689 12.4196 13.8625 13 15.3615 13C15.6114 13 15.8334 12.8549 15.9445 12.5938C16.0278 12.3616 16 12.0714 15.8057 11.8683C15.8057 11.8683 15.195 11.1719 14.7786 10.3013ZM3.86908 7.60268L3.39717 7.92188C3.00853 8.21205 2.59214 8.41518 2.20351 8.56027C2.25902 8.41518 2.3423 8.27009 2.42558 8.125L2.84198 7.22545L2.14799 6.5C1.78711 6.12277 1.34296 5.48438 1.34296 4.64286C1.34296 2.90179 3.36941 1.39286 5.78449 1.39286C8.17181 1.39286 10.226 2.90179 10.226 4.64286C10.226 6.41295 8.17181 7.89286 5.78449 7.89286C5.31257 7.89286 4.86842 7.86384 4.42427 7.74777L3.86908 7.60268ZM13.8348 9.28571L13.1408 10.0112L13.5849 10.9107C13.6404 11.0558 13.7237 11.2009 13.807 11.346C13.3906 11.2009 13.002 10.9688 12.6133 10.7076L12.1137 10.3884L11.5862 10.5335C11.1421 10.6496 10.6702 10.6786 10.226 10.6786C8.727 10.6786 7.36678 10.0982 6.56175 9.2567C9.39323 8.9375 11.5585 6.9933 11.5585 4.64286C11.5585 4.5558 11.5307 4.46875 11.5307 4.35268C13.3073 4.78795 14.6675 6.0067 14.6675 7.42857C14.6675 8.27009 14.1956 8.90848 13.8348 9.28571Z" fill="black"/>
</svg>
