<svg width="16" height="12" viewBox="0 0 16 12" fill="none" xmlns="http://www.w3.org/2000/svg">
<path fill-rule="evenodd" clip-rule="evenodd" d="M7.66457 0.32918C7.87572 0.223607 8.12424 0.223607 8.33539 0.32918L15.0021 3.66251C15.2561 3.78956 15.4166 4.04925 15.4166 4.33333C15.4166 4.61741 15.2561 4.87711 15.0021 5.00415L13.4166 5.79686V8.66671C13.4166 8.95079 13.2561 9.21048 13.0021 9.33753L8.33539 11.6709C8.12424 11.7764 7.87572 11.7764 7.66457 11.6709L2.9979 9.33753C2.74381 9.21048 2.58331 8.95079 2.58331 8.66671V5.79686L0.997903 5.00415C0.743815 4.87711 0.583313 4.61741 0.583313 4.33333C0.583313 4.04925 0.743815 3.78956 0.997903 3.66251L7.66457 0.32918ZM12.3194 4.66844C12.3275 4.66418 12.3358 4.66005 12.3441 4.65608L12.9896 4.33333L7.99998 1.83853L3.01036 4.33333L3.65587 4.65609C3.66419 4.66005 3.67242 4.66417 3.68057 4.66844L7.99998 6.82814L12.3194 4.66844ZM7.66457 8.33749L4.08331 6.54686V8.20318L7.99998 10.1615L11.9166 8.20318V6.54686L8.33539 8.33749C8.12424 8.44306 7.87572 8.44306 7.66457 8.33749ZM15.4167 7.33337C15.4167 6.91916 15.0809 6.58337 14.6667 6.58337C14.2525 6.58337 13.9167 6.91916 13.9167 7.33337V10C13.9167 10.4143 14.2525 10.75 14.6667 10.75C15.0809 10.75 15.4167 10.4143 15.4167 10V7.33337Z" fill="#D5DAEA"/>
</svg>
