<svg width="16" height="16" viewBox="0 0 16 16" fill="none" xmlns="http://www.w3.org/2000/svg">
<g clip-path="url(#clip0_2391_18662)">
<path d="M10.2069 5.79681C9.99995 5.79681 9.83221 5.96455 9.83221 6.17152V13.2535C9.83221 13.4603 9.99995 13.6282 10.2069 13.6282C10.4139 13.6282 10.5816 13.4603 10.5816 13.2535V6.17152C10.5816 5.96455 10.4139 5.79681 10.2069 5.79681Z" fill="#AFB8D6"/>
<path d="M5.78541 5.79681C5.57845 5.79681 5.41071 5.96455 5.41071 6.17152V13.2535C5.41071 13.4603 5.57845 13.6282 5.78541 13.6282C5.99238 13.6282 6.16012 13.4603 6.16012 13.2535V6.17152C6.16012 5.96455 5.99238 5.79681 5.78541 5.79681Z" fill="#AFB8D6"/>
<path d="M2.56294 4.76317V13.9951C2.56294 14.5408 2.76303 15.0532 3.11256 15.4209C3.46048 15.7896 3.94467 15.9989 4.45141 15.9998H11.541C12.0478 15.9989 12.532 15.7896 12.8798 15.4209C13.2293 15.0532 13.4294 14.5408 13.4294 13.9951V4.76317C14.1242 4.57875 14.5745 3.90749 14.4815 3.19453C14.3884 2.48171 13.7811 1.94848 13.0622 1.94834H11.1437V1.47996C11.1459 1.08607 10.9902 0.707856 10.7113 0.429607C10.4325 0.151505 10.0537 -0.003354 9.65982 -0.000133872H6.33255C5.93867 -0.003354 5.55986 0.151505 5.28103 0.429607C5.00219 0.707856 4.84646 1.08607 4.84865 1.47996V1.94834H2.93019C2.21122 1.94848 1.60393 2.48171 1.51084 3.19453C1.4179 3.90749 1.86813 4.57875 2.56294 4.76317ZM11.541 15.2504H4.45141C3.81075 15.2504 3.31236 14.7001 3.31236 13.9951V4.7961H12.68V13.9951C12.68 14.7001 12.1816 15.2504 11.541 15.2504ZM5.59806 1.47996C5.59558 1.28484 5.67227 1.09705 5.81074 0.959319C5.94906 0.821585 6.13729 0.745912 6.33255 0.749278H9.65982C9.85508 0.745912 10.0433 0.821585 10.1816 0.959319C10.3201 1.09691 10.3968 1.28484 10.3943 1.47996V1.94834H5.59806V1.47996ZM2.93019 2.69775H13.0622C13.4347 2.69775 13.7367 2.99971 13.7367 3.37222C13.7367 3.74473 13.4347 4.04669 13.0622 4.04669H2.93019C2.55768 4.04669 2.25571 3.74473 2.25571 3.37222C2.25571 2.99971 2.55768 2.69775 2.93019 2.69775Z" fill="#AFB8D6"/>
<path d="M7.99622 5.79681C7.78926 5.79681 7.62152 5.96455 7.62152 6.17152V13.2535C7.62152 13.4603 7.78926 13.6282 7.99622 13.6282C8.20318 13.6282 8.37092 13.4603 8.37092 13.2535V6.17152C8.37092 5.96455 8.20318 5.79681 7.99622 5.79681Z" fill="#AFB8D6"/>
</g>
<defs>
<clipPath id="clip0_2391_18662">
<rect width="16" height="16" fill="white"/>
</clipPath>
</defs>
</svg>
