<svg width="15" height="13" viewBox="0 0 15 13" fill="none" xmlns="http://www.w3.org/2000/svg">
<path d="M14.8442 7.32994L12.9201 1.41205C12.8093 1.06695 12.6043 0.786985 12.3048 0.572177C12.0054 0.35737 11.6765 0.25 11.3185 0.25H3.68173C3.32353 0.25 2.99489 0.357301 2.69536 0.572177C2.39582 0.786985 2.19073 1.06695 2.08011 1.41205L0.156249 7.32994C0.0520942 7.6556 0 7.89972 0 8.06247V11.1875C0 11.6171 0.152931 11.9847 0.458929 12.2908C0.764961 12.5969 1.1328 12.7499 1.56252 12.7499H13.4377C13.8673 12.7499 14.2352 12.5969 14.5413 12.2908C14.8473 11.9847 15 11.6171 15 11.1875V8.06247C15 7.89972 14.9484 7.6556 14.8442 7.32994ZM3.27157 1.79275C3.29767 1.70813 3.3497 1.63811 3.42782 1.58287C3.50602 1.52749 3.5906 1.49982 3.68173 1.49982H11.3184C11.4096 1.49982 11.4944 1.52753 11.5724 1.58287C11.6505 1.63811 11.7026 1.70813 11.7286 1.79275L13.2617 6.49995H1.73837L3.27157 1.79275ZM13.7505 11.1875C13.7505 11.272 13.7193 11.3452 13.6575 11.4071C13.5955 11.469 13.5224 11.4997 13.4379 11.4997H1.56252C1.4779 11.4997 1.40466 11.469 1.34282 11.4071C1.28101 11.3452 1.25006 11.272 1.25006 11.1875V8.06251C1.25006 7.97771 1.28101 7.90472 1.34282 7.84264C1.4047 7.78096 1.4779 7.75018 1.56252 7.75018H13.4379C13.5224 7.75018 13.5956 7.78083 13.6575 7.84264C13.7193 7.90468 13.7504 7.97771 13.7504 8.06251V11.1875H13.7505Z" fill="black"/>
<path d="M9.37493 8.84363C9.16002 8.84363 8.97603 8.91994 8.82313 9.07308C8.67013 9.22618 8.59348 9.41007 8.59348 9.62488C8.59348 9.83966 8.66999 10.0237 8.82313 10.1767C8.97613 10.3298 9.16002 10.4061 9.37493 10.4061C9.58984 10.4061 9.77387 10.3298 9.92673 10.1767C10.0796 10.0238 10.1564 9.8398 10.1564 9.62488C10.1564 9.41007 10.0799 9.22594 9.92673 9.07308C9.77366 8.92008 9.58988 8.84363 9.37493 8.84363Z" fill="black"/>
<path d="M11.8752 8.84363C11.6603 8.84363 11.4763 8.92018 11.3233 9.07308C11.1703 9.22618 11.0939 9.41007 11.0939 9.62488C11.0939 9.83966 11.1703 10.0237 11.3233 10.1767C11.4763 10.3298 11.6603 10.4061 11.8752 10.4061C12.0899 10.4061 12.2742 10.3298 12.427 10.1767C12.5799 10.0238 12.6567 9.8398 12.6567 9.62488C12.6567 9.41007 12.5802 9.22594 12.427 9.07308C12.2739 8.92008 12.09 8.84363 11.8752 8.84363Z" fill="black"/>
</svg>
