<svg width="23" height="32" viewBox="0 0 23 32" fill="none" xmlns="http://www.w3.org/2000/svg">
<path d="M4.57144 -3.01656e-05C3.35902 -3.01656e-05 2.19625 0.481602 1.33894 1.33891C0.481632 2.19622 0 3.35899 0 4.57141V27.4286C0 28.641 0.481632 29.8038 1.33894 30.6611C2.19625 31.5184 3.35902 32 4.57144 32H18.2857C19.4982 32 20.6609 31.5184 21.5182 30.6611C22.3756 29.8038 22.8572 28.641 22.8572 27.4286V10.0891C22.8564 9.18012 22.4946 8.30864 21.8515 7.66627L15.1932 1.0034C14.8746 0.685075 14.4965 0.432618 14.0804 0.260447C13.6643 0.0882768 13.2183 -0.000234196 12.768 -3.01656e-05H4.57144ZM2.28572 4.57141C2.28572 3.9652 2.52654 3.38382 2.95519 2.95516C3.38385 2.5265 3.96523 2.28569 4.57144 2.28569H11.4286V7.99999C11.4286 8.9093 11.7898 9.78137 12.4328 10.4244C13.0758 11.0673 13.9479 11.4286 14.8572 11.4286H20.5715V27.4286C20.5715 28.0348 20.3307 28.6162 19.902 29.0448C19.4733 29.4735 18.892 29.7143 18.2857 29.7143H4.57144C3.96523 29.7143 3.38385 29.4735 2.95519 29.0448C2.52654 28.6162 2.28572 28.0348 2.28572 27.4286V4.57141ZM20.0983 9.14284H14.8572C14.5541 9.14284 14.2634 9.02244 14.049 8.80811C13.8347 8.59378 13.7143 8.30309 13.7143 7.99999V2.75883L20.0983 9.14284Z" fill="#AFB8D6"/>
</svg>
