<?xml version="1.0" encoding="UTF-8" standalone="no"?>
<svg
   width="32"
   height="32"
   viewBox="0 0 32 32"
   fill="none"
   version="1.1"
   id="svg6"
   sodipodi:docname="dollar.svg"
   inkscape:version="1.2.2 (732a01da63, 2022-12-09)"
   xmlns:inkscape="http://www.inkscape.org/namespaces/inkscape"
   xmlns:sodipodi="http://sodipodi.sourceforge.net/DTD/sodipodi-0.dtd"
   xmlns="http://www.w3.org/2000/svg"
   xmlns:svg="http://www.w3.org/2000/svg">
  <defs
     id="defs10" />
  <sodipodi:namedview
     id="namedview8"
     pagecolor="#ffffff"
     bordercolor="#000000"
     borderopacity="0.25"
     inkscape:showpageshadow="2"
     inkscape:pageopacity="0.0"
     inkscape:pagecheckerboard="0"
     inkscape:deskcolor="#d1d1d1"
     showgrid="false"
     inkscape:zoom="25.8125"
     inkscape:cx="16.01937"
     inkscape:cy="16.01937"
     inkscape:window-width="1920"
     inkscape:window-height="1013"
     inkscape:window-x="-9"
     inkscape:window-y="-9"
     inkscape:window-maximized="1"
     inkscape:current-layer="svg6" />
  <path
     style="color:#000000;fill:#ffffff;stroke-linecap:round;stroke-linejoin:round;-inkscape-stroke:none"
     d="m 16,1.6660156 a 1,1 0 0 0 -1,1 V 29.333984 a 1,1 0 0 0 1,1 1,1 0 0 0 1,-1 V 2.6660156 a 1,1 0 0 0 -1,-1 z"
     id="path2" />
  <path
     style="color:#000000;fill:#ffffff;stroke-linecap:round;stroke-linejoin:round;-inkscape-stroke:none"
     d="m 12.666016,5.6660156 c -1.502523,0 -2.9434281,0.5977125 -4.0058597,1.6601563 C 7.5977333,8.3885948 7,9.831456 7,11.333984 7,12.836513 7.5976868,14.277459 8.6601563,15.339844 9.7225785,16.402315 11.163471,17 12.666016,17 h 6.667968 c 0.972907,0 1.903878,0.386299 2.591797,1.074219 C 22.613653,18.76217 23,19.693284 23,20.666016 c 0,0.972853 -0.386347,1.905799 -1.074219,2.59375 -0.687951,0.687872 -1.618944,1.074218 -2.591797,1.074218 H 8 a 1,1 0 0 0 -1,1 1,1 0 0 0 1,1 h 11.333984 c 1.502545,0 2.943412,-0.59783 4.00586,-1.660156 C 24.40217,23.611381 25,22.16856 25,20.666016 25,19.16355 24.40217,17.722604 23.339844,16.660156 22.277365,15.597677 20.836475,15 19.333984,15 H 12.666016 C 11.693163,15 10.762115,14.613709 10.074219,13.925781 9.3863499,13.237967 9,12.306853 9,11.333984 9,10.361115 9.3863034,9.4281497 10.074219,8.7402344 10.762105,8.0523399 11.693141,7.6660156 12.666016,7.6660156 h 10 a 1,1 0 0 0 1,-1 1,1 0 0 0 -1,-1 z"
     id="path4" />
</svg>
