<svg width="17" height="17" viewBox="0 0 17 17" fill="none" xmlns="http://www.w3.org/2000/svg">
<g clip-path="url(#clip0_5237_3592)">
<path d="M16.4154 8.81757H12.3775C12.2163 8.81757 12.078 8.93271 12.049 9.09125C11.9632 9.55674 11.7847 9.98894 11.5183 10.3758C11.4266 10.5086 11.4432 10.6876 11.5571 10.8015L14.4129 13.6573C14.4755 13.7202 14.5607 13.7551 14.6491 13.7551C14.654 13.7551 14.6589 13.7551 14.6634 13.7548C14.757 13.7509 14.8448 13.7076 14.9048 13.6361C15.9685 12.3695 16.6062 10.8286 16.7481 9.18031C16.7562 9.08703 16.7246 8.99471 16.6617 8.92588C16.5984 8.85671 16.509 8.81757 16.4154 8.81757ZM14.6213 12.9211L12.2189 10.5187C12.4097 10.1961 12.5526 9.85028 12.6459 9.48559H16.0422C15.8723 10.7388 15.3859 11.9141 14.6213 12.9211Z" fill="#0968FF"/>
<path d="M11.0848 11.2738C10.9706 11.1599 10.7915 11.143 10.6591 11.2349C10.0997 11.6202 9.44536 11.8237 8.76687 11.8237C6.92518 11.8237 5.42666 10.3252 5.42666 8.48351C5.42666 6.87277 6.57583 5.49268 8.15915 5.20136C8.31769 5.17233 8.43284 5.03402 8.43284 4.87287V0.834984C8.43284 0.741355 8.39369 0.651983 8.32455 0.588697C8.25572 0.525098 8.16244 0.490527 8.07012 0.50227C3.96566 0.856216 0.750397 4.36211 0.750397 8.48351C0.750397 12.9037 4.34666 16.5 8.76687 16.5C10.6474 16.5 12.4773 15.8329 13.9194 14.6214C13.9908 14.5611 14.0342 14.4737 14.0381 14.3801C14.0421 14.2868 14.0068 14.1958 13.9406 14.1295L11.0848 11.2738ZM8.76687 15.832C4.71492 15.832 1.41843 12.5355 1.41843 8.48351C1.41843 4.82788 4.17769 1.7007 7.76481 1.20816V4.60445C6.00698 5.05556 4.75863 6.64445 4.75863 8.48351C4.75863 10.6938 6.55661 12.4917 8.76687 12.4917C9.48775 12.4917 10.1858 12.3003 10.802 11.9359L13.204 14.338C11.9306 15.3039 10.3688 15.832 8.76687 15.832Z" fill="#0968FF"/>
<path d="M9.37455 5.2014C10.7256 5.44997 11.8004 6.52474 12.049 7.87583C12.078 8.03437 12.2163 8.14952 12.3775 8.14952H16.4157C16.5093 8.14952 16.5987 8.11037 16.662 8.04123C16.7253 7.9724 16.7566 7.88009 16.7484 7.7868C16.4127 3.90119 13.3492 0.837617 9.4636 0.502271C9.37292 0.493785 9.278 0.525444 9.20918 0.588699C9.14003 0.651985 9.10089 0.741356 9.10089 0.834986V4.87291C9.10086 5.03405 9.216 5.17237 9.37455 5.2014ZM9.76892 1.20816C13.0367 1.65179 15.5986 4.21337 16.0425 7.48146H12.6456C12.2829 6.07948 11.1709 4.96751 9.76889 4.60476V1.20816H9.76892Z" fill="#0968FF"/>
</g>
<defs>
<clipPath id="clip0_5237_3592">
<rect width="16" height="16" fill="white" transform="translate(0.75 0.5)"/>
</clipPath>
</defs>
</svg>
