<svg width="6" height="23" viewBox="0 0 6 23" fill="none" xmlns="http://www.w3.org/2000/svg">
<path d="M3.00001 8.83334C1.53334 8.83334 0.333344 10.0333 0.333344 11.5C0.333344 12.9667 1.53334 14.1667 3.00001 14.1667C4.46668 14.1667 5.66668 12.9667 5.66668 11.5C5.66668 10.0333 4.46668 8.83334 3.00001 8.83334ZM3.00001 0.833344C1.53334 0.833344 0.333344 2.03334 0.333344 3.50001C0.333344 4.96668 1.53334 6.16668 3.00001 6.16668C4.46668 6.16668 5.66668 4.96668 5.66668 3.50001C5.66668 2.03334 4.46668 0.833344 3.00001 0.833344ZM3.00001 16.8333C1.53334 16.8333 0.333344 18.0333 0.333344 19.5C0.333344 20.9667 1.53334 22.1667 3.00001 22.1667C4.46668 22.1667 5.66668 20.9667 5.66668 19.5C5.66668 18.0333 4.46668 16.8333 3.00001 16.8333Z" fill="#D5DAEA"/>
</svg>
