<svg width="10" height="14" viewBox="0 0 10 14" fill="none" xmlns="http://www.w3.org/2000/svg">
<path d="M4.58767 11.4958C4.58778 11.4959 4.58789 11.496 4.588 11.4961C4.60148 11.5096 4.61567 11.5223 4.63041 11.5344C4.63716 11.54 4.6443 11.5448 4.65125 11.55C4.65953 11.5562 4.66765 11.5627 4.67626 11.5684C4.68458 11.574 4.69319 11.5788 4.70172 11.5839C4.70954 11.5886 4.71717 11.5934 4.72521 11.5977C4.73391 11.6024 4.74285 11.6063 4.75173 11.6105C4.7601 11.6145 4.76836 11.6187 4.77694 11.6222C4.78556 11.6258 4.79436 11.6287 4.80311 11.6318C4.81233 11.6351 4.82141 11.6386 4.83081 11.6415C4.83956 11.6441 4.84845 11.6461 4.85731 11.6483C4.86691 11.6507 4.87639 11.6534 4.88618 11.6553C4.89644 11.6574 4.90677 11.6586 4.91708 11.66C4.92558 11.6612 4.93398 11.6629 4.94259 11.6637C4.98087 11.6675 5.01946 11.6675 5.05774 11.6637C5.06635 11.6629 5.07475 11.6613 5.08325 11.66C5.09356 11.6586 5.10389 11.6574 5.11415 11.6553C5.12394 11.6534 5.13342 11.6507 5.14302 11.6483C5.15185 11.6461 5.16077 11.6441 5.16952 11.6415C5.17892 11.6386 5.18803 11.6351 5.19722 11.6318C5.20597 11.6286 5.21477 11.6258 5.22339 11.6222C5.23197 11.6187 5.24023 11.6145 5.2486 11.6105C5.25748 11.6063 5.26642 11.6024 5.27512 11.5977C5.28316 11.5934 5.29079 11.5885 5.29861 11.5839C5.30714 11.5788 5.31575 11.574 5.32407 11.5684C5.33268 11.5627 5.3408 11.5562 5.34908 11.55C5.35603 11.5448 5.36317 11.54 5.36992 11.5344C5.38466 11.5223 5.39885 11.5096 5.41233 11.4961C5.41244 11.496 5.41255 11.4959 5.41266 11.4958L9.49598 7.41248C9.72378 7.18468 9.72378 6.81532 9.49598 6.58752C9.26818 6.35972 8.89882 6.35972 8.67102 6.58752L5.58348 9.67504V0.583324C5.58348 0.26116 5.32232 0 5.00015 0C4.67799 0 4.41683 0.26116 4.41683 0.583324V9.67504L1.32931 6.58752C1.10151 6.35972 0.732147 6.35972 0.504347 6.58752C0.276546 6.81532 0.276546 7.18468 0.504347 7.41248L4.58767 11.4958Z" fill="black"/>
<path d="M0.917019 12.8333H9.08367C9.40583 12.8333 9.66699 13.0945 9.66699 13.4167C9.66699 13.7388 9.40583 14 9.08367 14H0.916992C0.594829 14 0.333668 13.7388 0.333668 13.4167C0.333668 13.0945 0.594855 12.8333 0.917019 12.8333Z" fill="black"/>
</svg>
