<svg width="16" height="16" viewBox="0 0 16 16" fill="none" xmlns="http://www.w3.org/2000/svg">
<path d="M8 0C3.57803 0 0 3.57834 0 8C0 12.422 3.57834 16 8 16C12.422 16 16 12.4217 16 8C16 3.57803 12.4217 0 8 0ZM8 14.75C4.26897 14.75 1.25 11.7308 1.25 8C1.25 4.26897 4.26922 1.25 8 1.25C11.731 1.25 14.75 4.26922 14.75 8C14.75 11.731 11.7308 14.75 8 14.75Z" fill="black"/>
<path d="M8 4.02739C7.65481 4.02739 7.375 4.3072 7.375 4.65239V8.67716C7.375 9.02234 7.65481 9.30216 8 9.30216C8.34519 9.30216 8.625 9.02234 8.625 8.67716V4.65239C8.625 4.3072 8.34519 4.02739 8 4.02739Z" fill="black"/>
<path d="M8 11.755C8.46599 11.755 8.84375 11.3772 8.84375 10.9113C8.84375 10.4453 8.46599 10.0675 8 10.0675C7.53401 10.0675 7.15625 10.4453 7.15625 10.9113C7.15625 11.3772 7.53401 11.755 8 11.755Z" fill="black"/>
</svg>
