<svg width="22" height="9" viewBox="0 0 22 9" fill="none" xmlns="http://www.w3.org/2000/svg">
<path fill-rule="evenodd" clip-rule="evenodd" d="M0.341516 0.247437C0.75636 -0.115552 1.38651 -0.0742866 1.75052 0.339137L1.75311 0.342027L1.77349 0.36425C1.79368 0.385983 1.82702 0.421188 1.87338 0.46796C1.96613 0.561551 2.11069 0.701144 2.30599 0.871589C2.59234 1.1215 2.98627 1.4364 3.48443 1.76948C3.52849 1.79393 3.57119 1.82201 3.61213 1.85375C3.75731 1.94829 3.91073 2.04396 4.07232 2.13972C5.07737 2.73531 6.39605 3.33306 8.01519 3.68462C8.08284 3.69157 8.15079 3.70556 8.21813 3.72706C9.06621 3.89767 9.99411 4.00001 11 4.00001C12.0154 4.00001 12.9512 3.89574 13.8057 3.72225C13.8431 3.71225 13.8805 3.70451 13.918 3.69896C15.5677 3.34948 16.9089 2.74348 17.9277 2.13972C18.7114 1.6753 19.303 1.21284 19.694 0.871589C19.8894 0.701144 20.0339 0.561551 20.1267 0.46796C20.173 0.421188 20.2064 0.385983 20.2266 0.36425L20.2469 0.342027L20.248 0.340878L20.2495 0.339123C20.6135 -0.0742875 21.2437 -0.115548 21.6585 0.247437C22.0742 0.611119 22.1163 1.24288 21.7526 1.65852L21 1.00001C21.7526 1.65852 21.7523 1.65887 21.752 1.65924L21.7512 1.66006L21.7496 1.66196L21.7452 1.66686L21.7326 1.68095C21.7225 1.69221 21.7088 1.70719 21.6917 1.72562C21.6575 1.76248 21.6092 1.81321 21.5472 1.87582C21.4232 2.00098 21.2435 2.17388 21.0091 2.37844C20.8527 2.51492 20.6717 2.66575 20.4662 2.82608L21.7624 4.35341C22.1197 4.7745 22.0681 5.40555 21.647 5.7629C21.2259 6.12026 20.5948 6.06859 20.2375 5.6475L18.7959 3.94883C17.8633 4.4868 16.7133 5.01607 15.3554 5.4022L15.9492 7.18436C16.1238 7.70833 15.8406 8.27462 15.3166 8.44921C14.7927 8.6238 14.2264 8.34058 14.0518 7.81662L13.3883 5.82554C12.6397 5.93675 11.8433 6.00001 11 6.00001C10.1504 6.00001 9.34823 5.93578 8.59468 5.823L7.9513 7.80802C7.78102 8.3334 7.21708 8.62127 6.6917 8.45098C6.16632 8.2807 5.87846 7.71676 6.04874 7.19138L6.62999 5.39802C5.27854 5.01227 4.13347 4.48491 3.20425 3.9489L1.76224 5.64686C1.40473 6.06783 0.773663 6.11927 0.352701 5.76176C-0.0682611 5.40426 -0.119703 4.77319 0.237802 4.35222L1.53386 2.82612C1.32838 2.66578 1.14732 2.51493 0.990924 2.37844C0.756537 2.17388 0.576877 2.00098 0.452836 1.87582C0.390792 1.81321 0.342588 1.76248 0.308338 1.72562C0.29121 1.70719 0.277563 1.69221 0.267412 1.68095L0.254804 1.66686L0.250468 1.66196L0.248792 1.66006L0.248077 1.65924C0.247753 1.65887 0.247444 1.65852 1.00002 1.00001L0.247444 1.65852C-0.116238 1.24288 -0.0741209 0.611119 0.341516 0.247437Z" fill="#D5DAEA"/>
</svg>
