<svg width="17" height="16" viewBox="0 0 17 16" fill="none" xmlns="http://www.w3.org/2000/svg">
<g clip-path="url(#clip0_2293:10215)">
<path d="M16.8221 7.68882C16.6792 7.49329 13.2735 2.90112 8.92375 2.90112C4.57402 2.90112 1.16814 7.49329 1.02536 7.68864C0.889984 7.87414 0.889984 8.12573 1.02536 8.31123C1.16814 8.50676 4.57402 13.0989 8.92375 13.0989C13.2735 13.0989 16.6792 8.50673 16.8221 8.31139C16.9577 8.12592 16.9577 7.87414 16.8221 7.68882ZM8.92375 12.044C5.71971 12.044 2.94468 8.99608 2.12321 7.99967C2.94361 7.00238 5.71284 3.95606 8.92375 3.95606C12.1276 3.95606 14.9025 7.00345 15.7243 8.00039C14.9039 8.99764 12.1347 12.044 8.92375 12.044Z" fill="#AFB8D6"/>
<path d="M8.92388 4.83521C7.17881 4.83521 5.75903 6.25499 5.75903 8.00005C5.75903 9.74512 7.17881 11.1649 8.92388 11.1649C10.6689 11.1649 12.0887 9.74512 12.0887 8.00005C12.0887 6.25499 10.6689 4.83521 8.92388 4.83521ZM8.92388 10.1099C7.76044 10.1099 6.814 9.16346 6.814 8.00005C6.814 6.83665 7.76047 5.89018 8.92388 5.89018C10.0873 5.89018 11.0338 6.83665 11.0338 8.00005C11.0338 9.16346 10.0873 10.1099 8.92388 10.1099Z" fill="#AFB8D6"/>
</g>
<defs>
<clipPath id="clip0_2293:10215">
<rect width="16" height="16" fill="white" transform="translate(0.923828)"/>
</clipPath>
</defs>
</svg>
