<svg width="24" height="21" viewBox="0 0 24 21" fill="none" xmlns="http://www.w3.org/2000/svg">
<g clip-path="url(#clip0_462_8564)">
<path d="M10.56 1.83722V0.965202C10.56 0.435021 10.1302 0.00518799 9.59999 0.00518799H0.960014C0.429782 0.00518799 0 0.43497 0 0.965202V6.61541H24V3.43724C24 2.90706 23.5702 2.47723 23.04 2.47723H11.2C10.8465 2.47723 10.56 2.19069 10.56 1.83722Z" fill="#D5DAEA"/>
<path d="M21.2922 3.26401H2.25391V11.3064H21.2922V3.26401Z" fill="white"/>
<path d="M22.72 20.2303H1.28002C0.573077 20.2303 0 19.6573 0 18.9503V6.3869H10.5958C10.8658 6.3869 11.1233 6.27323 11.3052 6.07371L12.4846 4.78011C12.6665 4.58059 12.9241 4.46692 13.194 4.46692H24V18.9503C24 19.6573 23.4269 20.2303 22.72 20.2303Z" fill="#F4F5F8"/>
</g>
<defs>
<clipPath id="clip0_462_8564">
<rect width="24" height="20.2353" fill="white"/>
</clipPath>
</defs>
</svg>
