<svg width="24" height="21" viewBox="0 0 24 21" fill="none" xmlns="http://www.w3.org/2000/svg">
<path d="M22.72 19H1.28002C0.573077 19 0 18.4547 0 17.782V5.82699H10.5958C10.8658 5.82699 11.1233 5.71883 11.3052 5.52897L12.4846 4.29802C12.6665 4.10817 12.9241 4 13.194 4H24V17.782C24 18.4547 23.4269 19 22.72 19Z" fill="#F6C358"/>
<path d="M10.56 1.83722V0.965202C10.56 0.435021 10.1302 0.00518799 9.59999 0.00518799H0.960014C0.429782 0.00518799 0 0.43497 0 0.965202V6.61541H24V3.43724C24 2.90706 23.5702 2.47723 23.04 2.47723H11.2C10.8465 2.47723 10.56 2.19069 10.56 1.83722Z" fill="#F6C358"/>
<path d="M21 3.29413H2V13.2941H21V3.29413Z" fill="#F4F5F8"/>
<path d="M22.72 19.2941H1.28002C0.573077 19.2941 0 19.0033 0 18.6445V12.2685H10.5958C10.8658 12.2685 11.1233 12.2108 11.3052 12.1096L12.4846 11.4531C12.6665 11.3518 12.9241 11.2941 13.194 11.2941H24V18.6445C24 19.0033 23.4269 19.2941 22.72 19.2941Z" fill="#FCD462"/>
</svg>
