<svg width="24" height="21" viewBox="0 0 24 21" fill="none" xmlns="http://www.w3.org/2000/svg">
<path d="M22.72 19H1.28002C0.573077 19 0 18.4547 0 17.782V5.82699H10.5958C10.8658 5.82699 11.1233 5.71883 11.3052 5.52897L12.4846 4.29802C12.6665 4.10817 12.9241 4 13.194 4H24V17.782C24 18.4547 23.4269 19 22.72 19Z" fill="#F6C358"/>
<path d="M10.56 1.83722V0.965202C10.56 0.435021 10.1302 0.00518799 9.59999 0.00518799H0.960014C0.429782 0.00518799 0 0.43497 0 0.965202V6.61541H24V3.43724C24 2.90706 23.5702 2.47723 23.04 2.47723H11.2C10.8465 2.47723 10.56 2.19069 10.56 1.83722Z" fill="#F6C358"/>
<path d="M21.2922 3.26401H2.25391V11.3064H21.2922V3.26401Z" fill="#F4F5F8"/>
<path d="M22.72 20H1.28002C0.573077 20 0 19.5637 0 19.0256V9.4616H10.5958C10.8658 9.4616 11.1233 9.37506 11.3052 9.22318L12.4846 8.23842C12.6665 8.08653 12.9241 8 13.194 8H24V19.0256C24 19.5637 23.4269 20 22.72 20Z" fill="#FCD462"/>
</svg>
