<svg width="18" height="16" viewBox="0 0 18 16" fill="none" xmlns="http://www.w3.org/2000/svg">
<path d="M15.7822 3.15748H10.0851C9.85386 3.15748 9.62798 3.06252 9.47199 2.90112L7.69439 1.02856C7.2671 0.602642 6.68249 0.380173 6.09039 0.383584H2.21779C0.994955 0.383548 0 1.3785 0 2.60131V13.3986C0 14.6214 0.994955 15.6164 2.21779 15.6164H15.7903H15.7924C17.0145 15.611 18.0054 14.6113 18 13.3918V5.37523C18 4.1524 17.005 3.15748 15.7822 3.15748ZM16.6435 13.3945C16.6456 13.8693 16.261 14.2579 15.789 14.2599H2.21779C1.74304 14.2599 1.35647 13.8734 1.35647 13.3986V2.60131C1.35647 2.12656 1.74304 1.73998 2.21779 1.73928H6.10804C6.11549 1.73928 6.12294 1.73928 6.13043 1.73928C6.35694 1.73928 6.5767 1.82949 6.72453 1.97598L8.49264 3.83972C8.9077 4.26834 9.48827 4.51387 10.0851 4.51387H15.7822C16.2569 4.51387 16.6435 4.90045 16.6435 5.3752V13.3945H16.6435Z" fill="black"/>
</svg>
