<svg width="16" height="14" viewBox="0 0 16 14" fill="none" xmlns="http://www.w3.org/2000/svg">
<path d="M15.4532 5.01083L11.8303 1.38791C11.5315 1.08896 11.2282 0.937469 10.9293 0.937469C10.5189 0.937469 10.0395 1.24973 10.0395 2.12961V3.28793C4.90598 3.51376 0.632786 7.42661 0.00351373 12.5659C-0.0224872 12.7777 0.0978741 12.9802 0.296238 13.0587C0.352391 13.0809 0.41074 13.0916 0.46848 13.0916C0.614598 13.0916 0.756444 13.0232 0.846776 12.8998C2.57627 10.5367 5.35325 9.12595 8.275 9.12595C8.86362 9.12595 9.45554 9.18356 10.0395 9.29758V10.5362C10.0395 11.4161 10.5189 11.7284 10.9293 11.7284H10.9294C11.2284 11.7284 11.5315 11.5768 11.8303 11.2779L15.4532 7.655C16.1822 6.926 16.1822 5.73984 15.4532 5.01083V5.01083ZM14.7905 6.99228L11.1676 10.6151C11.0979 10.6848 11.0403 10.7287 10.9978 10.7553C10.9865 10.7065 10.9769 10.6347 10.9769 10.5362V8.91928C10.9769 8.70212 10.8275 8.51328 10.6161 8.46323C9.84543 8.28098 9.05784 8.18869 8.275 8.18869C6.65439 8.18869 5.04233 8.58078 3.61313 9.32285C2.77231 9.75937 1.99228 10.3171 1.30259 10.9709C2.54038 7.02023 6.23472 4.21506 10.5083 4.21506C10.7671 4.21506 10.9769 4.00522 10.9769 3.74631V2.12961C10.9769 2.0311 10.9865 1.95932 10.9978 1.91037C11.0403 1.93698 11.0979 1.98105 11.1676 2.05063L14.7905 5.67355C15.154 6.03708 15.154 6.62863 14.7905 6.99228V6.99228Z" fill="black"/>
</svg>
