<svg width="18" height="19" viewBox="0 0 18 19" fill="none" xmlns="http://www.w3.org/2000/svg">
<path d="M1.94103 4.44925C3.01303 4.44925 3.88205 3.58023 3.88205 2.50823C3.88205 1.43623 3.01303 0.5672 1.94103 0.5672C0.869028 0.5672 0 1.43623 0 2.50823C0 3.58023 0.869028 4.44925 1.94103 4.44925Z" fill="white"/>
<path d="M6.62859 4.44925C7.70059 4.44925 8.56962 3.58023 8.56962 2.50823C8.56962 1.43623 7.70059 0.5672 6.62859 0.5672C5.55659 0.5672 4.68756 1.43623 4.68756 2.50823C4.68756 3.58023 5.55659 4.44925 6.62859 4.44925Z" fill="white"/>
<path d="M11.3715 4.44925C12.4435 4.44925 13.3125 3.58023 13.3125 2.50823C13.3125 1.43623 12.4435 0.5672 11.3715 0.5672C10.2995 0.5672 9.43048 1.43623 9.43048 2.50823C9.43048 3.58023 10.2995 4.44925 11.3715 4.44925Z" fill="white"/>
<path d="M16.0589 4.44925C17.1309 4.44925 17.9999 3.58023 17.9999 2.50823C17.9999 1.43623 17.1309 0.5672 16.0589 0.5672C14.9869 0.5672 14.1179 1.43623 14.1179 2.50823C14.1179 3.58023 14.9869 4.44925 16.0589 4.44925Z" fill="white"/>
<path d="M1.94103 9.16306C3.01303 9.16306 3.88205 8.29403 3.88205 7.22203C3.88205 6.15003 3.01303 5.28101 1.94103 5.28101C0.869028 5.28101 0 6.15003 0 7.22203C0 8.29403 0.869028 9.16306 1.94103 9.16306Z" fill="white"/>
<path d="M6.62859 9.16306C7.70059 9.16306 8.56962 8.29403 8.56962 7.22203C8.56962 6.15003 7.70059 5.28101 6.62859 5.28101C5.55659 5.28101 4.68756 6.15003 4.68756 7.22203C4.68756 8.29403 5.55659 9.16306 6.62859 9.16306Z" fill="white"/>
<path d="M11.3715 9.16306C12.4435 9.16306 13.3125 8.29403 13.3125 7.22203C13.3125 6.15003 12.4435 5.28101 11.3715 5.28101C10.2995 5.28101 9.43048 6.15003 9.43048 7.22203C9.43048 8.29403 10.2995 9.16306 11.3715 9.16306Z" fill="white"/>
<path d="M16.0589 9.16306C17.1309 9.16306 17.9999 8.29403 17.9999 7.22203C17.9999 6.15003 17.1309 5.28101 16.0589 5.28101C14.9869 5.28101 14.1179 6.15003 14.1179 7.22203C14.1179 8.29403 14.9869 9.16306 16.0589 9.16306Z" fill="white"/>
<path d="M1.94103 13.7845C3.01303 13.7845 3.88205 12.9154 3.88205 11.8434C3.88205 10.7714 3.01303 9.9024 1.94103 9.9024C0.869028 9.9024 0 10.7714 0 11.8434C0 12.9154 0.869028 13.7845 1.94103 13.7845Z" fill="white"/>
<path d="M6.62859 13.7845C7.70059 13.7845 8.56962 12.9154 8.56962 11.8434C8.56962 10.7714 7.70059 9.9024 6.62859 9.9024C5.55659 9.9024 4.68756 10.7714 4.68756 11.8434C4.68756 12.9154 5.55659 13.7845 6.62859 13.7845Z" fill="white"/>
<path d="M11.3715 13.7845C12.4435 13.7845 13.3125 12.9154 13.3125 11.8434C13.3125 10.7714 12.4435 9.9024 11.3715 9.9024C10.2995 9.9024 9.43048 10.7714 9.43048 11.8434C9.43048 12.9154 10.2995 13.7845 11.3715 13.7845Z" fill="white"/>
<path d="M16.0589 13.7845C17.1309 13.7845 17.9999 12.9154 17.9999 11.8434C17.9999 10.7714 17.1309 9.9024 16.0589 9.9024C14.9869 9.9024 14.1179 10.7714 14.1179 11.8434C14.1179 12.9154 14.9869 13.7845 16.0589 13.7845Z" fill="white"/>
<path d="M1.94103 18.4326C3.01303 18.4326 3.88205 17.5636 3.88205 16.4916C3.88205 15.4196 3.01303 14.5505 1.94103 14.5505C0.869028 14.5505 0 15.4196 0 16.4916C0 17.5636 0.869028 18.4326 1.94103 18.4326Z" fill="white"/>
<path d="M6.62859 18.4326C7.70059 18.4326 8.56962 17.5636 8.56962 16.4916C8.56962 15.4196 7.70059 14.5505 6.62859 14.5505C5.55659 14.5505 4.68756 15.4196 4.68756 16.4916C4.68756 17.5636 5.55659 18.4326 6.62859 18.4326Z" fill="white"/>
<path d="M11.3715 18.4326C12.4435 18.4326 13.3125 17.5636 13.3125 16.4916C13.3125 15.4196 12.4435 14.5505 11.3715 14.5505C10.2995 14.5505 9.43048 15.4196 9.43048 16.4916C9.43048 17.5636 10.2995 18.4326 11.3715 18.4326Z" fill="white"/>
<path d="M16.0589 18.4326C17.1309 18.4326 17.9999 17.5636 17.9999 16.4916C17.9999 15.4196 17.1309 14.5505 16.0589 14.5505C14.9869 14.5505 14.1179 15.4196 14.1179 16.4916C14.1179 17.5636 14.9869 18.4326 16.0589 18.4326Z" fill="white"/>
</svg>
