<svg width="18" height="19" viewBox="0 0 18 19" fill="none" xmlns="http://www.w3.org/2000/svg">
<path d="M1.98 4.4599C3.07352 4.4599 3.95999 3.57344 3.95999 2.47995C3.95999 1.38645 3.07352 0.5 1.98 0.5C0.886475 0.5 0 1.38645 0 2.47995C0 3.57344 0.886475 4.4599 1.98 4.4599Z" fill="#D5DAEA"/>
<path d="M9.00002 4.4599C10.0935 4.4599 10.98 3.57344 10.98 2.47995C10.98 1.38645 10.0935 0.5 9.00002 0.5C7.90649 0.5 7.02002 1.38645 7.02002 2.47995C7.02002 3.57344 7.90649 4.4599 9.00002 4.4599Z" fill="#D5DAEA"/>
<path d="M16.02 4.4599C17.1135 4.4599 18 3.57344 18 2.47995C18 1.38645 17.1135 0.5 16.02 0.5C14.9265 0.5 14.04 1.38645 14.04 2.47995C14.04 3.57344 14.9265 4.4599 16.02 4.4599Z" fill="#D5DAEA"/>
<path d="M1.98 11.48C3.07352 11.48 3.95999 10.5935 3.95999 9.5C3.95999 8.4065 3.07352 7.52005 1.98 7.52005C0.886475 7.52005 0 8.4065 0 9.5C0 10.5935 0.886475 11.48 1.98 11.48Z" fill="#D5DAEA"/>
<path d="M9.00002 11.48C10.0935 11.48 10.98 10.5935 10.98 9.5C10.98 8.4065 10.0935 7.52005 9.00002 7.52005C7.90649 7.52005 7.02002 8.4065 7.02002 9.5C7.02002 10.5935 7.90649 11.48 9.00002 11.48Z" fill="#D5DAEA"/>
<path d="M16.02 11.48C17.1135 11.48 18 10.5935 18 9.5C18 8.4065 17.1135 7.52005 16.02 7.52005C14.9265 7.52005 14.04 8.4065 14.04 9.5C14.04 10.5935 14.9265 11.48 16.02 11.48Z" fill="#D5DAEA"/>
<path d="M1.98 18.5C3.07352 18.5 3.95999 17.6135 3.95999 16.5201C3.95999 15.4266 3.07352 14.5401 1.98 14.5401C0.886475 14.5401 0 15.4266 0 16.5201C0 17.6135 0.886475 18.5 1.98 18.5Z" fill="#D5DAEA"/>
<path d="M9.00002 18.5C10.0935 18.5 10.98 17.6135 10.98 16.5201C10.98 15.4266 10.0935 14.5401 9.00002 14.5401C7.90649 14.5401 7.02002 15.4266 7.02002 16.5201C7.02002 17.6135 7.90649 18.5 9.00002 18.5Z" fill="#D5DAEA"/>
<path d="M16.02 18.5C17.1135 18.5 18 17.6135 18 16.5201C18 15.4266 17.1135 14.5401 16.02 14.5401C14.9265 14.5401 14.04 15.4266 14.04 16.5201C14.04 17.6135 14.9265 18.5 16.02 18.5Z" fill="#D5DAEA"/>
</svg>
