<svg width="11" height="12" viewBox="0 0 11 12" fill="none" xmlns="http://www.w3.org/2000/svg">
<path d="M1.98 4.4599C3.07352 4.4599 3.95999 3.57345 3.95999 2.47995C3.95999 1.38645 3.07352 0.5 1.98 0.5C0.886475 0.5 0 1.38645 0 2.47995C0 3.57345 0.886475 4.4599 1.98 4.4599Z" fill="#D5DAEA"/>
<path d="M8.93996 4.4599C10.0335 4.4599 10.92 3.57345 10.92 2.47995C10.92 1.38645 10.0335 0.5 8.93996 0.5C7.84644 0.5 6.95996 1.38645 6.95996 2.47995C6.95996 3.57345 7.84644 4.4599 8.93996 4.4599Z" fill="#D5DAEA"/>
<path d="M1.98 11.4198C3.07352 11.4198 3.95999 10.5333 3.95999 9.43985C3.95999 8.34635 3.07352 7.4599 1.98 7.4599C0.886475 7.4599 0 8.34635 0 9.43985C0 10.5333 0.886475 11.4198 1.98 11.4198Z" fill="#D5DAEA"/>
<path d="M8.93996 11.4198C10.0335 11.4198 10.92 10.5333 10.92 9.43985C10.92 8.34635 10.0335 7.4599 8.93996 7.4599C7.84644 7.4599 6.95996 8.34635 6.95996 9.43985C6.95996 10.5333 7.84644 11.4198 8.93996 11.4198Z" fill="#D5DAEA"/>
</svg>
