<svg width="14" height="12" viewBox="0 0 14 12" fill="none" xmlns="http://www.w3.org/2000/svg">
<path d="M1.98 4.4599C3.07352 4.4599 3.95999 3.57345 3.95999 2.47995C3.95999 1.38645 3.07352 0.5 1.98 0.5C0.886475 0.5 0 1.38645 0 2.47995C0 3.57345 0.886475 4.4599 1.98 4.4599Z" fill="#D5DAEA"/>
<path d="M6.98 4.4599C8.07352 4.4599 8.95999 3.57345 8.95999 2.47995C8.95999 1.38645 8.07352 0.5 6.98 0.5C5.88647 0.5 5 1.38645 5 2.47995C5 3.57345 5.88647 4.4599 6.98 4.4599Z" fill="#D5DAEA"/>
<path d="M11.98 4.4599C13.0735 4.4599 13.96 3.57345 13.96 2.47995C13.96 1.38645 13.0735 0.5 11.98 0.5C10.8865 0.5 10 1.38645 10 2.47995C10 3.57345 10.8865 4.4599 11.98 4.4599Z" fill="#D5DAEA"/>
<path d="M1.98 11.4199C3.07352 11.4199 3.95999 10.5334 3.95999 9.43991C3.95999 8.34642 3.07352 7.45996 1.98 7.45996C0.886475 7.45996 0 8.34642 0 9.43991C0 10.5334 0.886475 11.4199 1.98 11.4199Z" fill="#D5DAEA"/>
<path d="M6.98 11.4199C8.07352 11.4199 8.95999 10.5334 8.95999 9.43991C8.95999 8.34642 8.07352 7.45996 6.98 7.45996C5.88647 7.45996 5 8.34642 5 9.43991C5 10.5334 5.88647 11.4199 6.98 11.4199Z" fill="#D5DAEA"/>
<path d="M11.98 11.4199C13.0735 11.4199 13.96 10.5334 13.96 9.43991C13.96 8.34642 13.0735 7.45996 11.98 7.45996C10.8865 7.45996 10 8.34642 10 9.43991C10 10.5334 10.8865 11.4199 11.98 11.4199Z" fill="#D5DAEA"/>
</svg>
