<svg width="16" height="17" viewBox="0 0 16 17" fill="none" xmlns="http://www.w3.org/2000/svg">
<path d="M15.967 10.431L14.717 7.931C14.6641 7.82513 14.5559 7.75825 14.4375 7.75825H12.9903L8.66287 3.43086C8.56065 3.32865 8.44053 3.25508 8.3125 3.21005V2.53124H9.87499C9.98958 2.53124 10.095 2.46855 10.1496 2.36784C10.2043 2.26712 10.1995 2.14459 10.1371 2.04849L9.79093 1.51562L10.1371 0.982717C10.1995 0.886623 10.2043 0.764093 10.1496 0.663374C10.095 0.562719 9.98958 0.5 9.87499 0.5H8C7.82744 0.5 7.6875 0.639906 7.6875 0.812499V3.21002C7.55947 3.25508 7.43934 3.32865 7.33713 3.43083L3.00974 7.75825H1.56256C1.44418 7.75825 1.33599 7.82513 1.28306 7.931L0.0329991 10.431C-0.0154382 10.5279 -0.010282 10.6429 0.0466866 10.735C0.103655 10.8271 0.204217 10.8832 0.312529 10.8832H0.625059V15.5625C0.625059 15.7351 0.764996 15.875 0.937558 15.875H3.71048V16.1875C3.71048 16.3601 3.85042 16.5 4.02298 16.5H11.977C12.1496 16.5 12.2895 16.3601 12.2895 16.1875V15.875H12.2896H15.0625C15.235 15.875 15.375 15.7351 15.375 15.5625V10.8832H15.6875C15.7958 10.8832 15.8964 10.8272 15.9533 10.735C16.0103 10.6429 16.0154 10.5278 15.967 10.431ZM8.3125 1.125H9.29937L9.15621 1.3454C9.08899 1.44893 9.08899 1.58234 9.15621 1.68587L9.29937 1.90624H8.3125V1.125ZM15.1819 10.2582H12.2895V9.44109C12.3321 9.44693 12.3753 9.45009 12.419 9.45009C12.6694 9.45009 12.9048 9.35256 13.0818 9.17553C13.2589 8.9985 13.3564 8.76306 13.3564 8.51266C13.3564 8.46897 13.3532 8.42578 13.3474 8.38325H14.2443L15.1819 10.2582ZM1.75571 8.38325H2.65265C2.6468 8.42578 2.64365 8.46897 2.64365 8.51266C2.64365 8.76306 2.74114 8.99847 2.91821 9.17553C3.09527 9.35259 3.33067 9.45009 3.58108 9.45009C3.62477 9.45009 3.66795 9.44693 3.71048 9.44109V10.2582H0.818152L1.75571 8.38325ZM3.71048 10.8832V13.9999H1.25003V10.8832H3.71048ZM1.25003 15.25V14.6249H3.71045V15.25H1.25003ZM6.12497 15.25H9.87499V15.875H6.12501L6.12497 15.25ZM6.90622 12.125H7.6875V14.6249H6.90625L6.90622 12.125ZM9.09374 14.625H8.3125V12.125H9.09374V14.625C9.09374 14.6249 9.09374 14.6249 9.09374 14.625ZM10.5 15.875V15.25C10.5 14.9053 10.2196 14.625 9.87502 14.625H9.71874V12.125C9.71874 11.7804 9.43837 11.5 9.09374 11.5H6.90622C6.56163 11.5 6.28126 11.7804 6.28126 12.125V14.625H6.12497C5.78038 14.625 5.50001 14.9053 5.50001 15.25V15.875H4.33545V9.084L5.23804 8.18144C5.36007 8.05941 5.36007 7.86153 5.23804 7.73947C5.11601 7.61747 4.9182 7.61744 4.79607 7.73947L3.80195 8.73356C3.74295 8.79259 3.66452 8.82506 3.58105 8.82506C3.49758 8.82506 3.41911 8.79256 3.36014 8.73356C3.30111 8.67456 3.26861 8.59612 3.26861 8.51266C3.26861 8.42922 3.30111 8.35075 3.36014 8.29175L7.77909 3.8728C7.83809 3.81377 7.91653 3.7813 8 3.7813C8.08347 3.7813 8.16194 3.8138 8.2209 3.8728L12.6398 8.29172C12.6989 8.35072 12.7314 8.42919 12.7314 8.51262C12.7314 8.59609 12.6989 8.67453 12.6398 8.73353C12.5808 8.79256 12.5024 8.82503 12.4189 8.82503C12.3355 8.82503 12.257 8.79253 12.198 8.73353L8.22097 4.75655C8.0989 4.63452 7.90109 4.63452 7.779 4.75655L6.78478 5.75076C6.66275 5.87279 6.66275 6.07067 6.78478 6.19273C6.90685 6.31476 7.10466 6.31476 7.22675 6.19273L8 5.41945L11.6645 9.084V15.875H10.5ZM14.75 15.25H12.2896H12.2895V14.6249H12.2896H14.75V15.25ZM14.75 10.8832V13.9999H12.2896H12.2895V10.8832H14.75Z" fill="#D5DAEA"/>
<path d="M8 8.7388C8.56003 8.7388 9.01562 8.28318 9.01562 7.72314C9.01562 7.16314 8.56003 6.70752 8 6.70752C7.43997 6.70752 6.98438 7.16311 6.98438 7.72314C6.98438 8.28318 7.43997 8.7388 8 8.7388ZM8 7.33255C8.21541 7.33255 8.39062 7.50777 8.39062 7.72318C8.39062 7.93858 8.21541 8.1138 8 8.1138C7.78459 8.1138 7.60938 7.93855 7.60938 7.72318C7.60938 7.50777 7.78462 7.33255 8 7.33255Z" fill="#D5DAEA"/>
<path d="M9.40621 10.2583H6.59375C6.42119 10.2583 6.28125 10.3982 6.28125 10.5708C6.28125 10.7434 6.42119 10.8833 6.59375 10.8833H9.40621C9.57877 10.8833 9.7187 10.7434 9.7187 10.5708C9.7187 10.3982 9.5788 10.2583 9.40621 10.2583Z" fill="#D5DAEA"/>
<path d="M6.01132 6.65332H6.01111C5.83854 6.65332 5.69873 6.79323 5.69873 6.96582C5.69873 7.13841 5.83873 7.27832 6.01132 7.27832C6.18392 7.27832 6.32382 7.13841 6.32382 6.96582C6.32382 6.79323 6.18392 6.65332 6.01132 6.65332Z" fill="#D5DAEA"/>
</svg>
