<svg width="16" height="8" viewBox="0 0 16 8" fill="none" xmlns="http://www.w3.org/2000/svg">
<path d="M1.51999 3.99997C1.51999 2.63197 2.63197 1.51999 3.99997 1.51999H7.19999V0H4.00001C1.79201 0 0 1.79197 0 3.99997C0 6.20797 1.79201 7.99998 4.00001 7.99998H7.19999V6.48H4.00001C2.63201 6.48 1.51999 5.36797 1.51999 3.99997Z" fill="#D5DAEA"/>
<path d="M11.1998 3.19995H4.7998V4.79996H11.1998V3.19995Z" fill="#D5DAEA"/>
<path d="M11.9998 0H8.7998V1.51999H11.9998C13.3678 1.51999 14.4798 2.63197 14.4798 3.99997C14.4798 5.36797 13.3678 6.48 11.9998 6.48H8.7998V7.99998H11.9998C14.2078 7.99998 15.9998 6.20797 15.9998 3.99997C15.9998 1.79197 14.2078 0 11.9998 0Z" fill="#D5DAEA"/>
</svg>
