<svg width="14" height="16" viewBox="0 0 14 16" fill="none" xmlns="http://www.w3.org/2000/svg">
<path d="M10.5625 11.4375C10.9077 11.4375 11.1875 11.1577 11.1875 10.8125C11.1875 10.4673 10.9077 10.1875 10.5625 10.1875C10.2173 10.1875 9.9375 10.4673 9.9375 10.8125C9.9375 11.1577 10.2173 11.4375 10.5625 11.4375Z" fill="#D5DAEA"/>
<path d="M13.375 11.3125C13.7202 11.3125 14 11.0327 14 10.6875V8.375C14 6.9965 12.8785 5.875 11.5 5.875H10.7488V3.67081C10.7488 1.64672 9.06659 0 6.99884 0C4.93109 0 3.24884 1.64672 3.24884 3.67081V5.875H2.5C1.1215 5.875 0 6.9965 0 8.375V13.5C0 14.8785 1.1215 16 2.5 16H11.5C12.8785 16 14 14.8785 14 13.5C14 13.1548 13.7202 12.875 13.375 12.875C13.0298 12.875 12.75 13.1548 12.75 13.5C12.75 14.1892 12.1892 14.75 11.5 14.75H2.5C1.81075 14.75 1.25 14.1892 1.25 13.5V8.375C1.25 7.68575 1.81075 7.125 2.5 7.125H11.5C12.1892 7.125 12.75 7.68575 12.75 8.375V10.6875C12.75 11.0327 13.0298 11.3125 13.375 11.3125ZM9.49884 5.875H4.49884V3.67081C4.49884 2.33597 5.62034 1.25 6.99884 1.25C8.37734 1.25 9.49884 2.33597 9.49884 3.67081V5.875Z" fill="#D5DAEA"/>
<path d="M5.84375 11.4375C6.18893 11.4375 6.46875 11.1577 6.46875 10.8125C6.46875 10.4673 6.18893 10.1875 5.84375 10.1875C5.49857 10.1875 5.21875 10.4673 5.21875 10.8125C5.21875 11.1577 5.49857 11.4375 5.84375 11.4375Z" fill="#D5DAEA"/>
<path d="M3.5 11.4375C3.84518 11.4375 4.125 11.1577 4.125 10.8125C4.125 10.4673 3.84518 10.1875 3.5 10.1875C3.15482 10.1875 2.875 10.4673 2.875 10.8125C2.875 11.1577 3.15482 11.4375 3.5 11.4375Z" fill="#D5DAEA"/>
<path d="M8.1875 11.4375C8.53268 11.4375 8.8125 11.1577 8.8125 10.8125C8.8125 10.4673 8.53268 10.1875 8.1875 10.1875C7.84232 10.1875 7.5625 10.4673 7.5625 10.8125C7.5625 11.1577 7.84232 11.4375 8.1875 11.4375Z" fill="#D5DAEA"/>
</svg>
