<svg width="16" height="11" viewBox="0 0 16 11" fill="none" xmlns="http://www.w3.org/2000/svg">
<path d="M14.5938 0.019043H1.40625C0.630844 0.019043 0 0.649887 0 1.42529V9.57473C0 10.3501 0.630844 10.981 1.40625 10.981H14.5938C15.3692 10.981 16 10.3501 16 9.57473V1.42529C16 0.649887 15.3692 0.019043 14.5938 0.019043ZM14.4102 0.956543L14.2225 1.11282L8.55794 5.82973C8.23462 6.09892 7.76531 6.09892 7.44206 5.82973L1.77747 1.11282L1.58978 0.956543H14.4102ZM0.9375 1.63336L5.55288 5.47657L0.9375 8.54823V1.63336ZM14.5938 10.0435H1.40625C1.17975 10.0435 0.990313 9.88198 0.946906 9.66814L6.30456 6.10248L6.84219 6.55017C7.17762 6.82948 7.58884 6.96914 8.00003 6.96914C8.41122 6.96914 8.82241 6.82948 9.15788 6.55017L9.6955 6.10248L15.0531 9.66811C15.0097 9.88201 14.8202 10.0435 14.5938 10.0435ZM15.0625 8.54823L10.4471 5.47661L15.0625 1.63336V8.54823Z" fill="#0968FF"/>
</svg>
