<svg width="16" height="8" viewBox="0 0 16 8" fill="none" xmlns="http://www.w3.org/2000/svg">
<path fill-rule="evenodd" clip-rule="evenodd" d="M0.499987 0.999974H15.5C15.776 0.999974 16 0.775957 16 0.499987C16 0.223976 15.7759 0 15.5 0H0.499987C0.223976 0 0 0.224018 0 0.499987C0 0.775957 0.224017 0.999974 0.499987 0.999974ZM15.5 3.5H0.499987C0.223976 3.5 0 3.72401 0 3.99998C0 4.27594 0.224017 4.49996 0.499987 4.49996H15.5C15.776 4.49996 16 4.27594 16 3.99998C16 3.72401 15.776 3.5 15.5 3.5ZM5.49999 7H15.5C15.776 7 16 7.22398 16 7.49999C16 7.77596 15.776 7.99997 15.5 7.99997H5.49999C5.22402 7.99997 5 7.776 5 7.49999C5 7.22402 5.22398 7 5.49999 7Z" fill="#D5DAEA"/>
</svg>
