<svg width="18" height="18" viewBox="0 0 18 18" fill="none" xmlns="http://www.w3.org/2000/svg">
<path d="M8.99996 2.72961C6.83664 2.72961 5.07657 4.48961 5.07657 6.65294C5.07657 8.81626 6.83664 10.5763 8.99996 10.5763C11.1633 10.5763 12.9234 8.81626 12.9234 6.65294C12.9234 4.48961 11.1633 2.72961 8.99996 2.72961ZM8.99996 9.52091C7.41852 9.52091 6.13185 8.23431 6.13185 6.65287C6.13185 5.07142 7.41852 3.7849 8.99996 3.7849C10.5814 3.7849 11.8681 5.07149 11.8681 6.65294C11.8681 8.23438 10.5815 9.52091 8.99996 9.52091Z" fill="black"/>
<path d="M8.99993 0C5.33149 0 2.34702 2.98448 2.34702 6.65291C2.34702 8.76854 4.12129 11.9205 5.1789 13.611C5.87475 14.7232 6.62252 15.7817 7.28439 16.5915C8.34678 17.8912 8.72703 17.9999 9 17.9999C9.27705 17.9999 9.63605 17.8911 10.6951 16.5907C11.3585 15.7761 12.1066 14.7182 12.8018 13.6119C13.8666 11.9172 15.6529 8.75961 15.6529 6.65284C15.6529 2.98448 12.6684 0 8.99993 0ZM12.0702 12.7902C10.7056 15.0051 9.45286 16.5018 8.99367 16.8839C8.53209 16.5135 7.29966 15.0525 5.91605 12.7972C4.31856 10.1931 3.40237 7.95358 3.40237 6.65291C3.4023 3.56636 5.91337 1.05528 8.99993 1.05528C12.0865 1.05528 14.5976 3.56636 14.5976 6.65291C14.5976 7.94613 13.6764 10.183 12.0702 12.7902Z" fill="black"/>
</svg>
