<svg width="24" height="16" viewBox="0 0 24 16" fill="none" xmlns="http://www.w3.org/2000/svg">
<path d="M23.5284 0.554368C23.2471 0.441581 22.919 0.511898 22.7066 0.733817C21.8951 1.58638 20.3556 2.00083 18.0001 2.00083C15.9932 2.00083 14.5503 3.18738 13.4971 4.0537C12.931 4.51952 12.3457 5.00063 12.0001 5.00063C11.6544 5.00063 11.0692 4.51952 10.503 4.0537C9.44979 3.18733 8.00689 2.00083 6.00006 2.00083C3.64457 2.00083 2.10504 1.58638 1.29351 0.733817C1.08039 0.510409 0.754441 0.439369 0.471729 0.554368C0.18676 0.668644 0 0.944046 0 1.2509C0 6.02456 0.705337 11.6675 6.20288 12.9507C8.88942 13.5776 9.88699 14.3451 10.5476 14.8534C10.9797 15.186 11.3877 15.5001 12 15.5001C12.6123 15.5001 13.0203 15.1859 13.4524 14.8526C14.113 14.3451 15.1106 13.5769 17.7964 12.9499C23.2947 11.6668 24 6.0238 24 1.25086C24 0.944 23.8133 0.668644 23.5284 0.554368ZM17.4551 11.4896C14.453 12.1898 13.254 13.1133 12.5376 13.6648C11.9649 14.1057 12.0352 14.1057 11.4624 13.6648C10.7461 13.1132 9.54714 12.1905 6.54422 11.4902C3.29077 10.7308 1.75341 8.07748 1.52928 2.70983C2.63156 3.24081 4.11106 3.50073 6.00001 3.50073C7.46927 3.50073 8.5752 4.41039 9.5508 5.21231C10.3557 5.87517 11.1167 6.50063 12 6.50063C12.8833 6.50063 13.6443 5.87513 14.4492 5.21231C15.4248 4.41039 16.5308 3.50073 18 3.50073C19.889 3.50073 21.3684 3.24081 22.4708 2.70983C22.2459 8.07748 20.7093 10.7301 17.4551 11.4896Z" fill="#D5DAEA"/>
<path d="M4.50018 6.61443C4.50018 6.61443 4.50018 11.0003 10.5002 11.0003C10.5002 9.9037 10.5002 8.80738 9.50014 7.71084C7.91909 5.97715 4.50018 6.61443 4.50018 6.61443Z" fill="#D5DAEA"/>
<path d="M13.5 11.0002C19.5001 11.0002 19.5001 6.61441 19.5001 6.61441C19.5001 6.61441 16.0811 5.97718 14.5 7.71086C13.5 8.80741 13.5 9.90377 13.5 11.0002Z" fill="#D5DAEA"/>
</svg>
