<svg width="10" height="17" viewBox="0 0 10 17" fill="none" xmlns="http://www.w3.org/2000/svg">
<path d="M5.00013 15.0276C5.30061 15.0276 5.5442 14.784 5.5442 14.4835C5.5442 14.183 5.30061 13.9395 5.00013 13.9395C4.69964 13.9395 4.45605 14.183 4.45605 14.4835C4.45605 14.784 4.69964 15.0276 5.00013 15.0276Z" fill="#D5DAEA"/>
<path d="M8.1386 0.5H1.86163C0.949768 0.5 0.208008 1.24183 0.208008 2.15362V14.8464C0.208008 15.7582 0.949839 16.5 1.86163 16.5H8.13867C9.05046 16.5 9.79229 15.7582 9.79229 14.8464V2.15362C9.79222 1.24183 9.05046 0.5 8.1386 0.5ZM1.27467 3.73577H8.72556V12.6173H1.27467V3.73577ZM1.86163 1.56667H8.13867C8.4623 1.56667 8.72563 1.82999 8.72563 2.15362V2.6691H1.27467V2.15362C1.27467 1.82999 1.53793 1.56667 1.86163 1.56667ZM8.1386 15.4333H1.86163C1.538 15.4333 1.27467 15.17 1.27467 14.8464V13.6839H8.72556V14.8464C8.72556 15.17 8.4623 15.4333 8.1386 15.4333Z" fill="#D5DAEA"/>
</svg>
