<?xml version="1.0" encoding="UTF-8" standalone="no"?>
<svg
   width="33"
   height="32"
   viewBox="0 0 33 32"
   fill="none"
   version="1.1"
   id="svg141"
   sodipodi:docname="money.svg"
   inkscape:version="1.2.2 (732a01da63, 2022-12-09)"
   xmlns:inkscape="http://www.inkscape.org/namespaces/inkscape"
   xmlns:sodipodi="http://sodipodi.sourceforge.net/DTD/sodipodi-0.dtd"
   xmlns="http://www.w3.org/2000/svg"
   xmlns:svg="http://www.w3.org/2000/svg">
  <defs
     id="defs145" />
  <sodipodi:namedview
     id="namedview143"
     pagecolor="#ffffff"
     bordercolor="#000000"
     borderopacity="0.25"
     inkscape:showpageshadow="2"
     inkscape:pageopacity="0.0"
     inkscape:pagecheckerboard="0"
     inkscape:deskcolor="#d1d1d1"
     showgrid="false"
     inkscape:zoom="25.8125"
     inkscape:cx="16.523002"
     inkscape:cy="16.01937"
     inkscape:window-width="1920"
     inkscape:window-height="1013"
     inkscape:window-x="-9"
     inkscape:window-y="-9"
     inkscape:window-maximized="1"
     inkscape:current-layer="svg141" />
  <path
     style="color:#000000;fill:#0968ff;stroke-linecap:round;stroke-linejoin:round;-inkscape-stroke:none"
     d="M 5.8339844,7 C 3.8207853,7 2.1660156,8.6528021 2.1660156,10.666016 V 21.333984 C 2.1660156,23.347204 3.8207898,25 5.8339844,25 H 27.166016 c 2.013219,0 3.667968,-1.652796 3.667968,-3.666016 V 10.666016 C 30.833984,8.6528021 29.17924,7 27.166016,7 h -6.789063 z m 0,2 h 14.5429686 6.789063 c 0.932372,0 1.667968,0.7336521 1.667968,1.666016 V 21.333984 C 28.833984,22.266362 28.098393,23 27.166016,23 H 5.8339844 C 4.9016619,23 4.1660156,22.266362 4.1660156,21.333984 V 10.666016 C 4.1660156,9.7336521 4.9016664,9 5.8339844,9 Z"
     id="path135" />
  <path
     style="color:#000000;fill:#0968ff;stroke-linecap:round;stroke-linejoin:round;-inkscape-stroke:none"
     d="m 16.5,12.333984 c -2.013157,0 -3.666016,1.652859 -3.666016,3.666016 0,2.01322 1.652859,3.666016 3.666016,3.666016 2.01322,0 3.666016,-1.652796 3.666016,-3.666016 0,-2.013157 -1.652796,-3.666016 -3.666016,-3.666016 z m 0,2 c 0.932377,0 1.666016,0.733776 1.666016,1.666016 0,0.932377 -0.733639,1.666016 -1.666016,1.666016 -0.93224,0 -1.666016,-0.733639 -1.666016,-1.666016 0,-0.93224 0.733776,-1.666016 1.666016,-1.666016 z"
     id="path137" />
  <path
     style="color:#000000;fill:#0968ff;stroke-linecap:round;stroke-linejoin:round;-inkscape-stroke:none"
     d="m 8.5,15 a 1,1 0 0 0 -1,1 1,1 0 0 0 1,1 h 0.013672 a 1,1 0 0 0 1,-1 1,1 0 0 0 -1,-1 z m 16,0 a 1,1 0 0 0 -1,1 1,1 0 0 0 1,1 h 0.01367 a 1,1 0 0 0 1,-1 1,1 0 0 0 -1,-1 z"
     id="path139" />
</svg>
