<svg width="24" height="25" viewBox="0 0 24 25" fill="none" xmlns="http://www.w3.org/2000/svg">
<path d="M21.75 0.5H2.25C1.00734 0.5 0 1.50734 0 2.75V22.25C0 23.4927 1.00734 24.5 2.25 24.5H21.75C22.9927 24.5 24 23.4927 24 22.25V2.75C24 1.50734 22.9927 0.5 21.75 0.5ZM22.5 22.25C22.5 22.6642 22.1642 23 21.75 23H2.25C1.83577 23 1.5 22.6642 1.5 22.25V2.75C1.5 2.33577 1.83577 2 2.25 2H21.75C22.1642 2 22.5 2.33577 22.5 2.75V22.25Z" fill="white"/>
<path d="M16.2827 13.4674C15.9902 13.1766 15.5178 13.1766 15.2252 13.4674L13.5002 15.1924L10.2827 11.9749C9.99016 11.6841 9.51776 11.6841 9.22521 11.9749L3.97521 17.2249C3.68524 17.5207 3.68988 17.9956 3.98566 18.2855C4.12324 18.4204 4.30751 18.4972 4.50021 18.4999H19.5002C19.9144 18.5023 20.2521 18.1685 20.2546 17.7543C20.2557 17.5528 20.1758 17.3593 20.0327 17.2174L16.2827 13.4674Z" fill="white"/>
<path d="M14.25 11C15.4926 11 16.5 9.99264 16.5 8.75C16.5 7.50736 15.4926 6.5 14.25 6.5C13.0074 6.5 12 7.50736 12 8.75C12 9.99264 13.0074 11 14.25 11Z" fill="white"/>
</svg>
