<?xml version="1.0" encoding="UTF-8" standalone="no"?>
<svg
   width="33"
   height="32"
   viewBox="0 0 33 32"
   fill="none"
   version="1.1"
   id="svg6"
   sodipodi:docname="pig.svg"
   inkscape:version="1.2.2 (732a01da63, 2022-12-09)"
   xmlns:inkscape="http://www.inkscape.org/namespaces/inkscape"
   xmlns:sodipodi="http://sodipodi.sourceforge.net/DTD/sodipodi-0.dtd"
   xmlns="http://www.w3.org/2000/svg"
   xmlns:svg="http://www.w3.org/2000/svg">
  <defs
     id="defs10" />
  <sodipodi:namedview
     id="namedview8"
     pagecolor="#ffffff"
     bordercolor="#000000"
     borderopacity="0.25"
     inkscape:showpageshadow="2"
     inkscape:pageopacity="0.0"
     inkscape:pagecheckerboard="0"
     inkscape:deskcolor="#d1d1d1"
     showgrid="false"
     inkscape:zoom="25.8125"
     inkscape:cx="16.523002"
     inkscape:cy="16.01937"
     inkscape:window-width="1920"
     inkscape:window-height="1013"
     inkscape:window-x="-9"
     inkscape:window-y="-9"
     inkscape:window-maximized="1"
     inkscape:current-layer="svg6" />
  <path
     style="color:#000000;fill:#0968ff;stroke-linecap:round;stroke-linejoin:round;-inkscape-stroke:none"
     d="m 25.833984,5.6660156 c -1.311108,0 -2.433006,0.5870156 -3.271484,1.25 C 22.030367,7.3367732 21.806032,7.8012422 21.498047,8.25 20.560287,7.9329114 19.582933,7.6522605 18.480469,7.5742187 16.869554,7.4601846 15.141772,7.5945796 13.488281,8.0097656 11.603084,8.4831325 9.8051868,9.3199757 8.4375,10.636719 7.0698132,11.953462 6.1660156,13.788679 6.1660156,16 c 0,1.199999 -0.015294,2.323597 0.390625,3.480469 0.3590188,1.023206 1.1282015,1.988503 2.2773438,2.943359 v 4.242188 a 1.0001,1.0001 0 0 0 1,1 h 5.3320316 a 1.0001,1.0001 0 0 0 1,-1 V 25 h 2 v 1.666016 a 1.0001,1.0001 0 0 0 1,1 H 24.5 a 1.0001,1.0001 0 0 0 1,-1 v -4.804688 c 0.918557,-0.525174 1.668281,-1.240314 2.179687,-2.195312 h 2.154297 a 1.0001,1.0001 0 0 0 1,-1 v -5.332032 a 1.0001,1.0001 0 0 0 -1,-1 H 27.892578 C 27.649829,11.480025 27.282479,10.800329 26.833984,10.320313 V 6.6660156 a 1.0001,1.0001 0 0 0 -1,-1 z m -1,2.4023438 v 2.5976566 a 1.0001,1.0001 0 0 0 0.292969,0.707031 c 0.666664,0.666664 1.039063,0.960947 1.039063,1.960937 a 1.0001,1.0001 0 0 0 1,1 h 1.667968 v 3.332032 h -1.667968 a 1.0001,1.0001 0 0 0 -0.957032,0.71289 c -0.303347,1.011208 -0.894473,1.429612 -2.15625,2.060547 A 1.0001,1.0001 0 0 0 23.5,21.333984 v 4.332032 H 20.166016 V 24 a 1.0001,1.0001 0 0 0 -1,-1 h -4 a 1.0001,1.0001 0 0 0 -1,1 v 1.666016 H 10.833984 V 22 a 1.0001,1.0001 0 0 0 -0.40039,-0.800781 C 9.202665,20.27602 8.7041049,19.561486 8.4433594,18.818359 8.1826139,18.075233 8.1660156,17.199999 8.1660156,16 c 0,-1.690442 0.6225941,-2.92484 1.6582032,-3.921875 1.0356092,-0.997035 2.5194402,-1.71938 4.1503902,-2.1289062 1.430493,-0.359192 2.965828,-0.4778299 4.363282,-0.3789063 1.187332,0.084049 2.275809,0.3277493 3.101562,0.6816405 A 1.0001,1.0001 0 0 0 22.78125,9.6503906 c 0.0016,-0.00477 0.426639,-0.6956711 1.021484,-1.1660156 0.302054,-0.2388337 0.678513,-0.2699713 1.03125,-0.4160156 z"
     id="path2" />
  <path
     style="color:#000000;fill:#0968ff;stroke-linecap:round;stroke-linejoin:round;-inkscape-stroke:none"
     d="m 3.1660156,11 a 1,1 0 0 0 -1,1 v 1.333984 C 2.1660156,15.346125 3.8218694,17 5.8339844,17 h 1.3320312 a 1,1 0 0 0 1,-1 1,1 0 0 0 -1,-1 H 5.8339844 C 4.9127823,15 4.1660156,14.255241 4.1660156,13.333984 V 12 a 1,1 0 0 0 -1,-1 z"
     id="path4" />
</svg>
