<svg width="20" height="20" viewBox="0 0 20 20" fill="none" xmlns="http://www.w3.org/2000/svg">
<g clip-path="url(#clip0_2391_18624)">
<path d="M18.2687 9.08125H10.9188V1.73119C10.9188 1.22415 10.5072 0.8125 9.99994 0.8125C9.4929 0.8125 9.08125 1.22415 9.08125 1.73119V9.08125H1.73119C1.22415 9.08125 0.8125 9.4929 0.8125 9.99994C0.8125 10.5072 1.22415 10.9188 1.73119 10.9188H9.08125V18.2687C9.08125 18.7759 9.4929 19.1876 9.99994 19.1876C10.5072 19.1876 10.9188 18.7759 10.9188 18.2687V10.9188H18.2687C18.7759 10.9188 19.1876 10.5072 19.1876 9.99994C19.1876 9.4929 18.7759 9.08125 18.2687 9.08125V9.08125Z" fill="#D5DAEA"/>
</g>
<defs>
<clipPath id="clip0_2391_18624">
<rect width="18.375" height="18.375" fill="white" transform="translate(0.8125 0.8125)"/>
</clipPath>
</defs>
</svg>
