<svg width="16" height="17" viewBox="0 0 16 17" fill="none" xmlns="http://www.w3.org/2000/svg">
<path d="M15.7333 6.9H11.2V6.1C11.2 6.01467 11.1592 5.93447 11.0901 5.88427L8.26667 3.83093V2.9H11.2C11.3473 2.9 11.4667 2.7806 11.4667 2.63333V1.03333C11.4667 0.886067 11.3473 0.766667 11.2 0.766667H8.26667C8.26667 0.6194 8.14727 0.5 8 0.5C7.85273 0.5 7.73333 0.6194 7.73333 0.766667V3.83093L4.90987 5.88427C4.84083 5.93447 4.8 6.01467 4.8 6.1V6.9H0.266667C0.1194 6.9 0 7.0194 0 7.16667V16.2333C0 16.3806 0.1194 16.5 0.266667 16.5H15.7333C15.8806 16.5 16 16.3806 16 16.2333V7.16667C16 7.0194 15.8806 6.9 15.7333 6.9ZM8.26667 1.3H10.9333V2.36667H8.26667V1.3ZM4.8 15.9667H0.533333V7.43333H4.8V15.9667ZM9.06667 15.9667H6.93333V13.3H9.06667V15.9667ZM10.6667 15.9667H9.6V13.0333C9.6 12.8861 9.4806 12.7667 9.33333 12.7667H6.66667C6.5194 12.7667 6.4 12.8861 6.4 13.0333V15.9667H5.33333V6.23573L8 4.29627L10.6667 6.23573V15.9667ZM15.4667 15.9667H11.2V7.43333H15.4667V15.9667Z" fill="#D5DAEA"/>
<path d="M2.40016 8.2334H1.3335V8.76673H2.40016V8.2334Z" fill="#D5DAEA"/>
<path d="M3.99977 8.2334H2.93311V8.76673H3.99977V8.2334Z" fill="#D5DAEA"/>
<path d="M2.40016 9.2998H1.3335V9.83314H2.40016V9.2998Z" fill="#D5DAEA"/>
<path d="M3.99977 9.2998H2.93311V9.83314H3.99977V9.2998Z" fill="#D5DAEA"/>
<path d="M2.40016 10.3667H1.3335V10.9H2.40016V10.3667Z" fill="#D5DAEA"/>
<path d="M3.99977 10.3667H2.93311V10.9H3.99977V10.3667Z" fill="#D5DAEA"/>
<path d="M2.40016 11.4331H1.3335V11.9664H2.40016V11.4331Z" fill="#D5DAEA"/>
<path d="M3.99977 11.4331H2.93311V11.9664H3.99977V11.4331Z" fill="#D5DAEA"/>
<path d="M2.40016 12.5H1.3335V13.0333H2.40016V12.5Z" fill="#D5DAEA"/>
<path d="M3.99977 12.5H2.93311V13.0333H3.99977V12.5Z" fill="#D5DAEA"/>
<path d="M13.0667 8.2334H12V8.76673H13.0667V8.2334Z" fill="#D5DAEA"/>
<path d="M14.6668 8.2334H13.6001V8.76673H14.6668V8.2334Z" fill="#D5DAEA"/>
<path d="M13.0667 9.2998H12V9.83314H13.0667V9.2998Z" fill="#D5DAEA"/>
<path d="M14.6668 9.2998H13.6001V9.83314H14.6668V9.2998Z" fill="#D5DAEA"/>
<path d="M13.0667 10.3667H12V10.9H13.0667V10.3667Z" fill="#D5DAEA"/>
<path d="M14.6668 10.3667H13.6001V10.9H14.6668V10.3667Z" fill="#D5DAEA"/>
<path d="M13.0667 11.4331H12V11.9664H13.0667V11.4331Z" fill="#D5DAEA"/>
<path d="M14.6668 11.4331H13.6001V11.9664H14.6668V11.4331Z" fill="#D5DAEA"/>
<path d="M13.0667 12.5H12V13.0333H13.0667V12.5Z" fill="#D5DAEA"/>
<path d="M14.6668 12.5H13.6001V13.0333H14.6668V12.5Z" fill="#D5DAEA"/>
<path d="M6.1333 8.49997C6.13447 9.5304 6.96953 10.3655 7.99997 10.3666C9.0309 10.3666 9.86663 9.5309 9.86663 8.49997C9.86663 7.46903 9.0309 6.6333 7.99997 6.6333C6.96903 6.6333 6.1333 7.46903 6.1333 8.49997ZM9.3333 8.49997C9.3333 9.23633 8.73633 9.8333 7.99997 9.8333C7.2636 9.8333 6.66663 9.23633 6.66663 8.49997C6.6675 7.76397 7.26397 7.1675 7.99997 7.16663C8.73633 7.16663 9.3333 7.7636 9.3333 8.49997Z" fill="#D5DAEA"/>
<path d="M7.73353 8.23311H7.2002V8.76644H8.26686V7.43311H7.73353V8.23311Z" fill="#D5DAEA"/>
</svg>
