<svg width="20" height="18" viewBox="0 0 20 18" fill="none" xmlns="http://www.w3.org/2000/svg">
<path d="M18.809 7.09472L2.67244 0.399043C1.99264 0.116933 1.22467 0.241035 0.668182 0.722754C0.111696 1.20455 -0.121038 1.94686 0.060837 2.66006L1.64654 8.87851L0.060837 15.097C-0.121038 15.8102 0.111657 16.5525 0.668143 17.0343C1.22568 17.517 1.99385 17.6395 2.67244 17.358L18.809 10.6623C19.5436 10.3575 20.0001 9.67394 20.0001 8.87851C20.0001 8.08308 19.5436 7.39956 18.809 7.09472ZM18.3598 9.57988L2.2233 16.2756C1.95193 16.3881 1.65736 16.3406 1.43521 16.1483C1.2131 15.9559 1.12385 15.6712 1.19643 15.3865L2.70655 9.46445H8.52941C8.85304 9.46445 9.11539 9.20211 9.11539 8.87847C9.11539 8.55484 8.85304 8.2925 8.52941 8.2925H2.70658L1.19643 2.37053C1.12385 2.08584 1.2131 1.80108 1.43521 1.60877C1.65732 1.41647 1.95182 1.36889 2.22326 1.48147L18.3598 8.17714C18.7944 8.35746 18.8281 8.75957 18.8281 8.87851C18.8281 8.99746 18.7944 9.39957 18.3598 9.57988Z" fill="#D5DAEA"/>
</svg>
