<svg width="16" height="16" viewBox="0 0 16 16" fill="none" xmlns="http://www.w3.org/2000/svg">
<path fill-rule="evenodd" clip-rule="evenodd" d="M8 0C10.1369 0 12.1458 0.832156 13.6569 2.34313C15.1678 3.85416 16 5.86312 16 8C16 10.1369 15.1678 12.1459 13.6569 13.6569C12.1458 15.1678 10.1369 16 8 16C5.86312 16 3.85416 15.1678 2.34313 13.6569C0.832156 12.1459 0 10.1369 0 8C0 5.86312 0.832156 3.85416 2.34313 2.34313C3.85416 0.832156 5.86312 0 8 0ZM1.25 8C1.25 11.722 4.27803 14.75 8 14.75C11.722 14.75 14.75 11.722 14.75 8C14.75 4.27803 11.722 1.25 8 1.25C4.27803 1.25 1.25 4.27803 1.25 8ZM10.7491 10.2551C11.303 9.60612 11.5288 8.937 11.531 8.93031L12.7197 9.31709C12.7082 9.35244 12.4318 10.1923 11.7343 11.0259C10.7907 12.1537 9.52537 12.7498 8.07499 12.7498C6.63171 12.7498 5.34443 12.1584 4.35233 11.0395C3.61858 10.2119 3.30255 9.3785 3.28943 9.34344L4.46052 8.90625C4.46233 8.91097 4.72334 9.58528 5.31458 10.2403C6.0689 11.076 6.99765 11.4998 8.07499 11.4998C9.14462 11.4998 10.0443 11.081 10.7491 10.2551ZM5.25 6.62866C5.80228 6.62866 6.25 6.18095 6.25 5.62866C6.25 5.07638 5.80228 4.62866 5.25 4.62866C4.69772 4.62866 4.25 5.07638 4.25 5.62866C4.25 6.18095 4.69772 6.62866 5.25 6.62866ZM11.75 5.62866C11.75 6.18095 11.3023 6.62866 10.75 6.62866C10.1977 6.62866 9.75 6.18095 9.75 5.62866C9.75 5.07638 10.1977 4.62866 10.75 4.62866C11.3023 4.62866 11.75 5.07638 11.75 5.62866Z" fill="#D5DAEA"/>
</svg>
