<svg width="18" height="17" viewBox="0 0 18 17" fill="none" xmlns="http://www.w3.org/2000/svg">
<g clip-path="url(#clip0_2383:905)">
<path d="M14.0637 3.83119C13.9424 3.83119 13.8198 3.78893 13.7215 3.70234C12.4102 2.55245 10.7331 1.91931 8.99996 1.91931C7.36655 1.91931 5.76917 2.49218 4.50151 3.53332C4.27915 3.7155 3.9515 3.68295 3.77001 3.46128C3.58852 3.23961 3.62039 2.91196 3.84205 2.72978C5.29466 1.53694 7.12688 0.880249 8.99996 0.880249C10.9853 0.880249 12.9055 1.60482 14.4065 2.92097C14.622 3.11008 14.6435 3.43842 14.4543 3.65455C14.3518 3.77092 14.2077 3.83119 14.0637 3.83119Z" fill="black"/>
<path d="M5.7098 3.65101H3.97803C3.69125 3.65101 3.4585 3.41826 3.4585 3.13148V1.39971C3.4585 1.18982 3.58526 1.00002 3.77922 0.919664C3.97318 0.83931 4.19692 0.883644 4.34516 1.03258L6.07693 2.76435C6.22517 2.91259 6.2702 3.13633 6.18984 3.33029C6.10949 3.52425 5.91969 3.65101 5.7098 3.65101V3.65101Z" fill="black"/>
<path d="M9.08305 16.1198C7.09705 16.1198 5.17687 15.3953 3.67646 14.0791C3.46034 13.89 3.43955 13.5617 3.62866 13.3455C3.81777 13.1301 4.14612 13.1086 4.36224 13.2977C5.67285 14.4476 7.3492 15.0808 9.08305 15.0808C10.7165 15.0808 12.3138 14.5079 13.5815 13.4668C13.8032 13.2839 14.1301 13.3164 14.313 13.5388C14.4952 13.7605 14.4626 14.0881 14.241 14.2703C12.7883 15.4631 10.9561 16.1198 9.08305 16.1198V16.1198Z" fill="black"/>
<path d="M14.0222 16.1198C13.8871 16.1198 13.7541 16.0672 13.6551 15.9674L11.9233 14.2357C11.7751 14.0874 11.73 13.8637 11.8104 13.6697C11.8907 13.4758 12.0805 13.349 12.2904 13.349H14.0222C14.309 13.349 14.5417 13.5817 14.5417 13.8685V15.6003C14.5417 15.8102 14.415 16 14.221 16.0803C14.1566 16.1067 14.0894 16.1198 14.0222 16.1198Z" fill="black"/>
<path d="M4.1512 8.50004C5.10764 8.50004 5.88298 7.7247 5.88298 6.76827C5.88298 5.81184 5.10764 5.0365 4.1512 5.0365C3.19477 5.0365 2.41943 5.81184 2.41943 6.76827C2.41943 7.7247 3.19477 8.50004 4.1512 8.50004Z" fill="black"/>
<path d="M5.70964 9.19275H2.59245C1.54161 9.19275 0.6875 10.0469 0.6875 11.0977V11.444C0.6875 11.7308 0.92025 11.9636 1.20703 11.9636H7.09505C7.38183 11.9636 7.61458 11.7308 7.61458 11.444V11.0977C7.61458 10.0469 6.76047 9.19275 5.70964 9.19275Z" fill="black"/>
<path d="M13.849 8.50004C14.8054 8.50004 15.5807 7.7247 15.5807 6.76827C15.5807 5.81184 14.8054 5.0365 13.849 5.0365C12.8925 5.0365 12.1172 5.81184 12.1172 6.76827C12.1172 7.7247 12.8925 8.50004 13.849 8.50004Z" fill="black"/>
<path d="M15.4074 9.19275H12.2902C11.2394 9.19275 10.3853 10.0469 10.3853 11.0977V11.444C10.3853 11.7308 10.618 11.9636 10.9048 11.9636H16.7928C17.0796 11.9636 17.3123 11.7308 17.3123 11.444V11.0977C17.3123 10.0469 16.4582 9.19275 15.4074 9.19275Z" fill="black"/>
</g>
<defs>
<clipPath id="clip0_2383:905">
<rect width="16.625" height="16.625" fill="white" transform="translate(0.6875 0.1875)"/>
</clipPath>
</defs>
</svg>
