<?xml version="1.0" encoding="UTF-8" standalone="no"?>
<svg
   width="13"
   height="13"
   viewBox="0 0 13 13"
   fill="none"
   version="1.1"
   id="svg6"
   sodipodi:docname="table-end.svg"
   inkscape:version="1.2.2 (732a01da63, 2022-12-09)"
   xmlns:inkscape="http://www.inkscape.org/namespaces/inkscape"
   xmlns:sodipodi="http://sodipodi.sourceforge.net/DTD/sodipodi-0.dtd"
   xmlns="http://www.w3.org/2000/svg"
   xmlns:svg="http://www.w3.org/2000/svg">
  <defs
     id="defs10" />
  <sodipodi:namedview
     id="namedview8"
     pagecolor="#ffffff"
     bordercolor="#000000"
     borderopacity="0.25"
     inkscape:showpageshadow="2"
     inkscape:pageopacity="0.0"
     inkscape:pagecheckerboard="0"
     inkscape:deskcolor="#d1d1d1"
     showgrid="false"
     inkscape:zoom="63.538462"
     inkscape:cx="6.5078692"
     inkscape:cy="6.5078692"
     inkscape:window-width="1920"
     inkscape:window-height="1013"
     inkscape:window-x="-9"
     inkscape:window-y="-9"
     inkscape:window-maximized="1"
     inkscape:current-layer="svg6" />
  <g
     id="path2">
    <path
       style="color:#000000;fill:#000000;stroke-width:0.2;-inkscape-stroke:none"
       d="m 1.9387409,1.5452615 c 0,-0.33111 0.26837,-0.601002 0.6,-0.601002 0.33137,0 0.6,0.268632 0.6,0.600002 v 9.8800005 c 0,0.3314 -0.26863,0.6 -0.6,0.6 -0.33163,0 -0.6,-0.2699 -0.6,-0.601 v -0.0221 -0.0221 -0.0221 -0.022 -0.022 -0.0219 -0.0219 -0.0219 -0.0219 -0.0218 -0.0218 -0.0217 -0.0218 -0.0217 -0.0216 -0.0217 -0.0216 -0.0215 -0.0216 -0.0215 -0.0214 -0.0215 -0.0214 -0.0214 -0.0214 -0.0213 -0.0213 -0.0212 -0.0213 -0.0212 -0.0212 -0.0211 -0.0211 -0.0211 -0.0211 -0.021 -0.021 -0.021 -0.0209 -0.021 -0.0209 -0.0208 -0.0209 -0.0208 -0.0207 -0.0208 -0.0207 -0.0207 -0.0207 -0.0206 -0.0207 -0.0205 -0.0206 -0.0205 -0.0206 -0.0204 -0.0205 -0.0204 -0.0204 -0.0204 -0.0204 -0.0203 -0.0203 -0.0203 -0.0203 -0.0202 -0.0202 -0.0202 -0.02014 -0.02013 -0.02011 -0.02009 -0.02006 -0.02004 -0.02001 -0.01999 -0.01997 -0.01994 -0.01992 -0.0199 -0.01988 -0.01985 -0.01983 -0.01981 -0.01978 -0.01976 -0.01974 -0.01972 -0.0197 -0.01967 -0.01966 -0.01963 -0.01961 -0.01959 -0.01957 -0.01954 -0.01953 -0.01951 -0.01948 -0.01947 -0.01944 -0.01943 -0.0194 -0.01938 -0.01937 -0.01934 -0.01933 -0.01931 -0.01928 -0.01927 -0.01925 -0.01923 -0.01921 -0.0192 -0.01917 -0.01916 -0.01913 -0.01912 -0.01911 -0.01908 -0.01907 -0.01905 -0.01903 -0.01901 -0.019 -0.01898 -0.01896 -0.01895 -0.01893 -0.01891 -0.0189 -0.01888 -0.01886 -0.01885 -0.01883 -0.01882 -0.0188 -0.01879 -0.01877 -0.01875 -0.01874 -0.01873 -0.01871 -0.0187 -0.01868 -0.01866 -0.01866 -0.01864 -0.01862 -0.01861 -0.0186 -0.01858 -0.01857 -0.01855 -0.01855 -0.01853 -0.01851 -0.01851 -0.01849 -0.01848 -0.01846 -0.01846 -0.01844 -0.01843 -0.01842 -0.0184 -0.0184 -0.01838 -0.01837 -0.01836 -0.01835 -0.01833 -0.01833 -0.01832 -0.0183 -0.0183 -0.01828 -0.01827 -0.01827 -0.01825 -0.01824 -0.01824 -0.01822 -0.01822 -0.0182 -0.0182 -0.01819 -0.01817 -0.01817 -0.01817 -0.01815 -0.01814 -0.01814 -0.01812 -0.01812 -0.01811 -0.01811 -0.01809 -0.01809 -0.01808 -0.01808 -0.01806 -0.01806 -0.01805 -0.01805 -0.01804 -0.01803 -0.01803 -0.01802 -0.01801 -0.01801 -0.018 -0.018 -0.01799 -0.01798 -0.01798 -0.01798 -0.01797 -0.01796 -0.01796 -0.01796 -0.01795 -0.01794 -0.01795 -0.01793 -0.01794 -0.01793 -0.01792 -0.01793 -0.01791 -0.01792 -0.01791 -0.01791 -0.01791 -0.0179 -0.0179 -0.0179 -0.0179 -0.01789 -0.01789 -0.01789 -0.01789 -0.01788 -0.01788 -0.01789 -0.01788 -0.01788 -0.01787 -0.01788 -0.01788 -0.01787 -0.01788 -0.01787 -0.01788 -0.01787 -0.01787 -0.01788 -0.01787 -0.01787 -0.01788 -0.01787 -0.01788 -0.01787 -0.01788 -0.01788 -0.01788 -0.01788 -0.01788 -0.01788 -0.01789 -0.01789 -0.01788 -0.0179 -0.01789 -0.01789 -0.0179 -0.0179 -0.01791 -0.0179 -0.01791 -0.01791 -0.01792 -0.01792 -0.01792 -0.01793 -0.01793 -0.01793 -0.01794 -0.01794 -0.01795 -0.01795 -0.01795 -0.01796 -0.01797 -0.01797 -0.01797 -0.01798 -0.01799 -0.01799 -0.01799 -0.01801 -0.018 -0.01802 -0.01802 -0.01802 -0.01804 -0.01804 -0.01804 -0.01805 -0.01806 -0.01807 -0.01807 -0.01808 -0.01809 -0.0181 -0.0181 -0.01811 -0.01812 -0.01813 -0.01813 -0.01815 -0.01815 -0.01816 -0.01817 -0.01818 -0.01819 -0.01819 -0.01821 -0.01821 -0.01823 -0.01823 -0.01824 -0.01826 -0.01826 -0.01828 -0.01828 -0.01829 -0.01831 -0.01831 -0.01833 -0.01834 -0.01835 -0.01836 -0.01837 -0.01838 -0.01839 -0.01841 -0.01842 -0.01843 -0.01844 -0.01845 -0.01847 -0.01848 -0.01849 -0.0185 -0.01852 -0.01853 -0.01854 -0.01856 -0.01857 -0.01858 -0.01859 -0.01862 -0.01862 -0.01864 -0.01865 -0.01867 -0.01868 -0.01869 -0.01871 -0.01873 -0.01874 -0.01876 -0.01877 -0.01878 -0.0188 -0.01882 -0.01883 -0.01885 -0.01887 -0.01888 -0.01889 -0.01892 -0.01893 -0.01894 -0.01897 -0.01898 -0.01899 -0.01902 -0.01903 -0.01905 -0.01906 -0.01909 -0.0191 -0.01912 -0.01914 -0.01915 -0.01918 -0.01919 -0.01921 -0.01923 -0.01925 -0.01927 -0.01929 -0.0193 -0.01933 -0.01935 -0.01936 -0.01939 -0.0194 -0.01942 -0.01945 -0.01946 -0.01949 -0.01951 -0.01952 -0.01955 -0.01957 -0.01959 -0.01961 -0.01963 -0.01965 -0.01968 -0.01969 -0.01972 -0.01974 -0.01977 -0.01978 -0.01981 -0.01983 -0.01985 -0.01987 -0.0199 -0.01992 -0.01995 -0.01996 -0.01999 -0.02002 -0.02004 -0.02006 -0.02008 -0.02011 -0.02014 -0.02015 -0.02019 -0.0202 -0.02023 -0.02026 -0.02028 -0.02031 -0.02033 -0.02036 -0.02038 -0.02041 -0.02043 -0.02046 -0.02049 -0.02051 -0.02054 -0.02056 -0.02059 -0.02062 -0.02065 -0.02067 -0.0207 -0.02072 -0.02075 -0.02078 -0.02081 -0.02084 -0.02086 -0.02089 -0.02092 -0.02095 -0.02098 -0.021 -0.02103 -0.02106 -0.02109 -0.02112 -0.02115 -0.02118 -0.02121 -0.02123 -0.02127 -0.0213 -0.02132 -0.02136 -0.02139 -0.02141 -0.02145 -0.02148 -0.0215 -0.02154 -0.02157 -0.0216 -0.02164 -0.02166 -0.02169 -0.02173 -0.02176 -0.02179 -0.02182 -0.02185 -0.02189 -0.02192 -0.02195 -0.02198 -0.02202 -0.02205 -0.02208 z"
       id="path342" />
    <path
       style="color:#000000;fill:#000000;-inkscape-stroke:none"
       d="m 2.5390625,0.84375 c -0.3858853,0 -0.7011719,0.3160278 -0.7011719,0.7011719 v 0.021484 0.023437 0.021484 0.021484 0.023437 0.021484 0.021484 0.021484 0.021484 0.023437 0.021484 0.021484 0.021484 0.021484 0.021484 0.021484 0.021484 0.021484 0.021484 0.021484 0.021484 0.021484 0.021484 0.021484 0.021484 0.021484 0.021484 0.021484 0.021484 0.021484 0.021484 0.019531 0.021484 0.021484 0.021484 0.021484 0.019531 0.021484 0.021484 0.021484 0.019531 0.021484 0.021484 0.019531 0.021484 0.019531 0.021484 0.021484 0.019531 0.021484 0.019531 0.021484 0.019531 0.021484 0.019531 0.021484 0.019531 0.021484 0.019531 0.021484 0.019531 0.021484 0.019531 0.019531 0.021484 0.019531 0.019531 0.021484 V 3 v 0.019531 0.021484 0.019531 0.019531 0.021484 0.019531 0.019531 0.019531 0.019531 0.021484 0.019531 0.019531 0.019531 0.019531 0.021484 0.019531 0.019531 0.019531 0.019531 0.019531 0.019531 0.019531 0.019531 0.019531 0.019531 0.019531 0.019531 0.019531 0.019531 0.019531 0.019531 0.019531 0.019531 0.019531 0.019531 0.019531 0.019531 0.019531 0.019531 0.017578 0.019531 0.019531 0.019531 0.019531 0.019531 0.019531 0.017578 0.019531 0.019531 0.019531 0.017578 0.019531 0.019531 0.019531 0.017578 0.019531 0.019531 0.019531 0.017578 0.019531 0.019531 0.017578 0.019531 0.019531 0.017578 0.019531 0.019531 0.017578 0.019531 0.017578 0.019531 0.019531 0.017578 0.019531 0.017578 0.019531 0.019531 0.017578 0.019531 0.017578 0.019531 0.017578 0.019531 0.017578 0.019531 0.017578 0.019531 0.017578 0.019531 0.017578 0.019531 0.017578 0.019531 0.017578 0.017578 0.019531 0.017578 0.019531 0.017578 0.017578 0.019531 0.017578 0.019531 0.017578 0.017578 0.019531 0.017578 0.019531 0.017578 0.017578 0.019531 0.017578 0.017578 0.019531 0.017578 0.017578 0.019531 0.017578 0.017578 0.017578 0.019531 0.017578 0.017578 0.019531 0.017578 0.017578 0.017578 0.019531 0.017578 0.017578 0.019531 0.017578 0.017578 0.017578 0.019531 0.017578 0.017578 0.017578 0.017578 0.019531 0.017578 0.017578 0.017578 0.019531 0.017578 0.017578 0.017578 0.017578 0.019531 0.017578 0.017578 0.017578 0.017578 0.019531 0.017578 0.017578 0.017578 0.017578 0.017578 0.019531 0.017578 0.017578 0.017578 0.017578 0.017578 0.019531 0.017578 0.017578 0.017578 0.017578 0.017578 0.019531 0.017578 0.017578 0.017578 0.017578 0.017578 0.019531 0.017578 0.017578 0.017578 0.017578 0.017578 0.017578 0.019531 0.017578 0.017578 0.017578 0.017578 0.017578 0.019531 0.017578 0.017578 0.017578 0.017578 0.017578 0.017578 0.019531 0.017578 0.017578 0.017578 0.017578 0.017578 0.019531 0.017578 0.017578 0.017578 0.017578 0.017578 0.019531 0.017578 0.017578 0.017578 0.017578 0.017578 0.019531 0.017578 0.017578 0.017578 0.017578 0.019531 0.017578 0.017578 0.017578 0.017578 0.017578 0.019531 0.017578 0.017578 0.017578 0.019531 0.017578 0.017578 0.017578 0.017578 0.019531 0.017578 0.017578 0.017578 0.019531 0.017578 0.017578 0.017578 0.019531 0.017578 0.017578 0.017578 0.019531 0.017578 0.017578 0.019531 0.017578 0.017578 0.017578 0.019531 0.017578 0.017578 0.019531 0.017578 0.017578 0.019531 0.017578 0.017578 0.019531 0.017578 0.017578 0.019531 0.017578 0.017578 0.019531 0.017578 0.019531 0.017578 0.017578 0.019531 0.017578 0.019531 0.017578 0.017578 0.019531 0.017578 0.019531 0.017578 0.019531 0.017578 0.019531 0.017578 0.019531 0.017578 0.019531 0.017578 0.019531 0.017578 0.019531 0.017578 0.019531 0.017578 0.019531 0.017578 0.019531 0.019531 0.017578 0.019531 0.017578 0.019531 0.019531 0.017578 0.019531 0.019531 0.017578 0.019531 0.017578 0.019531 0.019531 0.019531 0.017578 0.019531 0.019531 0.017578 0.019531 0.019531 0.019531 0.017578 0.019531 0.019531 0.019531 0.019531 0.017578 0.019531 0.019531 0.019531 0.019531 0.019531 0.017578 0.019531 0.019531 0.019531 0.019531 0.019531 0.019531 0.019531 0.019531 0.019531 0.019531 0.019531 0.019531 0.019531 0.019531 0.019531 0.019531 0.019531 0.019531 0.019531 0.019531 0.019531 0.019531 0.019531 0.019531 0.019531 0.021484 0.019531 0.019531 0.019531 0.019531 0.019531 0.021484 0.019531 0.019531 0.019531 0.021484 0.019531 0.019531 0.019531 0.021484 0.019531 0.019532 0.02148 0.01953 0.01953 0.02149 0.01953 0.02148 0.01953 0.02148 0.01953 0.01953 0.02148 0.01953 0.02149 0.01953 0.02148 0.01953 0.02149 0.02148 0.01953 0.02149 0.01953 0.02148 0.02149 0.01953 0.02148 0.02149 0.01953 0.02148 0.02149 0.02148 0.01953 0.02149 0.02148 0.02149 0.01953 0.02148 0.02149 0.02148 0.02148 0.02149 0.02148 0.02148 0.01953 0.02148 0.02148 0.02149 0.02148 0.02149 0.02148 0.02148 0.02344 0.02148 0.02149 0.02148 0.02148 0.02149 0.02148 0.02148 0.02344 0.02148 0.02149 0.02148 0.02344 0.02148 0.02148 0.02149 0.02344 c 0,0.385136 0.315285,0.701172 0.7011719,0.701172 0.3854079,0 0.6992187,-0.315733 0.6992188,-0.701172 V 1.5449219 c 0,-0.385414 -0.3138045,-0.7011719 -0.6992188,-0.7011719 z m 0,0.2011719 c 0.277325,0 0.5,0.2226746 0.5,0.5 v 9.8789061 c 0,0.27736 -0.2226686,0.5 -0.5,0.5 -0.2773725,0 -0.5,-0.222936 -0.5,-0.5 v -0.02344 -0.02149 -0.02148 -0.02148 -0.02344 -0.02148 -0.02149 -0.02148 -0.02344 -0.02148 -0.02148 -0.02149 -0.02148 -0.02148 -0.02149 -0.02148 -0.02344 -0.02148 -0.02148 -0.02149 -0.02148 -0.02149 -0.02148 -0.02148 -0.01953 -0.02148 -0.02148 -0.02149 -0.02148 -0.02148 -0.02149 -0.02148 -0.01953 -0.02149 -0.02148 -0.02149 -0.01953 -0.02148 -0.02149 -0.02148 -0.01953 -0.02149 -0.02148 -0.01953 -0.02149 -0.02148 -0.01953 -0.02149 -0.01953 -0.02148 -0.02149 -0.01953 -0.02148 -0.01953 -0.02149 -0.01953 -0.02148 -0.01953 -0.01953 -0.02148 -0.01953 -0.02148 -0.01953 -0.02149 -0.01953 -0.01953 -0.02148 V 9.9882813 9.96875 9.9472656 9.9277344 9.9082031 9.8886719 9.8671875 9.8476563 9.828125 9.8085938 9.7871094 9.7675781 9.7480469 9.7285156 9.7089844 9.6894531 9.6679688 9.6484375 9.6289063 9.609375 9.5898438 9.5703125 9.5507813 9.53125 9.5117188 9.4921875 9.4726563 9.453125 9.4335938 9.4140625 9.3945313 9.375 9.3554688 9.3359375 9.3164063 9.296875 9.2773438 9.2578125 9.2382813 9.21875 9.1992188 9.1796875 9.1621094 9.1425781 9.1230469 9.1035156 9.0839844 9.0644531 9.046875 9.0273438 9.0078125 8.9882813 8.96875 8.9511719 8.9316406 8.9121094 8.8925781 8.875 8.8554688 8.8359375 8.8183594 8.7988281 8.7792969 8.7597656 8.7421875 8.7226563 8.7050781 8.6855469 8.6660156 8.6484375 8.6289063 8.609375 8.5917969 8.5722656 8.5546875 8.5351563 8.515625 8.4980469 8.4785156 8.4609375 8.4414063 8.4238281 8.4042969 8.3867188 8.3671875 8.3496094 8.3300781 8.3125 8.2929688 8.2753906 8.2558594 8.2382813 8.21875 8.2011719 8.1816406 8.1640625 8.1445313 8.1269531 8.109375 8.0898438 8.0722656 8.0527344 8.0351563 8.0175781 7.9980469 7.9804687 7.9609375 7.9433594 7.9257812 7.90625 7.8886719 7.8710937 7.8515625 7.8339844 7.8164062 7.796875 7.7792969 7.7617187 7.7421875 7.7246094 7.7070312 7.6875 7.6699219 7.6523437 7.6347656 7.6152344 7.5976562 7.5800781 7.5605469 7.5429687 7.5253906 7.5078125 7.4882812 7.4707031 7.453125 7.4355469 7.4160156 7.3984375 7.3808594 7.3632812 7.34375 7.3261719 7.3085937 7.2910156 7.2734375 7.2539062 7.2363281 7.21875 7.2011719 7.1816406 7.1640625 7.1464844 7.1289062 7.1113281 7.09375 7.0742187 7.0566406 7.0390625 7.0214844 7.0039062 6.984375 6.9667969 6.9492187 6.9316406 6.9140625 6.8964844 6.8769531 6.859375 6.8417969 6.8242187 6.8066406 6.7890625 6.7695312 6.7519531 6.734375 6.7167969 6.6992187 6.6816406 6.6621094 6.6445312 6.6269531 6.609375 6.5917969 6.5742187 6.5566406 6.5371094 6.5195312 6.5019531 6.484375 6.4667969 6.4492187 6.4296875 6.4121094 6.3945312 6.3769531 6.359375 6.3417969 6.3242187 6.3046875 6.2871094 6.2695312 6.2519531 6.234375 6.2167969 6.1972656 6.1796875 6.1621094 6.1445312 6.1269531 6.109375 6.0898437 6.0722656 6.0546875 6.0371094 6.0195312 6.0019531 5.9824219 5.9648437 5.9472656 5.9296875 5.9121094 5.8945312 5.875 5.8574219 5.8398437 5.8222656 5.8046875 5.7851562 5.7675781 5.75 5.7324219 5.7148437 5.6953125 5.6777344 5.6601562 5.6425781 5.6230469 5.6054687 5.5878906 5.5703125 5.5527344 5.5332031 5.515625 5.4980469 5.4804687 5.4609375 5.4433594 5.4257812 5.40625 5.3886719 5.3710937 5.3535156 5.3339844 5.3164062 5.2988281 5.2792969 5.2617187 5.2441406 5.2265625 5.2070312 5.1894531 5.171875 5.1523437 5.1347656 5.1171875 5.0976562 5.0800781 5.0625 5.0429687 5.0253906 5.0058594 4.9882812 4.9707031 4.9511719 4.9335937 4.9140625 4.8964844 4.8789062 4.859375 4.8417969 4.8222656 4.8046875 4.7871094 4.7675781 4.75 4.7304687 4.7128906 4.6933594 4.6757812 4.65625 4.6386719 4.6191406 4.6015625 4.5820312 4.5644531 4.5449219 4.5273437 4.5078125 4.4902344 4.4707031 4.4511719 4.4335937 4.4140625 4.3964844 4.3769531 4.3574219 4.3398437 4.3203125 4.3027344 4.2832031 4.2636719 4.2460937 4.2265625 4.2070312 4.1894531 4.1699219 4.1503906 4.1328125 4.1132812 4.09375 4.0742187 4.0566406 4.0371094 4.0175781 3.9980469 3.9804688 3.9609375 3.9414063 3.921875 3.9042969 3.8847656 3.8652344 3.8457031 3.8261719 3.8066406 3.7871094 3.7695313 3.75 3.7304688 3.7109375 3.6914063 3.671875 3.6523438 3.6328125 3.6132813 3.59375 3.5742188 3.5546875 3.5351563 3.515625 3.4960938 3.4765625 3.4570313 3.4375 3.4179688 3.3984375 3.3789063 3.359375 3.3398438 3.3203125 3.3007813 3.2792969 3.2597656 3.2402344 3.2207031 3.2011719 3.1796875 3.1601563 3.140625 3.1210938 3.1015625 3.0800781 3.0605469 3.0410156 3.0195313 3 2.9804688 2.9589844 2.9394531 2.9199219 2.8984375 2.8789063 2.859375 2.8378906 2.8183594 2.796875 2.7773438 2.7558594 2.7363281 2.7148438 2.6953125 2.6738281 2.6542969 2.6328125 2.6132813 2.5917969 2.5722656 2.5507813 2.5292969 2.5097656 2.4882813 2.46875 2.4472656 2.4257813 2.40625 2.3847656 2.3632813 2.3417969 2.3222656 2.3007813 2.2792969 2.2578125 2.2363281 2.2167969 2.1953125 2.1738281 2.1523438 2.1308594 2.109375 2.0878906 2.0664063 2.0449219 2.0234375 2.0019531 1.9804687 1.9589844 1.9375 1.9160156 1.8945312 1.8730469 1.8515625 1.8300781 1.8085937 1.7871094 1.765625 1.7421875 1.7207031 1.6992187 1.6777344 1.65625 1.6328125 1.6113281 1.5898437 1.5664062 1.5449219 c 0,-0.2770753 0.2226259,-0.5 0.5,-0.5 z"
       id="path344" />
  </g>
  <g
     id="path4">
    <path
       style="color:#000000;fill:#000000;stroke-width:0.2;-inkscape-stroke:none"
       d="m 3.2399994,12.024262 c -0.3313,0 -0.60029,-0.2686 -0.60029,-0.6 0,-0.3314 0.26863,-0.6 0.6,-0.6 h 4 c 0.33137,0 0.6,0.2686 0.6,0.6 0,0.3314 -0.26899,0.6 -0.60029,0.6 h -0.00874 -0.00872 -0.00872 -0.00871 -0.00869 -0.00869 -0.00867 -0.00867 -0.00865 -0.00864 -0.00863 -0.00862 -0.00862 -0.0086 -0.00859 -0.00858 -0.00857 -0.00856 -0.00855 -0.00853 -0.00853 -0.00852 -0.00851 -0.0085 -0.00849 -0.00848 -0.00847 -0.00846 -0.00845 -0.00844 -0.00843 -0.00842 -0.00841 -0.00841 -0.00839 -0.00838 -0.00837 -0.00837 -0.00835 -0.00835 -0.00834 -0.00832 -0.00832 -0.00831 -0.0083 -0.00829 -0.00828 -0.00828 -0.00826 -0.00826 -0.00824 -0.00824 -0.00823 -0.00822 -0.00821 -0.00821 -0.00819 -0.00819 -0.00818 -0.00817 -0.00816 -0.00815 -0.00814 -0.00814 -0.00813 -0.00812 -0.00811 -0.0081 -0.0081 -0.00809 -0.00808 -0.00807 -0.00806 -0.00806 -0.00805 -0.00804 -0.00803 -0.00803 -0.00801 -0.00801 -0.00801 -0.00799 -0.00799 -0.00798 -0.00797 -0.00797 -0.00796 -0.00795 -0.00794 -0.00794 -0.00793 -0.00792 -0.00792 -0.0079 -0.00791 -0.00789 -0.00789 -0.00788 -0.00788 -0.00786 -0.00786 -0.00786 -0.00785 -0.00784 -0.00783 -0.00783 -0.00782 -0.00782 -0.00781 -0.0078 -0.0078 -0.00779 -0.00779 -0.00777 -0.00778 -0.00776 -0.00776 -0.00776 -0.00775 -0.00774 -0.00774 -0.00773 -0.00772 -0.00772 -0.00772 -0.00771 -0.0077 -0.0077 -0.00769 -0.00768 -0.00769 -0.00767 -0.00767 -0.00767 -0.00766 -0.00765 -0.00765 -0.00765 -0.00764 -0.00763 -0.00763 -0.00763 -0.00762 -0.00761 -0.00761 -0.00761 -0.0076 -0.00759 -0.0076 -0.00758 -0.00759 -0.00757 -0.00758 -0.00757 -0.00756 -0.00756 -0.00756 -0.00755 -0.00755 -0.00754 -0.00754 -0.00754 -0.00753 -0.00753 -0.00752 -0.00752 -0.00752 -0.00751 -0.00751 -0.0075 -0.0075 -0.0075 -0.00749 -0.00749 -0.00749 -0.00748 -0.00748 -0.00748 -0.00747 -0.00747 -0.00747 -0.00746 -0.00746 -0.00746 -0.00745 -0.00746 -0.00744 -0.00745 -0.00744 -0.00744 -0.00744 -0.00743 -0.00743 -0.00743 -0.00743 -0.00742 -0.00742 -0.00742 -0.00741 -0.00742 -0.00741 -0.0074 -0.00741 -0.0074 -0.00741 -0.0074 -0.00739 -0.0074 -0.00739 -0.00739 -0.00739 -0.00739 -0.00738 -0.00739 -0.00738 -0.00738 -0.00738 -0.00737 -0.00738 -0.00737 -0.00737 -0.00737 -0.00737 -0.00737 -0.00737 -0.00736 -0.00736 -0.00737 -0.00736 -0.00736 -0.00736 -0.00735 -0.00736 -0.00736 -0.00735 -0.00736 -0.00735 -0.00735 -0.00735 -0.00735 -0.00735 -0.00735 -0.00735 -0.00735 -0.00735 -0.00734 -0.00735 -0.00735 -0.00734 -0.00735 -0.00734 -0.00735 -0.00735 -0.00734 -0.00735 -0.00734 -0.00734 -0.00735 -0.00735 -0.00734 -0.00735 -0.00734 -0.00735 -0.00734 -0.00735 -0.00735 -0.00734 -0.00735 -0.00735 -0.00735 -0.00735 -0.00735 -0.00735 -0.00735 -0.00735 -0.00736 -0.00735 -0.00735 -0.00736 -0.00736 -0.00735 -0.00736 -0.00736 -0.00736 -0.00737 -0.00736 -0.00736 -0.00737 -0.00737 -0.00737 -0.00737 -0.00737 -0.00737 -0.00738 -0.00737 -0.00738 -0.00738 -0.00738 -0.00739 -0.00738 -0.00739 -0.00739 -0.00739 -0.00739 -0.0074 -0.00739 -0.0074 -0.00741 -0.0074 -0.00741 -0.0074 -0.00741 -0.00742 -0.00741 -0.00742 -0.00742 -0.00742 -0.00743 -0.00743 -0.00743 -0.00743 -0.00744 -0.00744 -0.00744 -0.00745 -0.00744 -0.00746 -0.00745 -0.00746 -0.00746 -0.00746 -0.00747 -0.00747 -0.00747 -0.00748 -0.00748 -0.00748 -0.00749 -0.00749 -0.00749 -0.0075 -0.0075 -0.0075 -0.00751 -0.00751 -0.00752 -0.00752 -0.00752 -0.00753 -0.00753 -0.00754 -0.00754 -0.00754 -0.00755 -0.00755 -0.00756 -0.00756 -0.00756 -0.00757 -0.00758 -0.00757 -0.00759 -0.00758 -0.0076 -0.00759 -0.0076 -0.00761 -0.00761 -0.00761 -0.00762 -0.00763 -0.00763 -0.00763 -0.00764 -0.00765 -0.00765 -0.00765 -0.00766 -0.00767 -0.00767 -0.00767 -0.00769 -0.00768 -0.00769 -0.0077 -0.0077 -0.00771 -0.00772 -0.00772 -0.00772 -0.00773 -0.00774 -0.00774 -0.00775 -0.00776 -0.00776 -0.00776 -0.00778 -0.00777 -0.00779 -0.00779 -0.0078 -0.0078 -0.00781 -0.00782 -0.00782 -0.00783 -0.00783 -0.00784 -0.00785 -0.00786 -0.00786 -0.00786 -0.00788 -0.00788 -0.00789 -0.00789 -0.00791 -0.0079 -0.00792 -0.00792 -0.00793 -0.00794 -0.00794 -0.00795 -0.00796 -0.00797 -0.00797 -0.00798 -0.00799 -0.00799 -0.00801 -0.00801 -0.00802 -0.00802 -0.00803 -0.00804 -0.00805 -0.00806 -0.00806 -0.00807 -0.00808 -0.00809 -0.0081 -0.0081 -0.00811 -0.00812 -0.00813 -0.00814 -0.00814 -0.00815 -0.00816 -0.00817 -0.00818 -0.00819 -0.00819 -0.00821 -0.00821 -0.00822 -0.00823 -0.00824 -0.00824 -0.00826 -0.00826 -0.00828 -0.00828 -0.00829 -0.0083 -0.00831 -0.00832 -0.00832 -0.00834 -0.00835 -0.00835 -0.00837 -0.00837 -0.00838 -0.0084 -0.0084 -0.00841 -0.00842 -0.00843 -0.00844 -0.00845 -0.00846 -0.00847 -0.00848 -0.00849 -0.0085 -0.00851 -0.00852 -0.00853 -0.00854 -0.00854 -0.00856 -0.00857 -0.00858 -0.00859 -0.0086 -0.00862 -0.00862 -0.00863 -0.00864 -0.00865 -0.00867 -0.00867 -0.00869 -0.00869 -0.00871 -0.00872 -0.00872 z"
       id="path348" />
    <path
       style="color:#000000;fill:#000000;-inkscape-stroke:none"
       d="m 3.2402344,10.724609 c -0.3854079,0 -0.7011719,0.31378 -0.7011719,0.699219 0,0.385512 0.3158226,0.701172 0.7011719,0.701172 h 0.00781 0.00977 0.00781 0.00977 0.00781 0.00977 0.00781 0.00977 0.00781 0.00781 0.00977 0.00781 0.00977 0.00781 0.00781 0.00977 0.00781 0.00977 0.00781 0.00781 0.00977 0.00781 0.00781 0.00977 0.00781 0.00781 0.00977 0.00781 0.00781 0.00977 0.00781 0.00781 0.00977 0.00781 0.00781 0.00977 0.00781 0.00781 0.00781 0.00977 0.00781 0.00781 0.00977 0.00781 0.00781 0.00781 0.00781 0.00977 0.00781 0.00781 0.00781 0.00977 0.00781 0.00781 0.00781 0.00781 0.00977 0.00781 0.00781 0.00781 0.00781 0.00977 0.00781 0.00781 0.00781 0.00781 0.00781 0.00977 0.00781 0.00781 0.00781 0.00781 0.00781 0.00781 0.00781 0.00977 0.00781 0.00781 0.00781 0.00781 0.00781 0.00781 0.00781 0.00781 0.00781 0.00977 0.00781 0.00781 0.00781 0.00781 0.00781 0.00781 0.00781 0.00781 0.00781 0.00781 0.00781 0.00781 0.00781 0.00781 0.00781 0.00781 0.00781 0.00781 0.00781 0.00781 0.00781 0.00781 0.00781 0.00781 0.00781 0.00781 0.00781 0.00781 0.00781 0.00781 0.00781 0.00781 0.00781 0.00781 0.00781 0.00781 0.00781 0.00781 0.00781 0.00781 0.00781 0.00781 0.00781 0.00781 0.00781 0.00586 0.00781 0.00781 0.00781 0.00781 0.00781 0.00781 0.00781 0.00781 0.00781 0.00781 0.00781 0.00586 0.00781 0.00781 0.00781 0.00781 0.00781 0.00781 0.00781 0.00781 0.00586 0.00781 0.00781 0.00781 0.00781 0.00781 0.00781 0.00586 0.00781 0.00781 0.00781 0.00781 0.00781 0.00781 0.00586 0.00781 0.00781 0.00781 0.00781 0.00781 0.00781 0.00586 0.00781 0.00781 0.00781 0.00781 0.00781 0.00586 0.00781 0.00781 0.00781 0.00781 0.00586 0.00781 0.00781 0.00781 0.00781 0.00586 0.00781 0.00781 0.00781 0.00781 0.00781 0.00586 0.00781 0.00781 0.00781 0.00781 0.00586 0.00781 0.00781 0.00781 0.00586 0.00781 0.00781 0.00781 0.00781 0.00586 0.00781 0.00781 0.00781 0.00781 0.00586 0.00781 0.00781 0.00781 0.00586 0.00781 0.00781 0.00781 0.00586 0.00781 0.00781 0.00781 0.00781 0.00586 0.00781 0.00781 0.00781 0.00586 0.00781 0.00781 0.00781 0.00586 0.00781 0.00781 0.00781 0.00781 0.00586 0.00781 0.00781 0.00781 0.00586 0.00781 0.00781 0.00781 0.00586 0.00781 0.00781 0.00781 0.00586 0.00781 0.00781 0.00781 0.00586 0.00781 0.00781 0.00781 0.00781 0.00586 0.00781 0.00781 0.00781 0.00586 0.00781 0.00781 0.00781 0.00586 0.00781 0.00781 0.00781 0.00586 0.00781 0.00781 0.00781 0.00781 0.00586 0.00781 0.00781 0.00781 0.00586 0.00781 0.00781 0.00781 0.00586 0.00781 0.00781 0.00781 0.00781 0.00586 0.00781 0.00781 0.00781 0.00586 0.00781 0.00781 0.00781 0.00781 0.00586 0.00781 0.00781 0.00781 0.00586 0.00781 0.00781 0.00781 0.00781 0.00586 0.00781 0.00781 0.00781 0.00781 0.00586 0.00781 0.00781 0.00781 0.00781 0.00586 0.00781 0.00781 0.00781 0.00781 0.00586 0.00781 0.00781 0.00781 0.00781 0.00586 0.00781 0.00781 0.00781 0.00781 0.00781 0.00586 0.00781 0.00781 0.00781 0.00781 0.00781 0.00586 0.00781 0.00781 0.00781 0.00781 0.00781 0.00781 0.00586 0.00781 0.00781 0.00781 0.00781 0.00781 0.00781 0.00586 0.00781 0.00781 0.00781 0.00781 0.00781 0.00781 0.00781 0.00586 0.00781 0.00781 0.00781 0.00781 0.00781 0.00781 0.00781 0.00781 0.00781 0.00586 0.00781 0.00781 0.00781 0.00781 0.00781 0.00781 0.00781 0.00781 0.00781 0.00781 0.00781 0.00781 0.00781 0.00781 0.00586 0.00781 0.00781 0.00781 0.00781 0.00781 0.00781 0.00781 0.00781 0.00781 0.00781 0.00781 0.00781 0.00781 0.00781 0.00781 0.00781 0.00781 0.00781 0.00781 0.00781 0.00781 0.00781 0.00781 0.00781 0.00781 0.00781 0.00781 0.00781 0.00781 0.00781 0.00977 0.00781 0.00781 0.00781 0.00781 0.00781 0.00781 0.00781 0.00781 0.00781 0.00781 0.00781 0.00781 0.00977 0.00781 0.00781 0.00781 0.00781 0.00781 0.00781 0.00781 0.00977 0.00781 0.00781 0.00781 0.00781 0.00781 0.00781 0.00977 0.00781 0.00781 0.00781 0.00781 0.00781 0.00977 0.00781 0.00781 0.00781 0.00781 0.00977 0.00781 0.00781 0.00781 0.00781 0.00977 0.00781 0.00781 0.00781 0.00977 0.00781 0.00781 0.00781 0.00977 0.00781 0.00781 0.00977 0.00781 0.00781 0.00781 0.00977 0.00781 0.00781 0.00977 0.00781 0.00781 0.00977 0.00781 0.00781 0.00977 0.00781 0.00781 0.00977 0.00781 0.00977 0.00781 0.00781 0.00977 0.00781 0.00781 0.00977 0.00781 0.00977 0.00781 0.00977 0.00781 0.00781 0.00977 0.00781 0.00977 0.00781 0.00977 0.00781 0.00977 c 0.3853493,0 0.6992187,-0.31566 0.6992187,-0.701172 0,-0.385439 -0.3138108,-0.699219 -0.6992187,-0.699219 z m 0,0.199219 h 4 c 0.2773314,0 0.5,0.22264 0.5,0.5 0,0.277288 -0.22275,0.5 -0.5,0.5 h -0.00977 -0.00781 -0.00977 -0.00781 -0.00977 -0.00781 -0.00977 -0.00781 -0.00781 -0.00977 -0.00781 -0.00977 -0.00781 -0.00977 -0.00781 -0.00781 -0.00977 -0.00781 -0.00781 -0.00977 -0.00781 -0.00977 -0.00781 -0.00781 -0.00977 -0.00781 -0.00781 -0.00977 -0.00781 -0.00781 -0.00977 -0.00781 -0.00781 -0.00977 -0.00781 -0.00781 -0.00781 -0.00977 -0.00781 -0.00781 -0.00977 -0.00781 -0.00781 -0.00781 -0.00977 -0.00781 -0.00781 -0.00781 -0.00977 -0.00781 -0.00781 -0.00781 -0.00781 -0.00977 -0.00781 -0.00781 -0.00781 -0.00781 -0.00977 -0.00781 -0.00781 -0.00781 -0.00781 -0.00781 -0.00977 -0.00781 -0.00781 -0.00781 -0.00781 -0.00781 -0.00781 -0.00977 -0.00781 -0.00781 -0.00781 -0.00781 -0.00781 -0.00781 -0.00781 -0.00977 -0.00781 -0.00781 -0.00781 -0.00781 -0.00781 -0.00781 -0.00781 -0.00781 H 6.5 h -0.00781 -0.00781 -0.00781 -0.00977 -0.00781 -0.00781 -0.00781 -0.00781 -0.00781 -0.00781 -0.00781 -0.00781 -0.00781 -0.00781 -0.00781 -0.00781 -0.00781 -0.00781 -0.00781 -0.00781 -0.00781 -0.00781 -0.00781 -0.00781 -0.00781 -0.00781 -0.00781 -0.00781 -0.00781 -0.00781 -0.00781 -0.00781 -0.00781 -0.00781 -0.00586 -0.00781 -0.00781 -0.00781 -0.00781 -0.00781 -0.00781 -0.00781 -0.00781 -0.00781 -0.00781 -0.00781 -0.00781 -0.00781 -0.00781 -0.00586 -0.00781 -0.00781 -0.00781 -0.00781 -0.00781 -0.00781 -0.00781 -0.00781 -0.00781 -0.00586 -0.00781 -0.00781 -0.00781 -0.00781 -0.00781 -0.00781 -0.00781 -0.00586 -0.00781 -0.00781 -0.00781 -0.00781 -0.00781 -0.00781 -0.00586 -0.00781 -0.00781 -0.00781 -0.00781 -0.00781 -0.00781 -0.00586 -0.00781 -0.00781 -0.00781 -0.00781 -0.00781 -0.00586 -0.00781 -0.00781 -0.00781 -0.00781 -0.00781 -0.00586 -0.00781 -0.00781 -0.00781 -0.00781 -0.00586 -0.00781 -0.00781 -0.00781 -0.00781 -0.00586 -0.00781 -0.00781 -0.00781 -0.00781 -0.00586 -0.00781 -0.00781 -0.00781 -0.00781 -0.00586 -0.00781 -0.00781 -0.00781 -0.00781 -0.00586 -0.00781 -0.00781 -0.00781 -0.00586 -0.00781 -0.00781 -0.00781 -0.00781 -0.00586 -0.00781 -0.00781 -0.00781 -0.00586 -0.00781 -0.00781 -0.00781 -0.00781 -0.00586 -0.00781 -0.00781 -0.00781 -0.00586 -0.00781 -0.00781 -0.00781 -0.00586 -0.00781 -0.00781 -0.00781 -0.00781 -0.00586 -0.00781 -0.00781 -0.00781 -0.00586 -0.00781 -0.00781 -0.00781 -0.00586 -0.00781 -0.00781 -0.00781 -0.00586 -0.00781 -0.00781 -0.00781 -0.00781 -0.00586 -0.00781 -0.00781 -0.00781 -0.00586 -0.00781 -0.00781 -0.00781 -0.00586 -0.00781 -0.00781 -0.00781 -0.00586 -0.00781 -0.00781 -0.00781 -0.00586 -0.00781 -0.00781 -0.00781 -0.00781 -0.00586 -0.00781 -0.00781 -0.00781 -0.00586 -0.00781 -0.00781 -0.00781 -0.00586 -0.00781 -0.00781 -0.00781 -0.00781 -0.00586 -0.00781 -0.00781 -0.00781 -0.00586 -0.00781 -0.00781 -0.00781 -0.00586 -0.00781 -0.00781 -0.00781 -0.00781 -0.00586 -0.00781 -0.00781 -0.00781 -0.00781 -0.00586 -0.00781 -0.00781 -0.00781 -0.00586 -0.00781 -0.00781 -0.00781 -0.00781 -0.00586 -0.00781 -0.00781 -0.00781 -0.00781 -0.00781 -0.00586 -0.00781 -0.00781 -0.00781 -0.00781 -0.00586 -0.00781 -0.00781 -0.00781 -0.00781 -0.00586 -0.00781 -0.00781 -0.00781 -0.00781 -0.00781 -0.00586 -0.00781 -0.00781 -0.00781 -0.00781 -0.00781 -0.00781 -0.00586 -0.00781 -0.00781 -0.00781 -0.00781 -0.00781 -0.00781 -0.00586 -0.00781 -0.00781 -0.00781 -0.00781 -0.00781 -0.00781 -0.00586 -0.00781 -0.00781 -0.00781 -0.00781 -0.00781 -0.00781 -0.00781 -0.00781 -0.00586 -0.00781 -0.00781 -0.00781 -0.00781 -0.00781 -0.00781 -0.00781 -0.00781 -0.00781 -0.00781 -0.00781 -0.00586 -0.00781 -0.00781 -0.00781 -0.00781 -0.00781 -0.00781 -0.00781 -0.00781 -0.00781 -0.00781 -0.00781 -0.00781 -0.00781 -0.00781 -0.00781 -0.00781 -0.00781 -0.00781 -0.00781 -0.00781 -0.00781 -0.00781 -0.00781 -0.00781 -0.00781 -0.00781 -0.00781 -0.00781 -0.00781 -0.00781 -0.00781 -0.00781 -0.00781 -0.00781 -0.00781 -0.00781 -0.00781 -0.00781 -0.00781 -0.00781 -0.00781 -0.00781 -0.00781 -0.00781 -0.00781 -0.00977 -0.00781 -0.00781 -0.00781 -0.00781 -0.00781 -0.00781 -0.00781 -0.00781 -0.00781 -0.00977 -0.00781 -0.00781 -0.00781 -0.00781 -0.00781 -0.00781 -0.00781 -0.00977 -0.00781 -0.00781 -0.00781 -0.00781 -0.00781 -0.00977 -0.00781 -0.00781 -0.00781 -0.00781 -0.00977 -0.00781 -0.00781 -0.00781 -0.00781 -0.00977 -0.00781 -0.00781 -0.00781 -0.00977 -0.00781 -0.00781 -0.00781 -0.00781 -0.00977 -0.00781 -0.00781 -0.00977 -0.00781 -0.00781 -0.00781 -0.00977 -0.00781 -0.00781 -0.00977 -0.00781 -0.00781 -0.00977 -0.00781 -0.00781 -0.00977 -0.00781 -0.00781 -0.00977 -0.00781 -0.00781 -0.00977 -0.00781 -0.00781 -0.00977 -0.00781 -0.00977 -0.00781 -0.00781 -0.00977 -0.00781 -0.00977 -0.00781 -0.00781 -0.00977 -0.00781 -0.00977 -0.00781 -0.00977 -0.00781 -0.00977 -0.00781 c -0.27725,0 -0.5,-0.222712 -0.5,-0.5 0,-0.27736 0.2226685,-0.5 0.5,-0.5 z"
       id="path350" />
  </g>
</svg>
