<?xml version="1.0" encoding="UTF-8" standalone="no"?>
<svg
   width="12"
   height="12"
   viewBox="0 0 12 12"
   fill="none"
   version="1.1"
   id="svg6"
   sodipodi:docname="table-loc.svg"
   inkscape:version="1.2.2 (732a01da63, 2022-12-09)"
   xmlns:inkscape="http://www.inkscape.org/namespaces/inkscape"
   xmlns:sodipodi="http://sodipodi.sourceforge.net/DTD/sodipodi-0.dtd"
   xmlns="http://www.w3.org/2000/svg"
   xmlns:svg="http://www.w3.org/2000/svg">
  <defs
     id="defs10" />
  <sodipodi:namedview
     id="namedview8"
     pagecolor="#ffffff"
     bordercolor="#000000"
     borderopacity="0.25"
     inkscape:showpageshadow="2"
     inkscape:pageopacity="0.0"
     inkscape:pagecheckerboard="0"
     inkscape:deskcolor="#d1d1d1"
     showgrid="false"
     inkscape:zoom="68.833333"
     inkscape:cx="6.0072639"
     inkscape:cy="6.0072639"
     inkscape:window-width="1920"
     inkscape:window-height="1013"
     inkscape:window-x="-9"
     inkscape:window-y="-9"
     inkscape:window-maximized="1"
     inkscape:current-layer="svg6" />
  <g
     id="path2">
    <path
       style="color:#000000;fill:#000000;stroke-width:0.2;-inkscape-stroke:none"
       d="m 2.0912833,10.866361 v -0.0221 -0.0221 -0.0221 -0.022 -0.022 -0.0219 -0.0219 -0.0219 -0.0219 -0.0218 -0.0218 -0.0217 -0.0218 -0.0217 -0.0216 -0.0217 -0.0216 -0.0215 -0.0216 -0.0215 -0.0214 -0.0215 -0.0214 -0.0214 -0.0214 -0.0213 -0.0213 -0.0212 -0.0213 -0.0212 -0.0212 -0.0211 -0.0211 -0.0211 -0.0211 -0.021 -0.021 -0.021 -0.0209 -0.021 -0.0209 -0.0208 -0.0209 -0.02076 -0.02078 -0.02075 -0.02073 -0.0207 -0.02067 -0.02064 -0.02062 -0.02059 -0.02057 -0.02054 -0.02051 -0.02048 -0.02046 -0.02044 -0.0204 -0.02039 -0.02035 -0.02034 -0.0203 -0.02028 -0.02026 -0.02023 -0.02021 -0.02018 -0.02016 -0.02013 -0.02011 -0.02009 -0.02006 -0.02004 -0.02001 -0.01999 -0.01997 -0.01994 -0.01992 -0.0199 -0.01988 -0.01985 -0.01983 -0.01981 -0.01978 -0.01976 -0.01974 -0.01972 -0.0197 -0.01967 -0.01966 -0.01963 -0.01961 -0.01959 -0.01957 -0.01954 -0.01953 -0.01951 -0.01948 -0.01947 -0.01944 -0.01943 -0.0194 -0.01938 -0.01937 -0.01934 -0.01933 -0.01931 -0.01928 -0.01927 -0.01925 -0.01923 -0.01921 -0.0192 -0.01917 -0.01916 -0.01913 -0.01912 -0.01911 -0.01908 -0.01907 -0.01905 -0.01903 -0.01901 -0.019 -0.01898 -0.01896 -0.01895 -0.01893 -0.01891 -0.0189 -0.01888 -0.01886 -0.01885 -0.01883 -0.01882 -0.0188 -0.01879 -0.01877 -0.01875 -0.01874 -0.01873 -0.01871 -0.0187 -0.01868 -0.01866 -0.01866 -0.01864 -0.01862 -0.01861 -0.0186 -0.01858 -0.01857 -0.01856 -0.01854 -0.01853 -0.01851 -0.01851 -0.01849 -0.01848 -0.01846 -0.01846 -0.01844 -0.01843 -0.01842 -0.0184 -0.0184 -0.01838 -0.01837 -0.01836 -0.01835 -0.01833 -0.01833 -0.01832 -0.0183 -0.0183 -0.01828 -0.01827 -0.01827 -0.01825 -0.01824 -0.01824 -0.01822 -0.01822 -0.0182 -0.0182 -0.01819 -0.01817 -0.01817 -0.01817 -0.01815 -0.01814 -0.01814 -0.01812 -0.01812 -0.01811 -0.01811 -0.01809 -0.01809 -0.01808 -0.01808 -0.01806 -0.01806 -0.01805 -0.01805 -0.01804 -0.01803 -0.01803 -0.01802 -0.01801 -0.01801 -0.018 -0.018 -0.01799 -0.01798 -0.01798 -0.01798 -0.01797 -0.01796 -0.01796 -0.01796 -0.01795 -0.01794 -0.01795 -0.01793 -0.01794 -0.01793 -0.01792 -0.01793 -0.01791 -0.01792 -0.01791 -0.01791 -0.01791 -0.0179 -0.0179 -0.0179 -0.0179 -0.01789 -0.01789 -0.01789 -0.01789 -0.01788 -0.01789 -0.01788 -0.01788 -0.01788 -0.01787 -0.01788 -0.01788 -0.01787 -0.01788 -0.01787 -0.01788 -0.01787 -0.01787 -0.01788 -0.01787 -0.01787 -0.01788 -0.01787 -0.01788 -0.01787 -0.01788 -0.01788 -0.01788 -0.01788 -0.01788 -0.01788 -0.01789 -0.01789 -0.01788 -0.0179 -0.01789 -0.01789 -0.0179 -0.0179 -0.01791 -0.0179 -0.01791 -0.01791 -0.01792 -0.01792 -0.01792 -0.01793 -0.01793 -0.01793 -0.01794 -0.01794 -0.01795 -0.01795 -0.01795 -0.01796 -0.01797 -0.01797 -0.01797 -0.01798 -0.01799 -0.01799 -0.01799 -0.01801 -0.018 -0.01802 -0.01802 -0.01802 -0.01804 -0.01804 -0.01804 -0.01805 -0.01806 -0.01807 -0.01807 -0.01808 -0.01809 -0.0181 -0.0181 -0.01811 -0.01812 -0.01813 -0.01813 -0.01815 -0.01815 -0.01816 -0.01817 -0.01818 -0.01819 -0.01819 -0.01821 -0.01821 -0.01823 -0.01823 -0.01824 -0.01826 -0.01826 -0.01828 -0.01828 -0.01829 -0.01831 -0.01831 -0.01833 -0.01834 -0.01835 -0.01836 -0.01837 -0.01838 -0.01839 -0.01841 -0.01842 -0.01843 -0.01844 -0.01845 -0.01847 -0.01848 -0.01849 -0.0185 -0.01852 -0.01853 -0.01854 -0.01856 -0.01857 -0.01858 -0.01859 -0.01862 -0.01862 -0.01864 -0.01865 -0.01867 -0.01868 -0.01869 -0.01871 -0.01873 -0.01874 -0.01876 -0.01877 -0.01878 -0.0188 -0.01882 -0.01883 -0.01885 -0.01887 -0.01888 -0.01889 -0.01892 -0.01893 -0.01894 -0.01897 -0.01898 -0.01899 -0.01902 -0.01903 -0.01905 -0.01906 -0.01909 -0.0191 -0.01912 -0.01914 -0.01915 -0.01918 -0.01919 -0.01921 -0.01923 -0.01925 -0.01927 -0.01929 -0.0193 -0.01933 -0.01935 -0.01936 -0.01939 -0.0194 -0.01942 -0.01945 -0.01946 -0.01949 -0.01951 -0.01952 -0.01955 -0.01957 -0.01959 -0.01961 -0.01963 -0.01965 -0.01968 -0.01969 -0.01972 -0.01974 -0.01977 -0.01978 -0.01981 -0.01983 -0.01985 -0.01987 -0.0199 -0.01992 -0.01995 -0.01996 -0.01999 -0.02002 -0.02004 -0.02006 -0.02008 -0.02011 -0.02014 -0.02015 -0.02019 -0.0202 -0.02023 -0.02026 -0.02028 -0.02031 -0.02033 -0.02036 -0.02038 -0.02041 -0.02043 -0.02046 -0.02049 -0.02051 -0.02054 -0.02056 -0.02059 -0.02062 -0.02065 -0.02067 -0.0207 -0.02072 -0.02075 -0.02078 -0.02081 -0.02084 -0.02086 -0.02089 -0.02092 -0.02095 -0.02098 -0.021 -0.02103 -0.02106 -0.02109 -0.02112 -0.02115 -0.02118 -0.02121 -0.02123 -0.02127 -0.0213 -0.02132 -0.02136 -0.02139 -0.02141 -0.02145 -0.02148 -0.0215 -0.02154 -0.02157 -0.0216 -0.02164 -0.02166 -0.02169 -0.02173 -0.02176 -0.02179 -0.02182 -0.02186 -0.02188 -0.02192 -0.02195 -0.02199 -0.02201 -0.02205 -0.02208 -0.02212 c 0,-0.331109 0.26837,-0.601002 0.6,-0.601002 0.33137,0 0.6,0.268628 0.6,0.600002 v 9.88 c 0,0.3314 -0.26863,0.6 -0.6,0.6 -0.33163,0 -0.6,-0.2699 -0.6,-0.601 z"
       id="path391" />
    <path
       style="color:#000000;fill:#000000;-inkscape-stroke:none"
       d="m 2.6914063,0.28710938 c -0.3858855,-1e-8 -0.6992188,0.31602868 -0.6992188,0.70117187 v 0.0214843 0.023437 0.021484 0.021484 0.021484 0.023437 0.021484 0.021484 0.021484 0.023437 0.021484 0.021484 0.021484 0.021484 0.021484 0.021484 0.021484 0.021484 0.021484 0.021484 0.021484 0.021484 0.021484 0.021484 0.021484 0.021484 0.021484 0.021484 0.021484 0.021484 0.019531 0.021484 0.021484 0.021484 0.021484 0.019531 0.021484 0.021484 0.021484 0.019531 0.021484 0.021484 0.019531 0.021484 0.021484 0.019531 0.021484 0.021484 0.019531 0.021484 0.019531 0.021484 0.019531 0.021484 0.019531 0.021484 0.019531 0.021484 0.019531 0.021484 0.019531 0.021484 0.019531 0.019531 0.021484 0.019531 0.019531 0.021484 0.019531 0.019531 0.021484 0.019531 0.019531 0.019531 0.021484 0.019531 0.019531 0.019531 0.021484 0.019531 0.019531 0.019531 0.019531 0.019531 0.021484 0.019531 0.019531 0.019531 0.019531 0.019531 0.019531 0.019531 0.019531 0.019531 0.019531 0.019531 0.019531 0.019531 0.019531 0.019531 0.019531 0.019531 0.019531 0.019531 0.019531 0.019531 0.019531 0.017578 0.019531 0.019531 0.019531 0.019531 0.019531 0.019531 0.017578 0.019531 0.019531 0.019531 0.019531 0.017578 0.019531 0.019531 V 3.5 v 0.017578 0.019531 0.019531 0.019531 0.017578 0.019531 0.019531 0.017578 0.019531 0.019531 0.017578 0.019531 0.019531 0.017578 0.019531 0.017578 0.019531 0.019531 0.017578 0.019531 0.017578 0.019531 0.017578 0.019531 0.019531 0.017578 0.019531 0.017578 0.019531 0.017578 0.019531 0.017578 0.019531 0.017578 0.019531 0.017578 0.017578 0.019531 0.017578 0.019531 0.017578 0.019531 0.017578 0.019531 0.017578 0.017578 0.019531 0.017578 0.019531 0.017578 0.017578 0.019531 0.017578 0.017578 0.019531 0.017578 0.017578 0.019531 0.017578 0.017578 0.019531 0.017578 0.017578 0.019531 0.017578 0.017578 0.019531 0.017578 0.017578 0.019531 0.017578 0.017578 0.017578 0.019531 0.017578 0.017578 0.017578 0.019531 0.017578 0.017578 0.017578 0.019531 0.017578 0.017578 0.017578 0.019531 0.017578 0.017578 0.017578 0.017578 0.019531 0.017578 0.017578 0.017578 0.017578 0.019531 0.017578 0.017578 0.017578 0.017578 0.019531 0.017578 0.017578 0.017578 0.017578 0.019531 0.017578 0.017578 0.017578 0.017578 0.017578 0.019531 0.017578 0.017578 0.017578 0.017578 0.017578 0.019531 0.017578 0.017578 0.017578 0.017578 0.017578 0.017578 0.019531 0.017578 0.017578 0.017578 0.017578 0.017578 0.019531 0.017578 0.017578 0.017578 0.017578 0.017578 0.017578 0.019531 0.017578 0.017578 0.017578 0.017578 0.017578 0.017578 0.019531 0.017578 0.017578 0.017578 0.017578 0.017578 0.019531 0.017578 0.017578 0.017578 0.017578 0.017578 0.019531 0.017578 0.017578 0.017578 0.017578 0.017578 0.019531 0.017578 V 6.5 v 0.017578 0.017578 0.019531 0.017578 0.017578 0.017578 0.017578 0.019531 0.017578 0.017578 0.017578 0.017578 0.019531 0.017578 0.017578 0.017578 0.019531 0.017578 0.017578 0.017578 0.017578 0.019531 0.017578 0.017578 0.017578 0.019531 0.017578 0.017578 0.019531 0.017578 0.017578 0.017578 0.019531 0.017578 0.017578 0.019531 0.017578 0.017578 0.019531 0.017578 0.017578 0.017578 0.019531 0.017578 0.019531 0.017578 0.017578 0.019531 0.017578 0.017578 0.019531 0.017578 0.017578 0.019531 0.017578 0.019531 0.017578 0.017578 0.019531 0.017578 0.019531 0.017578 0.019531 0.017578 0.019531 0.017578 0.019531 0.017578 0.017578 0.019531 0.017578 0.019531 0.019531 0.017578 0.019531 0.017578 0.019531 0.017578 0.019531 0.017578 0.019531 0.017578 0.019531 0.019531 0.017578 0.019531 0.017578 0.019531 0.019531 0.017578 0.019531 0.019531 0.017578 0.019531 0.019531 0.017578 0.019531 0.019531 0.019531 0.017578 0.019531 0.019531 0.017578 0.019531 0.019531 0.019531 0.019531 0.017578 0.019531 0.019531 0.019531 0.019531 0.019531 0.017578 0.019531 0.019531 0.019531 0.019531 0.019531 0.019531 0.019531 0.019531 0.019531 0.017578 0.019531 0.019531 0.019531 0.019531 0.019531 0.019531 0.019531 0.021484 0.019531 0.019531 0.019531 0.019531 0.019531 0.019531 0.019531 0.019531 0.019531 0.021484 0.019531 0.019531 0.019531 0.019531 0.019531 0.021484 0.019531 0.019531 0.019531 0.021484 0.019531 0.019531 0.021484 0.019531 0.019531 0.021484 0.019531 0.019531 0.021484 0.019531 0.021484 0.019531 0.019531 0.021484 0.019531 0.021484 0.019531 0.021484 0.019531 0.021484 0.019531 0.021484 0.019531 0.021484 0.021484 0.019531 0.021484 0.021484 0.019531 0.021484 0.021484 0.019531 0.02149 0.02148 0.01953 0.02149 0.02148 0.02149 0.02148 0.01953 0.02149 0.02148 0.02148 0.02149 0.02148 0.02148 0.01953 0.02148 0.02148 0.02149 0.02148 0.02149 0.02148 0.02148 0.02149 0.02148 0.02148 0.02344 0.02148 0.02149 0.02148 0.02148 0.02149 0.02148 0.02344 0.02148 0.02148 0.02149 0.02344 0.02149 0.02148 0.02344 c 0,0.385135 0.3133319,0.699218 0.6992188,0.699218 0.3854079,0 0.6992187,-0.313779 0.6992187,-0.699218 V 0.98828125 c 0,-0.38541728 -0.3138052,-0.70117187 -0.6992187,-0.70117187 z m 0,0.20117187 c 0.2773258,0 0.5,0.22266995 0.5,0.5 V 10.867188 c 0,0.27736 -0.2226686,0.499999 -0.5,0.5 -0.2773725,0 -0.5,-0.222937 -0.5,-0.5 v -0.02344 -0.02148 -0.02149 -0.02344 -0.02149 -0.02148 -0.02148 -0.02344 -0.02148 -0.02149 -0.02148 -0.02148 -0.02149 -0.02148 -0.02344 -0.02148 -0.02148 -0.02149 -0.02148 -0.02148 -0.02149 -0.02148 -0.02149 -0.02148 -0.02148 -0.01953 -0.02148 -0.02148 -0.02149 -0.02148 -0.02148 -0.02149 -0.01953 -0.02148 -0.02149 -0.02148 -0.02149 -0.01953 -0.02148 -0.02149 V 9.9863281 9.9648438 9.9433594 9.9238281 9.9023438 9.8808594 9.8613281 9.8398438 9.8183594 9.7988281 9.7773438 9.7578125 9.7363281 9.7167969 9.6953125 9.6757813 9.6542969 9.6347656 9.6132813 9.59375 9.5742188 9.5527344 9.5332031 9.5117188 9.4921875 9.4726563 9.4511719 9.4316406 9.4121094 9.390625 9.3710938 9.3515625 9.3300781 9.3105469 9.2910156 9.2714844 9.25 9.2304688 9.2109375 9.1914063 9.171875 9.1523438 9.1308594 9.1113281 9.0917969 9.0722656 9.0527344 9.0332031 9.0136719 8.9941406 8.9746094 8.9550781 8.9335938 8.9140625 8.8945313 8.875 8.8554688 8.8359375 8.8164063 8.796875 8.7792969 8.7597656 8.7402344 8.7207031 8.7011719 8.6816406 8.6621094 8.6425781 8.6230469 8.6035156 8.5859375 8.5664063 8.546875 8.5273438 8.5078125 8.4882813 8.4707031 8.4511719 8.4316406 8.4121094 8.3925781 8.375 8.3554688 8.3359375 8.3183594 8.2988281 8.2792969 8.2597656 8.2421875 8.2226563 8.203125 8.1855469 8.1660156 8.1464844 8.1289063 8.109375 8.0898438 8.0722656 8.0527344 8.0351563 8.015625 7.9960937 7.9785156 7.9589844 7.9414062 7.921875 7.9042969 7.8847656 7.8671875 7.8476562 7.8300781 7.8105469 7.7910156 7.7734375 7.7539062 7.7363281 7.71875 7.6992187 7.6816406 7.6621094 7.6445312 7.625 7.6074219 7.5878906 7.5703125 7.5507812 7.5332031 7.515625 7.4960937 7.4785156 7.4589844 7.4414062 7.4238281 7.4042969 7.3867187 7.3691406 7.3496094 7.3320312 7.3144531 7.2949219 7.2773437 7.2578125 7.2402344 7.2226562 7.2050781 7.1855469 7.1679687 7.1503906 7.1308594 7.1132812 7.0957031 7.0761719 7.0585937 7.0410156 7.0234375 7.0039062 6.9863281 6.96875 6.9492187 6.9316406 6.9140625 6.8964844 6.8769531 6.859375 6.8417969 6.8242187 6.8066406 6.7871094 6.7695312 6.7519531 6.734375 6.7148437 6.6972656 6.6796875 6.6621094 6.6445312 6.625 6.6074219 6.5898437 6.5722656 6.5546875 6.5351562 6.5175781 6.5 6.4824219 6.4648437 6.4453125 6.4277344 6.4101562 6.3925781 6.375 6.3574219 6.3378906 6.3203125 6.3027344 6.2851562 6.2675781 6.25 6.2304687 6.2128906 6.1953125 6.1777344 6.1601562 6.1425781 6.1230469 6.1054687 6.0878906 6.0703125 6.0527344 6.0351562 6.0175781 5.9980469 5.9804687 5.9628906 5.9453125 5.9277344 5.9101562 5.8925781 5.8730469 5.8554687 5.8378906 5.8203125 5.8027344 5.7851562 5.765625 5.7480469 5.7304687 5.7128906 5.6953125 5.6777344 5.6601562 5.640625 5.6230469 5.6054687 5.5878906 5.5703125 5.5527344 5.5332031 5.515625 5.4980469 5.4804687 5.4628906 5.4453125 5.4257812 5.4082031 5.390625 5.3730469 5.3554687 5.3359375 5.3183594 5.3007812 5.2832031 5.265625 5.2460937 5.2285156 5.2109375 5.1933594 5.1757812 5.15625 5.1386719 5.1210937 5.1035156 5.0859375 5.0664062 5.0488281 5.03125 5.0136719 4.9941406 4.9765625 4.9589844 4.9414062 4.921875 4.9042969 4.8867187 4.8691406 4.8496094 4.8320312 4.8144531 4.796875 4.7773437 4.7597656 4.7421875 4.7226562 4.7050781 4.6875 4.6679687 4.6503906 4.6328125 4.6132812 4.5957031 4.578125 4.5585937 4.5410156 4.5234375 4.5039062 4.4863281 4.46875 4.4492187 4.4316406 4.4140625 4.3945312 4.3769531 4.3574219 4.3398437 4.3222656 4.3027344 4.2851562 4.265625 4.2480469 4.2285156 4.2109375 4.1914062 4.1738281 4.15625 4.1367187 4.1191406 4.0996094 4.0820312 4.0625 4.0449219 4.0253906 4.0078125 3.9882813 3.9707031 3.9511719 3.9316406 3.9140625 3.8945313 3.8769531 3.8574219 3.8398438 3.8203125 3.8007813 3.7832031 3.7636719 3.7460938 3.7265625 3.7070313 3.6894531 3.6699219 3.6503906 3.6328125 3.6132813 3.59375 3.5761719 3.5566406 3.5371094 3.5175781 3.5 3.4804688 3.4609375 3.4414063 3.4238281 3.4042969 3.3847656 3.3652344 3.3457031 3.328125 3.3085938 3.2890625 3.2695313 3.25 3.2304688 3.2109375 3.1933594 3.1738281 3.1542969 3.1347656 3.1152344 3.0957031 3.0761719 3.0566406 3.0371094 3.0175781 2.9980469 2.9785156 2.9589844 2.9394531 2.9199219 2.9003906 2.8808594 2.8613281 2.8417969 2.8222656 2.8027344 2.7832031 2.7636719 2.7421875 2.7226563 2.703125 2.6835938 2.6640625 2.6445313 2.6230469 2.6035156 2.5839844 2.5644531 2.5429688 2.5234375 2.5039063 2.484375 2.4628906 2.4433594 2.4238281 2.4023438 2.3828125 2.3632813 2.3417969 2.3222656 2.3027344 2.28125 2.2617188 2.2402344 2.2207031 2.1992188 2.1796875 2.1582031 2.1386719 2.1171875 2.0976563 2.0761719 2.0566406 2.0351563 2.015625 1.9941406 1.9726562 1.953125 1.9316406 1.9101562 1.890625 1.8691406 1.8476562 1.828125 1.8066406 1.7851562 1.7636719 1.7441406 1.7226562 1.7011719 1.6796875 1.6582031 1.6386719 1.6171875 1.5957031 1.5742187 1.5527344 1.53125 1.5097656 1.4882812 1.4667969 1.4453125 1.4238281 1.4023437 1.3808594 1.359375 1.3378906 1.3164062 1.2949219 1.2734375 1.2519531 1.2304687 1.2089844 1.1855469 1.1640625 1.1425781 1.1210937 1.0976562 1.0761719 1.0546875 1.0332031 1.0097656 0.98828125 c 0,-0.27707415 0.2226261,-0.5 0.5,-0.5 z"
       id="path393" />
  </g>
  <g
     id="path4">
    <path
       style="color:#000000;fill:#000000;stroke-width:0.2;-inkscape-stroke:none"
       d="m 7.6474098,6.6 h -0.00874 -0.00872 -0.00872 -0.00871 -0.00869 -0.00869 -0.00867 -0.00867 -0.00865 -0.00864 -0.00863 -0.00862 -0.00862 -0.0086 -0.00859 -0.00858 -0.00857 -0.00856 -0.00854 -0.00854 -0.00853 -0.00852 -0.00851 -0.0085 -0.00849 -0.00848 -0.00847 -0.00846 -0.00845 -0.00844 -0.00843 -0.00842 -0.00841 -0.00841 -0.00839 -0.00838 -0.00837 -0.00837 -0.00835 -0.00835 -0.00834 -0.00832 -0.00832 -0.00831 -0.0083 -0.00829 -0.00828 -0.00828 -0.00826 -0.00826 -0.00824 -0.00824 -0.00823 -0.00822 -0.00821 -0.00821 -0.00819 -0.00819 -0.00818 -0.00817 -0.00816 -0.00815 -0.00814 -0.00814 -0.00813 -0.00812 -0.00811 -0.0081 -0.0081 -0.00809 -0.00808 -0.00807 -0.00806 -0.00806 -0.00805 -0.00804 -0.00803 -0.00802 -0.00802 -0.00801 -0.00801 -0.00799 -0.00799 -0.00798 -0.00797 -0.00797 -0.00796 -0.00795 -0.00794 -0.00794 -0.00793 -0.00792 -0.00792 -0.0079 -0.00791 -0.00789 -0.00789 -0.00788 -0.00788 -0.00786 -0.00786 -0.00786 -0.00785 -0.00784 -0.00783 -0.00783 -0.00782 -0.00782 -0.00781 -0.0078 -0.0078 -0.00779 -0.00779 -0.00777 -0.00778 -0.00776 -0.00776 -0.00776 -0.00775 -0.00774 -0.00774 -0.00773 -0.00772 -0.00772 -0.00772 -0.00771 -0.0077 -0.0077 -0.00769 -0.00768 -0.00769 -0.00767 -0.00767 -0.00767 -0.00766 -0.00765 -0.00765 -0.00765 -0.00764 -0.00763 -0.00763 -0.00763 -0.00762 -0.00761 -0.00761 -0.00761 -0.0076 -0.00759 -0.0076 -0.00758 -0.00759 -0.00757 -0.00758 -0.00757 -0.00756 -0.00756 -0.00756 -0.00755 -0.00755 -0.00754 -0.00754 -0.00754 -0.00753 -0.00753 -0.00752 -0.00752 -0.00752 -0.00751 -0.00751 -0.0075 -0.0075 -0.0075 -0.00749 -0.00749 -0.00749 -0.00748 -0.00748 -0.00748 -0.00747 -0.00747 -0.00747 -0.00746 -0.00746 -0.00746 -0.00745 -0.00746 -0.00744 -0.00745 -0.00744 -0.00744 -0.00744 -0.00743 -0.00743 -0.00743 -0.00743 -0.00742 -0.00742 -0.00742 -0.00741 -0.00742 -0.00741 -0.0074 -0.00741 -0.0074 -0.00741 -0.0074 -0.00739 -0.0074 -0.00739 -0.00739 -0.00739 -0.00739 -0.00738 -0.00739 -0.00738 -0.00738 -0.00738 -0.00737 -0.00738 -0.00737 -0.00737 -0.00737 -0.00737 -0.00737 -0.00737 -0.00736 -0.00736 -0.00737 -0.00736 -0.00736 -0.00736 -0.00735 -0.00736 -0.00736 -0.00735 -0.00736 -0.00735 -0.00735 -0.00735 -0.00735 -0.00735 -0.00735 -0.00735 -0.00735 -0.00735 -0.00734 -0.00735 -0.00735 -0.00734 -0.00735 -0.00734 -0.00735 -0.00735 -0.00734 -0.00735 -0.00734 -0.00734 -0.00735 -0.00735 -0.00734 -0.00735 -0.00734 -0.00735 -0.00734 -0.00735 -0.00735 -0.00734 -0.00735 -0.00735 -0.00735 -0.00735 -0.00735 -0.00735 -0.00735 -0.00735 -0.00736 -0.00735 -0.00735 -0.00736 -0.00736 -0.00735 -0.00736 -0.00736 -0.00736 -0.00737 -0.00736 -0.00736 -0.00737 -0.00737 -0.00737 -0.00737 -0.00737 -0.00737 -0.00738 -0.00737 -0.00738 -0.00738 -0.00738 -0.00739 -0.00738 -0.00739 -0.00739 -0.00739 -0.00739 -0.0074 -0.00739 -0.0074 -0.00741 -0.0074 -0.00741 -0.0074 -0.00741 -0.00742 -0.00741 -0.00742 -0.00742 -0.00742 -0.00743 -0.00743 -0.00743 -0.00743 -0.00744 -0.00744 -0.00744 -0.00745 -0.00744 -0.00746 -0.00745 -0.00746 -0.00746 -0.00746 -0.00747 -0.00747 -0.00747 -0.00748 -0.00748 -0.00748 -0.00749 -0.00749 -0.00749 -0.0075 -0.0075 -0.0075 -0.00751 -0.00751 -0.00752 -0.00752 -0.00752 -0.00753 -0.00753 -0.00754 -0.00754 -0.00754 -0.00755 -0.00755 -0.00756 -0.00756 -0.00756 -0.00757 -0.00758 -0.00757 -0.00759 -0.00758 -0.0076 -0.00759 -0.0076 -0.00761 -0.00761 -0.00761 -0.00762 -0.00763 -0.00763 -0.00763 -0.00764 -0.00765 -0.00765 -0.00765 -0.00766 -0.00767 -0.00767 -0.00767 -0.00769 -0.00768 -0.00769 -0.0077 -0.0077 -0.00771 -0.00772 -0.00772 -0.00772 -0.00773 -0.00774 -0.00774 -0.00775 -0.00776 -0.00776 -0.00776 -0.00778 -0.00777 -0.00779 -0.00779 -0.0078 -0.0078 -0.00781 -0.00782 -0.00782 -0.00783 -0.00783 -0.00784 -0.00785 -0.00786 -0.00786 -0.00786 -0.00788 -0.00788 -0.00789 -0.00789 -0.00791 -0.0079 -0.00792 -0.00792 -0.00793 -0.00794 -0.00794 -0.00795 -0.00796 -0.00797 -0.00797 -0.00798 -0.00799 -0.00799 -0.00801 -0.00801 -0.00802 -0.00802 -0.00803 -0.00804 -0.00805 -0.00806 -0.00806 -0.00807 -0.00808 -0.00809 -0.0081 -0.0081 -0.00811 -0.00812 -0.00813 -0.00814 -0.00814 -0.00815 -0.00816 -0.00817 -0.00818 -0.00819 -0.00819 -0.00821 -0.00821 -0.00822 -0.00823 -0.00824 -0.00824 -0.00826 -0.00826 -0.00828 -0.00828 -0.00829 -0.0083 -0.00831 -0.00832 -0.00832 -0.00834 -0.00835 -0.00835 -0.00837 -0.00837 -0.00838 -0.0084 -0.0084 -0.00841 -0.00842 -0.00843 -0.00844 -0.00845 -0.00846 -0.00847 -0.00848 -0.00849 -0.0085 -0.00851 -0.00852 -0.00853 -0.00854 -0.00854 -0.00856 -0.00857 -0.00858 -0.00859 -0.0086 -0.00862 -0.00862 -0.00863 -0.00864 -0.00865 -0.00867 -0.00867 -0.00869 -0.00869 -0.00871 -0.00872 -0.00872 -0.00874 c -0.3313,0 -0.60029,-0.26855 -0.60029,-0.6 0,-0.33137 0.26863,-0.6 0.6,-0.6 h 4 c 0.33137,0 0.6,0.26863 0.6,0.6 0,0.33145 -0.26899,0.6 -0.60029,0.6 z"
       id="path397" />
    <path
       style="color:#000000;fill:#000000;-inkscape-stroke:none"
       d="M 3.6484375,5.3007812 C 3.2630236,5.3007812 2.9472656,5.6145861 2.9472656,6 c 0,0.3855533 0.3158326,0.6992187 0.7011719,0.6992187 h 0.00781 0.00977 0.00781 0.00977 0.00781 0.00977 0.00781 0.00781 0.00977 0.00781 0.00977 0.00781 0.00977 0.00781 0.00781 0.00977 0.00781 0.00781 0.00977 0.00781 0.00977 0.00781 0.00781 0.00977 0.00781 0.00781 0.00977 0.00781 0.00781 0.00977 0.00781 0.00781 0.00977 0.00781 0.00781 0.00781 0.00977 0.00781 0.00781 0.00977 0.00781 0.00781 0.00781 0.00977 0.00781 0.00781 0.00781 0.00977 0.00781 0.00781 0.00781 0.00977 0.00781 0.00781 0.00781 0.00781 0.00977 0.00781 0.00781 0.00781 0.00781 0.00781 0.00977 0.00781 0.00781 0.00781 0.00781 0.00781 0.00977 0.00781 0.00781 0.00781 0.00781 0.00781 0.00781 0.00781 0.00977 0.00781 0.00781 0.00781 0.00781 0.00781 0.00781 0.00781 0.00781 0.00781 0.00781 0.00977 0.00781 0.00781 0.00781 0.00781 0.00781 0.00781 0.00781 0.00781 0.00781 0.00781 0.00781 0.00781 0.00781 0.00781 0.00781 0.00781 0.00781 0.00781 0.00781 0.00781 0.00781 0.00781 0.00781 0.00781 0.00781 0.00781 0.00781 0.00781 0.00781 0.00781 0.00781 0.00781 0.00781 0.00781 0.00781 0.00781 0.00781 0.00781 0.00781 0.00781 0.00781 0.00586 0.00781 0.00781 0.00781 0.00781 0.00781 0.00781 0.00781 0.00781 0.00781 0.00781 0.00781 0.00781 0.00586 0.00781 0.00781 0.00781 0.00781 0.00781 0.00781 0.00781 0.00781 0.00586 0.00781 0.00781 0.00781 0.00781 0.00781 0.00781 0.00781 0.00586 0.00781 0.00781 0.00781 0.00781 0.00781 0.00781 0.00586 0.00781 0.00781 0.00781 0.00781 0.00781 0.00586 0.00781 0.00781 0.00781 0.00781 0.00781 0.00586 0.00781 0.00781 0.00781 0.00781 0.00586 0.00781 0.00781 0.00781 0.00781 0.00781 0.00586 0.00781 0.00781 0.00781 0.00781 0.00586 0.00781 0.00781 0.00781 0.00781 0.00586 0.00781 0.00781 0.00781 0.00781 0.00586 0.00781 0.00781 0.00781 0.00586 0.00781 0.00781 0.00781 0.00781 0.00586 0.00781 0.00781 0.00781 0.00781 0.00586 0.00781 0.00781 0.00781 0.00586 0.00781 0.00781 0.00781 0.00586 0.00781 0.00781 0.00781 0.00781 0.00586 0.00781 0.00781 0.00781 0.00586 0.00781 0.00781 0.00781 0.00586 0.00781 0.00781 0.00781 0.00586 0.00781 0.00781 0.00781 0.00781 0.00586 0.00781 0.00781 0.00781 0.00586 0.00781 0.00781 0.00781 0.00586 0.00781 0.00781 0.00781 0.00586 0.00781 0.00781 0.00781 0.00586 0.00781 0.00781 0.00781 0.00781 0.00586 0.00781 0.00781 0.00781 0.00586 0.00781 0.00781 0.00781 0.00586 0.00781 0.00781 0.00781 0.00586 0.00781 0.00781 0.00781 0.00781 0.00586 0.00781 0.00781 0.00781 0.00586 0.00781 0.00781 0.00781 0.00586 0.00781 0.00781 0.00781 0.00781 0.00586 0.00781 0.00781 0.00781 0.00781 0.00586 0.00781 0.00781 0.00781 0.00586 0.00781 0.00781 0.00781 0.00781 0.00586 0.00781 0.00781 0.00781 0.00781 0.00586 0.00781 0.00781 0.00781 0.00781 0.00586 0.00781 0.00781 0.00781 0.00781 0.00781 0.00586 0.00781 0.00781 0.00781 0.00781 0.00781 0.00586 0.00781 0.00781 0.00781 0.00781 0.00781 0.00586 0.00781 0.00781 0.00781 0.00781 0.00781 0.00586 0.00781 0.00781 0.00781 0.00781 0.00781 0.00781 0.00586 0.00781 0.00781 0.00781 0.00781 0.00781 0.00781 0.00781 0.00586 0.00781 0.00781 0.00781 0.00781 0.00781 0.00781 0.00781 0.00781 0.00781 0.00586 0.00781 0.00781 0.00781 0.00781 0.00781 0.00781 0.00781 0.00781 0.00781 0.00781 0.00781 0.00781 0.00781 0.00586 0.00781 0.00781 0.00781 0.00781 0.00781 0.00781 0.00781 0.00781 0.00781 0.00781 0.00781 0.00781 0.00781 0.00781 0.00781 0.00781 0.00781 0.00781 0.00781 0.00781 0.00781 0.00781 0.00781 0.00781 0.00781 0.00781 0.00781 0.00781 0.00781 0.00781 0.00781 0.00781 0.00781 0.00781 0.00977 0.00781 0.00781 0.00781 0.00781 0.00781 0.00781 0.00781 0.00781 0.00781 0.00781 0.00781 0.00977 0.00781 0.00781 0.00781 0.00781 0.00781 0.00781 0.00781 0.00977 0.00781 0.00781 0.00781 0.00781 0.00781 0.00781 0.00977 0.00781 0.00781 0.00781 0.00781 0.00977 0.00781 0.00781 0.00781 0.00781 0.00977 0.00781 0.00781 0.00781 0.00781 0.00977 0.00781 0.00781 0.00781 0.00977 0.00781 0.00781 0.00781 0.00977 0.00781 0.00781 0.00781 0.00977 0.00781 0.00781 0.00977 0.00781 0.00781 0.00977 0.00781 0.00781 0.00977 0.00781 0.00781 0.00977 0.00781 0.00781 0.00977 0.00781 0.00781 0.00977 0.00781 0.00977 0.00781 0.00781 0.00977 0.00781 0.00977 0.00781 0.00781 0.00977 0.00781 0.00977 0.00781 0.00977 0.00781 0.00977 0.00781 0.00781 c 0.3853392,0 0.7011719,-0.3136654 0.7011719,-0.6992187 0,-0.3854139 -0.3138049,-0.6992188 -0.6992188,-0.6992188 z m 0,0.1992188 h 4 c 0.2773254,0 0.5,0.2226746 0.5,0.5 0,0.277346 -0.224693,0.5 -0.5019531,0.5 h -0.00781 -0.00781 -0.00977 -0.00781 -0.00977 -0.00781 -0.00977 -0.00781 -0.00977 -0.00781 -0.00781 -0.00977 -0.00781 -0.00977 -0.00781 -0.00781 H 7.5 h -0.00781 -0.00977 -0.00781 -0.00781 -0.00977 -0.00781 -0.00781 -0.00977 -0.00781 -0.00781 -0.00977 -0.00781 -0.00781 -0.00977 -0.00781 -0.00781 -0.00977 -0.00781 -0.00781 -0.00977 -0.00781 -0.00781 -0.00781 -0.00977 -0.00781 -0.00781 -0.00781 -0.00977 -0.00781 -0.00781 -0.00781 -0.00977 -0.00781 -0.00781 -0.00781 -0.00781 -0.00977 -0.00781 -0.00781 -0.00781 -0.00781 -0.00977 -0.00781 -0.00781 -0.00781 -0.00781 -0.00977 -0.00781 -0.00781 -0.00781 -0.00781 -0.00781 -0.00781 -0.00977 -0.00781 -0.00781 -0.00781 -0.00781 -0.00781 -0.00781 -0.00781 -0.00977 -0.00781 -0.00781 -0.00781 -0.00781 -0.00781 -0.00781 -0.00781 -0.00781 -0.00781 -0.00781 -0.00781 -0.00977 -0.00781 -0.00781 -0.00781 -0.00781 -0.00781 -0.00781 -0.00781 -0.00781 -0.00781 -0.00781 -0.00781 -0.00781 -0.00781 -0.00781 -0.00781 -0.00781 -0.00781 -0.00781 -0.00781 -0.00781 -0.00781 -0.00781 -0.00781 -0.00781 -0.00781 -0.00781 -0.00781 -0.00781 -0.00781 -0.00781 -0.00781 -0.00781 -0.00781 -0.00781 -0.00586 -0.00781 -0.00781 -0.00781 -0.00781 -0.00781 -0.00781 -0.00781 -0.00781 -0.00781 -0.00781 -0.00781 -0.00781 -0.00781 -0.00586 -0.00781 -0.00781 -0.00781 -0.00781 -0.00781 -0.00781 -0.00781 -0.00781 -0.00781 -0.00586 -0.00781 -0.00781 -0.00781 -0.00781 -0.00781 -0.00781 -0.00781 -0.00586 -0.00781 -0.00781 -0.00781 -0.00781 -0.00781 -0.00781 -0.00586 -0.00781 -0.00781 -0.00781 -0.00781 -0.00781 -0.00586 -0.00781 -0.00781 -0.00781 -0.00781 -0.00781 -0.00586 -0.00781 -0.00781 -0.00781 -0.00781 -0.00781 -0.00586 -0.00781 -0.00781 -0.00781 -0.00781 -0.00781 -0.00586 -0.00781 -0.00781 -0.00781 -0.00781 -0.00586 -0.00781 -0.00781 -0.00781 -0.00781 -0.00586 -0.00781 -0.00781 -0.00781 -0.00781 -0.00586 -0.00781 -0.00781 -0.00781 -0.00586 -0.00781 -0.00781 -0.00781 -0.00781 -0.00586 -0.00781 -0.00781 -0.00781 -0.00781 -0.00586 -0.00781 -0.00781 -0.00781 -0.00586 -0.00781 -0.00781 -0.00781 -0.00586 -0.00781 -0.00781 -0.00781 -0.00781 -0.00586 -0.00781 -0.00781 -0.00781 -0.00586 -0.00781 -0.00781 -0.00781 -0.00586 -0.00781 -0.00781 -0.00781 -0.00586 -0.00781 -0.00781 -0.00781 -0.00781 -0.00586 -0.00781 -0.00781 -0.00781 -0.00586 -0.00781 -0.00781 -0.00781 -0.00586 -0.00781 -0.00781 -0.00781 -0.00586 -0.00781 -0.00781 -0.00781 -0.00586 -0.00781 -0.00781 -0.00781 -0.00781 -0.00586 -0.00781 -0.00781 -0.00781 -0.00586 -0.00781 -0.00781 H 5.5 h -0.00586 -0.00781 -0.00781 -0.00781 -0.00586 -0.00781 -0.00781 -0.00781 -0.00781 -0.00586 -0.00781 -0.00781 -0.00781 -0.00586 -0.00781 -0.00781 -0.00781 -0.00586 -0.00781 -0.00781 -0.00781 -0.00781 -0.00586 -0.00781 -0.00781 -0.00781 -0.00781 -0.00586 -0.00781 -0.00781 -0.00781 -0.00586 -0.00781 -0.00781 -0.00781 -0.00781 -0.00586 -0.00781 -0.00781 -0.00781 -0.00781 -0.00586 -0.00781 -0.00781 -0.00781 -0.00781 -0.00586 -0.00781 -0.00781 -0.00781 -0.00781 -0.00781 -0.00586 -0.00781 -0.00781 -0.00781 -0.00781 -0.00586 -0.00781 -0.00781 -0.00781 -0.00781 -0.00781 -0.00586 -0.00781 -0.00781 -0.00781 -0.00781 -0.00781 -0.00586 -0.00781 -0.00781 -0.00781 -0.00781 -0.00781 -0.00781 -0.00586 -0.00781 -0.00781 -0.00781 -0.00781 -0.00781 -0.00781 -0.00781 -0.00586 -0.00781 -0.00781 -0.00781 -0.00781 -0.00781 -0.00781 -0.00781 -0.00781 -0.00586 -0.00781 -0.00781 -0.00781 -0.00781 -0.00781 -0.00781 -0.00781 -0.00781 -0.00781 -0.00781 -0.00781 -0.00781 -0.00586 -0.00781 -0.00781 -0.00781 -0.00781 -0.00781 -0.00781 -0.00781 -0.00781 -0.00781 -0.00781 -0.00781 -0.00781 -0.00781 -0.00781 -0.00781 -0.00781 -0.00781 -0.00781 -0.00781 -0.00781 -0.00781 -0.00781 -0.00781 -0.00781 -0.00781 -0.00781 -0.00781 -0.00781 -0.00781 -0.00781 -0.00781 -0.00781 -0.00781 -0.00781 -0.00781 -0.00781 -0.00781 -0.00781 -0.00781 -0.00781 -0.00781 -0.00977 -0.00781 -0.00781 -0.00781 -0.00781 -0.00781 -0.00781 -0.00781 -0.00781 -0.00781 -0.00781 -0.00977 -0.00781 -0.00781 -0.00781 -0.00781 -0.00781 -0.00781 -0.00781 -0.00977 -0.00781 -0.00781 -0.00781 -0.00781 -0.00781 -0.00977 -0.00781 -0.00781 -0.00781 -0.00781 -0.00781 -0.00977 -0.00781 -0.00781 -0.00781 -0.00781 -0.00977 -0.00781 -0.00781 -0.00781 -0.00977 -0.00781 -0.00781 -0.00781 -0.00977 -0.00781 -0.00781 -0.00781 -0.00977 -0.00781 -0.00781 -0.00977 -0.00781 -0.00781 -0.00781 -0.00977 -0.00781 -0.00781 -0.00977 -0.00781 -0.00781 -0.00977 -0.00781 -0.00781 -0.00977 -0.00781 -0.00781 -0.00977 -0.00781 -0.00977 -0.00781 -0.00781 -0.00977 -0.00781 -0.00781 -0.00977 -0.00781 -0.00977 -0.00781 -0.00977 -0.00781 -0.00781 -0.00977 -0.00781 -0.00977 -0.00781 -0.00977 -0.00781 c -0.2772601,0 -0.5,-0.222654 -0.5,-0.5 0,-0.2773254 0.2226746,-0.5 0.5,-0.5 z"
       id="path399" />
  </g>
</svg>
