<svg width="11" height="15" viewBox="0 0 11 15" fill="none" xmlns="http://www.w3.org/2000/svg">
<path d="M10.875 7.68748C10.875 7.83666 10.8157 7.97974 10.7102 8.08523C10.6048 8.19071 10.4617 8.24998 10.3125 8.24998L3.9375 8.24998C3.73859 8.24998 3.54782 8.329 3.40717 8.46965C3.26652 8.6103 3.1875 8.80107 3.1875 8.99998L3.1875 13.0795L4.28974 11.9772C4.39523 11.8717 4.53831 11.8125 4.6875 11.8125C4.83669 11.8125 4.97977 11.8717 5.08526 11.9772C5.19075 12.0827 5.25001 12.2258 5.25001 12.375C5.25001 12.5242 5.19075 12.6672 5.08526 12.7727L3.02276 14.8352C2.97053 14.8875 2.90851 14.9289 2.84027 14.9572C2.77202 14.9854 2.69887 15 2.625 15C2.55113 15 2.47798 14.9854 2.40973 14.9572C2.34149 14.9289 2.27948 14.8875 2.22724 14.8352L0.164742 12.7727C0.0592508 12.6672 -1.3381e-05 12.5242 -1.33827e-05 12.375C-1.33845e-05 12.2258 0.0592508 12.0827 0.164742 11.9772C0.270235 11.8717 0.413313 11.8125 0.562501 11.8125C0.711689 11.8125 0.854767 11.8717 0.960258 11.9772L2.0625 13.0795L2.0625 8.99998C2.0625 8.75375 2.111 8.50993 2.20523 8.28245C2.29945 8.05496 2.43757 7.84826 2.61168 7.67415C2.78579 7.50004 2.99248 7.36193 3.21997 7.2677C3.44745 7.17348 3.69127 7.12498 3.9375 7.12498L10.3125 7.12498C10.4617 7.12498 10.6048 7.18424 10.7102 7.28973C10.8157 7.39522 10.875 7.53829 10.875 7.68748Z" fill="black"/>
</svg>
