<svg width="18" height="18" viewBox="0 0 18 18" fill="none" xmlns="http://www.w3.org/2000/svg">
<path d="M14.2594 0H11.4029C11.1954 0 11.0071 0.121746 10.922 0.311062C10.5821 1.06689 9.8276 1.55524 8.99995 1.55524C8.1723 1.55524 7.41785 1.06685 7.07792 0.311027C6.99277 0.121746 6.80455 0 6.59698 0H3.74054C3.44931 0 3.2132 0.236109 3.2132 0.527344V17.4727C3.2132 17.7639 3.44931 18 3.74054 18H6.59698C6.80455 18 6.99277 17.8783 7.07792 17.6889C7.41785 16.9331 8.1723 16.4447 8.99995 16.4447C9.8276 16.4447 10.5821 16.9331 10.922 17.6889C11.0071 17.8783 11.1954 18 11.4029 18H14.2594C14.5506 18 14.7867 17.7639 14.7867 17.4727V0.527344C14.7867 0.236109 14.5506 0 14.2594 0ZM4.26788 1.05469H6.2772C6.84136 2.00953 7.87558 2.60993 8.99995 2.60993C10.1244 2.60993 11.1586 2.00953 11.7227 1.05469H13.7321V4.38145H4.26788V1.05469ZM13.7321 16.9453H11.7227C11.1586 15.9905 10.1244 15.3901 8.99999 15.3901C7.87562 15.3901 6.84139 15.9905 6.27724 16.9453H4.26788V5.43614H13.7321V16.9453Z" fill="black"/>
</svg>
