<svg width="10" height="14" viewBox="0 0 10 14" fill="none" xmlns="http://www.w3.org/2000/svg">
<path d="M4.58753 0.1707C4.58764 0.17059 4.58775 0.170509 4.58786 0.1704C4.60134 0.156946 4.61553 0.144176 4.63027 0.132064C4.63703 0.126513 4.64416 0.1217 4.65111 0.116477C4.65939 0.110271 4.66751 0.103845 4.67613 0.0980749C4.68444 0.0925245 4.69305 0.0877113 4.70158 0.0826254C4.7094 0.0779495 4.71703 0.0730553 4.72507 0.0687628C4.73377 0.0641146 4.74271 0.0601768 4.7516 0.0559931C4.75996 0.0520277 4.76822 0.0478449 4.77681 0.0442905C4.78542 0.0407352 4.79423 0.037837 4.80298 0.0347195C4.81219 0.0314112 4.82127 0.0278835 4.83067 0.0250397C4.83942 0.0223875 4.84831 0.0204468 4.85717 0.0182314C4.86677 0.0157976 4.87626 0.0131178 4.88604 0.0111761C4.8963 0.00915241 4.90664 0.00794983 4.91694 0.00647354C4.92545 0.00527 4.93384 0.00362968 4.94246 0.00278187C4.98074 -0.000990868 5.01932 -0.000990868 5.0576 0.00278187C5.06621 0.00362968 5.07461 0.00524235 5.08311 0.00647354C5.09342 0.00794983 5.10376 0.00915241 5.11401 0.0111761C5.1238 0.0131178 5.13329 0.0157976 5.14289 0.0182314C5.15172 0.0204468 5.16063 0.0223875 5.16938 0.0250397C5.17879 0.0278835 5.18789 0.0314112 5.19708 0.0347195C5.20583 0.0378647 5.21463 0.0407352 5.22325 0.0442905C5.23183 0.0478449 5.24009 0.0520277 5.24846 0.0559931C5.25735 0.0601768 5.26629 0.0641146 5.27498 0.0687628C5.28302 0.0730553 5.29065 0.0779772 5.29847 0.0826254C5.307 0.0877113 5.31562 0.0925245 5.32393 0.0980749C5.33254 0.103845 5.34066 0.110271 5.34895 0.116477C5.35589 0.121673 5.36303 0.126513 5.36978 0.132064C5.38452 0.144176 5.39871 0.156919 5.41219 0.1704C5.4123 0.170509 5.41241 0.17059 5.41252 0.1707L9.49585 4.25402C9.72365 4.48182 9.72365 4.85118 9.49585 5.07899C9.26805 5.30679 8.89869 5.30679 8.67089 5.07899L5.58334 1.99147V11.0832C5.58334 11.4053 5.32218 11.6665 5.00001 11.6665C4.67785 11.6665 4.41669 11.4053 4.41669 11.0832V1.99147L1.32917 5.07899C1.10137 5.30679 0.73201 5.30679 0.504209 5.07899C0.276409 4.85118 0.276409 4.48182 0.504209 4.25402L4.58753 0.1707Z" fill="#D5DAEA"/>
<path d="M0.916714 12.8333H9.08336C9.40553 12.8333 9.66669 13.0944 9.66669 13.4166C9.66669 13.7387 9.40553 13.9999 9.08336 13.9999H0.916687C0.594523 13.9999 0.333363 13.7388 0.333363 13.4166C0.333363 13.0944 0.59455 12.8333 0.916714 12.8333Z" fill="#D5DAEA"/>
</svg>
