<svg width="18" height="18" viewBox="0 0 18 18" fill="none" xmlns="http://www.w3.org/2000/svg">
<path d="M5.80078 15.8906H12.1641C12.4553 15.8906 12.6914 15.6545 12.6914 15.3633V13.2539C12.6914 12.9627 12.4553 12.7266 12.1641 12.7266H5.80078C5.50955 12.7266 5.27344 12.9627 5.27344 13.2539V15.3633C5.27344 15.6545 5.50955 15.8906 5.80078 15.8906ZM6.32812 13.7812H11.6367V14.8359H6.32812V13.7812Z" fill="black"/>
<path d="M17.9443 8.79933L15.8349 4.58058C15.7456 4.40191 15.563 4.28906 15.3633 4.28906H13.7461V0.527344C13.7461 0.236109 13.51 0 13.2188 0H4.74609C4.45486 0 4.21875 0.236109 4.21875 0.527344V4.28906H2.63672C2.43696 4.28906 2.25436 4.40191 2.16506 4.58058L0.0556875 8.79933C0.0217969 8.86707 0 8.95489 0 9.03516V11.1445C0 11.4358 0.236109 11.6719 0.527344 11.6719H1.05469V17.4727C1.05469 17.7639 1.2908 18 1.58203 18H16.418C16.7092 18 16.9453 17.7639 16.9453 17.4727V11.6719H17.4727C17.7639 11.6719 18 11.4358 18 11.1445V9.03516C18 8.96052 17.9815 8.87365 17.9443 8.79933ZM5.27344 1.05469H12.6914V6.39844H5.27344V1.05469ZM2.96265 5.34375H4.21875V6.39844H3.69141C3.40017 6.39844 3.16406 6.63455 3.16406 6.92578C3.16406 7.21702 3.40017 7.45312 3.69141 7.45312H14.2734C14.5647 7.45312 14.8008 7.21702 14.8008 6.92578C14.8008 6.63455 14.5647 6.39844 14.2734 6.39844H13.7461V5.34375H15.0373L16.6194 8.50781H1.38059L2.96265 5.34375ZM15.8906 16.9453H2.10938V11.6719H15.8906V16.9453ZM16.9453 10.6172H1.05469V9.5625H16.9453V10.6172Z" fill="black"/>
<path d="M8.0998 5.18927C8.20274 5.29228 8.3377 5.34375 8.47267 5.34375C8.60763 5.34375 8.7426 5.29228 8.84553 5.18927L11.2955 2.73934C11.5014 2.53339 11.5014 2.19952 11.2955 1.99357C11.0895 1.78763 10.7556 1.78763 10.5497 1.99357L8.47267 4.07064L7.26351 2.86151C7.0576 2.65556 6.72368 2.65556 6.51774 2.86151C6.3118 3.06745 6.3118 3.40133 6.51774 3.60728L8.0998 5.18927Z" fill="black"/>
</svg>
