<svg width="72" height="16" viewBox="0 0 72 16" fill="none" xmlns="http://www.w3.org/2000/svg">
<g clip-path="url(#clip0_3149_18055)">
<path d="M69.4462 4.53027L67.785 8.61254C67.7374 8.66001 67.7374 8.75494 67.7374 8.80242L67.69 8.89734L67.6424 8.80242C67.6424 8.75494 67.595 8.66001 67.595 8.61254L65.9336 4.53027H63.7976L66.5981 11.5081L65.4114 14.1663H67.5476L71.4874 4.53027H69.4462Z" fill="white"/>
<path d="M53.6866 4.91024C53.3069 4.62543 52.8321 4.43557 52.2626 4.38809C51.3131 4.29316 50.4112 4.62543 49.794 5.24252V4.48302H47.8478V11.4609H49.794V7.80581C49.794 6.99885 49.9366 6.7615 50.079 6.57164C50.3164 6.19188 50.7435 6.00202 51.2657 6.00202C51.7878 6.00202 52.2626 6.23935 52.4997 6.61909C52.6424 6.9039 52.6897 7.28366 52.6897 7.47352C52.6897 8.09062 52.6897 11.4609 52.6897 11.4609H54.6359V7.23619C54.6359 6.14443 54.3512 5.38493 53.6866 4.91024Z" fill="white"/>
<path d="M44.1932 4.57744C43.2437 4.24515 42.1994 4.29263 41.2501 4.71984C40.633 5.00465 40.0634 5.47934 39.7311 6.09641C39.3989 6.61858 39.2563 7.28313 39.2563 7.99515C39.2563 8.70717 39.3989 9.37175 39.7311 9.89389C40.0634 10.416 40.4906 10.8907 41.0601 11.1755C41.6299 11.4603 42.2944 11.6502 42.9115 11.6502C43.2437 11.6502 43.5761 11.6027 43.9082 11.5078C44.1932 11.4129 44.478 11.3179 44.7627 11.1755C45.3323 10.8432 45.807 10.416 46.0918 9.89389C46.4242 9.37175 46.5665 8.70717 46.5665 7.99515C46.5665 6.4287 45.6646 5.09958 44.1932 4.57744ZM44.7153 8.09008C44.6677 8.70717 44.478 9.22934 44.0982 9.5616C43.8134 9.79896 43.3861 9.94136 42.8639 9.98882C42.3418 9.98882 41.962 9.84641 41.6299 9.5616C41.2501 9.22934 41.0601 8.70717 41.0127 8.09008C40.9653 7.37805 41.2501 6.80844 41.7722 6.4287C42.057 6.23882 42.4368 6.09641 42.8165 6.09641C43.2437 6.09641 43.5761 6.23882 43.9082 6.4287C44.478 6.76098 44.7627 7.37805 44.7153 8.09008Z" fill="white"/>
<path d="M36.9778 4.90986C36.598 4.62505 36.1233 4.43517 35.5537 4.3877C35.4587 4.3877 35.3164 4.3877 35.2214 4.3877C34.4618 4.3877 33.7973 4.71998 33.2278 5.38453L33.1328 5.52693H32.9428C32.8004 5.2896 32.6107 5.09972 32.4207 4.95731C32.0409 4.67251 31.5664 4.48265 30.9966 4.43517C30.0947 4.34024 29.3828 4.62505 28.7657 5.2896V4.57758H26.8195V11.5554H28.7657V7.90036V7.80541C28.7657 7.04593 28.8607 6.85605 29.003 6.61872C29.2404 6.23896 29.6676 6.00162 30.1423 6.0491C30.6168 6.0491 31.0442 6.28643 31.2816 6.66617C31.4714 6.95098 31.4714 7.28327 31.4714 7.61555V11.508H33.4176V7.75796C33.4176 7.04593 33.5126 6.80858 33.6549 6.57124C33.8923 6.19151 34.3195 6.00162 34.7942 6.00162C35.2687 6.00162 35.6485 6.23896 35.8859 6.61872C36.0283 6.85605 36.0759 7.14086 36.0759 7.33074C36.0759 7.42567 36.0759 7.5206 36.0759 7.56808V11.4605H38.0221V7.18834C38.0221 6.80858 37.9745 6.42884 37.8797 6.09655C37.6897 5.62189 37.4049 5.19467 36.9778 4.90986Z" fill="white"/>
<path d="M61.9461 9.37145C61.6613 9.65625 60.9968 10.1784 60.0949 10.2259C59.3353 10.2733 58.7658 10.036 58.3384 9.60878C58.1487 9.4189 58.0063 9.13409 57.9113 8.84928H63.2753V8.80183C63.3227 8.51702 63.3701 8.27966 63.3701 7.99485C63.3701 7.75752 63.3227 7.42523 63.2277 6.99802C62.9903 6.19106 62.5158 5.57397 61.8987 5.09928C61.1865 4.57714 60.522 4.43473 60.3322 4.43473C58.9556 4.1974 57.3892 4.81447 56.5822 6.09611C56.0125 6.99802 56.0601 7.89992 56.0601 8.18473C56.0601 8.51702 56.1075 9.5613 56.962 10.5107C57.9589 11.6024 59.3353 11.6499 59.7625 11.6974C61.6613 11.7449 62.943 10.5581 63.2277 10.3208L61.9461 9.37145ZM58.6234 6.4284C58.9082 6.23852 59.2403 6.09611 59.6677 6.09611C60.0949 6.09611 60.4272 6.23852 60.7594 6.4284C61.0442 6.66573 61.2815 6.95054 61.4239 7.28283H58.0063C58.1013 6.95054 58.2911 6.61828 58.6234 6.4284Z" fill="white"/>
<path d="M13.6236 0.400391C9.44637 0.400391 6.12358 3.77065 6.12358 7.90039C6.12358 12.0776 9.49384 15.4004 13.6236 15.4004C17.7533 15.4004 21.1236 12.0301 21.1236 7.90039C21.1236 3.77065 17.7533 0.400391 13.6236 0.400391ZM13.6236 10.6536C12.1046 10.6536 10.823 9.37191 10.823 7.85291C10.823 6.33394 12.1046 5.0523 13.6236 5.0523C15.1426 5.0523 16.4242 6.33394 16.4242 7.85291C16.3767 9.41937 15.1426 10.6536 13.6236 10.6536Z" fill="white"/>
<path d="M6.07595 2.53613V13.4539H3.41771L0 2.53613H6.07595Z" fill="white"/>
</g>
<defs>
<clipPath id="clip0_3149_18055">
<rect width="71.6667" height="15" fill="white" transform="translate(0 0.400391)"/>
</clipPath>
</defs>
</svg>
