<svg width="41" height="26" viewBox="0 0 41 26" fill="none" xmlns="http://www.w3.org/2000/svg">
<path d="M26.2431 3.07422H15.3056V22.727H26.2431V3.07422Z" fill="#FF5F00"/>
<path d="M16.0002 12.9004C16.0002 8.90732 17.8752 5.36566 20.7571 3.074C18.639 1.40734 15.9654 0.400391 13.0488 0.400391C6.13908 0.400391 0.548813 5.99066 0.548813 12.9004C0.548813 19.8101 6.13908 25.4003 13.0488 25.4003C15.9654 25.4003 18.639 24.3934 20.7571 22.7267C17.8752 20.4698 16.0002 16.8934 16.0002 12.9004Z" fill="#EB001B"/>
<path d="M41 12.9004C41 19.8101 35.4097 25.4003 28.5 25.4003C25.5834 25.4003 22.9098 24.3934 20.7917 22.7267C23.7084 20.4351 25.5486 16.8934 25.5486 12.9004C25.5486 8.90732 23.6736 5.36566 20.7917 3.074C22.9098 1.40734 25.5834 0.400391 28.5 0.400391C35.4097 0.400391 41 6.02538 41 12.9004Z" fill="#F79E1B"/>
</svg>
