<svg width="320" height="761" viewBox="0 0 320 761" fill="none" xmlns="http://www.w3.org/2000/svg">
<g opacity="0.9">
<path d="M87.0461 739.729C87.675 735.246 86.2671 727.525 82.7614 715.477C89.707 715.477 95.5499 712.417 102.65 712.525C104.589 723.869 107.592 742.493 107.592 742.493L107.916 757.212L58.475 757.588C58.475 757.588 58.888 757.799 73.4598 748.585C74.5392 747.905 86.4454 744.061 87.0461 739.729Z" fill="#F7A491"/>
<path d="M108.151 761H57.114C55.2367 760.826 54.7674 759.287 55.4198 758.339C56.7667 756.386 66.7206 751.693 73.4175 748.576C85.1501 749.81 105.799 744.981 107.639 742.259C110.858 751.266 109.202 760.779 108.151 761Z" fill="#3C8F7C"/>
<path d="M148.637 739.729C149.262 735.246 150.327 729.637 148.769 714.693C155.714 714.693 162.327 713.402 169.418 713.51C169.418 725.179 169.174 742.493 169.174 742.493L169.493 757.212L120.052 757.588C120.052 757.588 120.465 757.799 135.042 748.585C136.14 747.905 148.032 744.061 148.637 739.729Z" fill="#F7A491"/>
<path d="M169.742 761H118.705C116.828 760.826 116.359 759.287 117.011 758.339C118.358 756.386 128.312 751.693 135.004 748.576C146.737 749.81 167.386 744.981 169.23 742.259C172.45 751.266 170.788 760.779 169.742 761Z" fill="#3C8F7C"/>
<path d="M112.707 312.739L94.1137 293.115C94.1137 293.115 74.2059 304.065 50.9988 314.527C44.621 303.422 34.2072 266.897 33.6346 265.151C33.0621 263.405 45.8365 241.462 42.9737 240.913C40.111 240.364 36.4035 252.647 33.4 251.385C30.3964 250.122 22.606 221.679 20.8133 223.223C17.4155 226.133 24.8915 240.927 23.1035 241.997C21.3154 243.068 16.7726 225.598 13.3138 226.34C9.85506 227.081 19.1519 242.256 18.1335 243.706C17.1152 245.156 7.39591 230.935 5.3873 234.229C4.29852 236.022 14.351 246.621 12.2861 247.808C10.2211 248.996 1.15888 242.317 0.0841827 244.48C-0.990524 246.644 8.53162 248.897 11.1832 254.37C13.8347 259.842 18.6451 261.973 20.2454 272.323C21.8457 282.672 26.2056 337.981 37.4829 342.421C47.3289 346.336 112.707 312.739 112.707 312.739Z" fill="#F7A491"/>
<path d="M100.693 418.579L115.772 426.99L146.427 473.87L91.6078 602.92C91.6078 602.92 97.7791 622.328 99.7924 632.02C101.881 642.168 107.043 729.243 107.043 729.243L83.6578 729.637C83.6578 729.637 61.441 636.939 57.6772 606.853C53.1109 570.318 80.9264 483.309 80.9264 483.309C86.131 465.553 97.3145 429.032 97.3145 429.032C97.3145 429.032 100.051 420.138 100.693 418.579Z" fill="#355389"/>
<path d="M153.185 400.974C153.185 400.974 151.627 411.999 157.878 424.578C161.679 432.243 168.245 438.255 172.952 447.652C181.868 465.426 186.684 490.678 183.342 506.903C183.342 506.903 164.941 577.18 165.673 602.868C165.945 612.335 169.193 629.401 171.272 640.938C173.107 651.137 172.464 726.798 172.464 726.798L147.614 727.267L127.598 603.183L119.151 492.884L100.703 418.584L153.185 400.974Z" fill="#466EB6"/>
<path d="M95.1227 237.032C97.5349 225.64 100.003 214.207 111.342 205.998C120.498 199.356 130.344 197.46 140.776 201.243C170.343 211.973 154.443 235.436 191.128 260.443C202.527 268.211 206.854 270.919 215.034 281.278C226.485 295.772 232.746 315.222 226.987 331.232C215.086 364.345 178.18 373.911 158.901 366.903C122.999 353.846 93.0671 308.271 91.0867 295.842C88.9466 282.536 93.5693 244.363 95.1227 237.032Z" fill="#13375B"/>
<path d="M92.382 325.069C84.0613 328.913 68.9873 334.691 68.9873 334.691L60.4131 307.567C108.883 279.992 105.077 284.442 141.457 284.981C170.521 285.399 182.699 279.847 207.727 347.406C207.727 347.406 188.674 355.967 181.855 358.713C178.921 350.358 173.618 333.701 170.526 343.201C165.882 357.474 162.408 372.102 160.14 386.94C158.685 395.778 155.513 407.094 157.179 416.101C157.179 416.101 137.388 420.175 122.272 420.837H122.141C114.834 420.649 107.353 420.006 100.693 418.57C100.693 418.57 97.7274 355.892 96.1459 353.278C94.3907 350.377 86.9851 341.023 93.2831 327.031C94.4 324.567 94.0997 324.276 92.382 325.069Z" fill="#50BFA5"/>
<path d="M136.905 257.083C136.905 257.083 139.218 275.777 140.584 282.264C141.992 289.055 144.155 310.425 130.076 313.913C115.997 317.4 120.348 290.646 120.118 283.737C119.888 276.829 115.894 252.76 115.894 252.76L136.905 257.083Z" fill="#F7A491"/>
<path d="M137.67 263.048C137.524 263.133 137.393 263.227 137.243 263.311C129.466 267.77 122.694 267.066 117.607 263.597C116.701 257.618 115.894 252.76 115.894 252.76L136.905 257.083C136.905 257.083 137.21 259.575 137.67 263.048Z" fill="#F47458"/>
<path d="M132.672 208.405C138.123 210.243 142.737 213.973 145.676 218.919C150.435 227.114 152.809 250.648 135.295 260.692C117.781 270.736 105.353 254.647 105.884 239.571C106.414 224.495 110.605 204.627 132.672 208.405Z" fill="#F7A491"/>
<path d="M102.017 233.131C101.82 237.041 103.495 240.308 105.771 240.42C108.047 240.533 110.019 237.459 110.211 233.544C110.403 229.63 108.733 226.368 106.457 226.255C104.18 226.142 102.209 229.217 102.017 233.131Z" fill="#F7A491"/>
<path d="M130.189 207.786C130.189 207.786 139.631 232.399 148.872 235.009C158.112 237.618 157.371 249.737 157.371 249.737C157.371 249.737 158.554 221.768 150.116 214.915C141.677 208.063 130.189 207.786 130.189 207.786Z" fill="#13375B"/>
<path d="M144.906 239.838C143.499 243.687 144.437 247.592 146.995 248.564C149.553 249.535 152.819 247.203 154.241 243.359C155.663 239.515 154.734 235.605 152.157 234.633C149.581 233.662 146.333 235.99 144.906 239.838Z" fill="#F7A491"/>
<path d="M128.767 433.862C128.425 433.909 126.89 433.702 125.618 433.735C124.518 433.76 123.42 433.859 122.333 434.031C121.721 433.549 121.051 433.145 120.338 432.829C119.794 432.581 118.902 432.487 118.297 432.205C117.692 431.923 117.143 431.379 116.551 431.116C115.007 430.445 113.585 430.29 113.121 431.116C112.731 431.783 121.319 437.039 121.319 437.039C129.274 437.086 137.599 441.142 156.048 429.117C166.574 424.517 217.686 399.27 218.714 393.765C219.291 390.681 211.449 366.772 205.038 348.622C200.096 350.837 189.589 355.517 183.708 357.976C189.101 369.41 195.464 384.565 194.793 386.424C194.624 386.893 193.981 387.78 159.431 410.403C158.558 410.967 157.672 411.558 156.766 412.149C154.335 413.74 151.73 415.435 148.971 417.237L139.115 416.205C139.115 416.205 123.506 417.284 123.037 419.058C122.835 419.87 124.13 420.279 125.721 420.509H125.768L126.468 420.603H126.5C128.213 420.804 130.025 420.837 130.461 420.992C131.289 421.277 132.077 421.665 132.808 422.147C123.075 426.122 123.825 424.705 120.606 424.494C119.794 424.432 118.94 424.662 118.175 424.601C116.866 424.494 115.828 423.714 114.805 423.663C113.748 423.593 112.701 423.908 111.858 424.55C111.516 424.892 112.154 425.39 113.402 425.958C120.911 429.215 127.139 427.967 129.133 428.45C130.475 428.779 128.03 429.281 124.21 428.873C123.272 428.779 122.009 429.121 120.747 428.826C119.907 428.638 119.142 428.093 118.316 427.887C117.49 427.68 116.772 427.713 116.134 427.591C115.289 427.436 114.12 426.793 113.449 426.718C110.957 426.437 109.737 426.873 109.46 427.108C108.883 427.619 120.216 431.97 120.216 431.97C120.216 431.97 128.03 433.097 129.776 433.097C129.767 433.083 130.809 433.547 128.767 433.862Z" fill="#F7A491"/>
<path d="M250.115 228.447L242.836 218.464L246.933 206.81C247.038 206.511 247.057 206.188 246.988 205.879C246.92 205.569 246.766 205.285 246.544 205.059C246.323 204.832 246.042 204.672 245.734 204.597C245.426 204.521 245.103 204.533 244.802 204.632L233.07 208.471L223.257 200.961C223.005 200.769 222.704 200.65 222.388 200.62C222.073 200.589 221.755 200.647 221.471 200.788C221.186 200.929 220.947 201.146 220.78 201.415C220.613 201.685 220.525 201.996 220.525 202.313L220.549 214.667L210.388 221.707C210.128 221.887 209.923 222.137 209.797 222.427C209.67 222.717 209.628 223.037 209.674 223.351C209.72 223.664 209.852 223.958 210.056 224.2C210.261 224.442 210.528 224.622 210.829 224.72L222.576 228.527L226.11 240.364C226.201 240.668 226.375 240.939 226.613 241.149C226.85 241.359 227.142 241.498 227.454 241.551C227.767 241.603 228.088 241.568 228.381 241.447C228.674 241.327 228.928 241.128 229.113 240.871L236.355 230.874L248.702 231.169C249.023 231.18 249.34 231.1 249.617 230.938C249.894 230.776 250.119 230.539 250.267 230.254C250.415 229.969 250.479 229.648 250.452 229.328C250.425 229.009 250.308 228.703 250.115 228.447Z" fill="#F7CC7F"/>
<path d="M97.557 201.031L87.6828 194.488L91.5499 186.617L82.0324 179.82L84.6089 171.64L78.1231 165.622L80.6667 163.154L89.3489 171.203L86.9038 178.957L96.8061 186.025L93.0048 193.765L101.95 199.698L97.557 201.031Z" fill="#86B1F2"/>
<path d="M44.4413 141.389C43.1429 140.115 41.5777 139.145 39.8587 138.549C38.1398 137.953 36.31 137.747 34.5015 137.944C28.8699 138.489 25.4111 143.347 25.9133 148.566C26.4999 154.607 32.4835 161.239 46.8395 166.129C59.98 158.591 64.5979 150.932 64.0113 144.886C63.5091 139.667 59.1916 135.56 53.5505 136.105C51.7352 136.254 49.9759 136.806 48.4003 137.72C46.8247 138.634 45.4724 139.888 44.4413 141.389Z" fill="#F48C7F"/>
<path d="M91.2872 139.273C86.6244 140.52 81.8939 141.5 77.119 142.206C75.6782 142.417 73.2379 143.215 72.0599 142.126C71.7508 141.888 71.5446 141.54 71.4835 141.154C71.4224 140.769 71.5111 140.374 71.7314 140.052C72.6137 138.695 74.8569 138.845 76.3071 138.644C80.7326 137.987 85.6931 137.034 90.6865 135.776C91.1513 135.702 91.6265 135.813 92.0106 136.085C92.3947 136.357 92.6572 136.768 92.7421 137.231C92.8111 137.695 92.6983 138.168 92.4273 138.551C92.1562 138.934 91.7479 139.197 91.2872 139.287V139.273Z" fill="#F48C7F"/>
<path d="M19.0943 161.633C16.9824 161.985 14.8706 162.295 12.7446 162.614C10.7219 162.914 8.38011 163.632 6.35742 163.224C4.86504 162.928 4.45205 161.065 5.88812 160.309C7.70901 159.328 10.1118 159.328 12.158 159.033C14.2745 158.718 16.3817 158.404 18.517 158.127C20.7838 157.826 21.3845 161.257 19.1177 161.633H19.0943Z" fill="#F48C7F"/>
<path d="M75.927 169.931C72.5997 165.876 69.155 164.989 66.4284 163.656C66.1144 163.525 65.8566 163.288 65.7008 162.985C65.545 162.683 65.5012 162.335 65.577 162.004C65.6529 161.672 65.8435 161.378 66.1153 161.174C66.3871 160.969 66.7224 160.868 67.062 160.887C71.6048 160.887 75.9786 164.318 78.6818 167.697C80.0897 169.476 77.3819 171.701 75.927 169.931Z" fill="#F48C7F"/>
<path d="M53.2221 184.805C52.9893 182.619 52.3019 180.505 51.2041 178.6C50.5189 177.427 47.4496 174.329 49.8572 173.296C52.1051 172.325 53.9495 175.986 54.7567 177.521C55.8338 179.6 56.509 181.865 56.7466 184.195C56.9812 186.476 53.4615 187.091 53.2221 184.8V184.805Z" fill="#F48C7F"/>
<path d="M33.2486 174.207L30.1089 177.305C29.067 178.337 28.1284 179.75 26.5328 179.652C25.6364 179.605 25.1624 178.783 25.1248 177.981C25.092 176.521 26.8378 175.39 27.7952 174.456L30.9537 171.377C31.6529 170.696 32.9248 170.907 33.502 171.64C33.7885 172.019 33.9203 172.494 33.8707 172.967C33.821 173.44 33.5936 173.876 33.2345 174.188L33.2486 174.207Z" fill="#F48C7F"/>
<path d="M57.0282 126.201C59.844 114.702 59.7736 114.664 60.5433 113.636C60.7263 113.39 60.9772 113.202 61.2652 113.097C61.5532 112.991 61.8658 112.971 62.1647 113.041C62.4636 113.11 62.7358 113.265 62.948 113.487C63.1601 113.708 63.303 113.987 63.3591 114.289C63.5656 115.622 63.5093 115.406 60.4682 127.492C60.2289 128.454 58.9618 128.9 58.1217 128.562C57.108 128.177 56.8123 127.154 57.0517 126.215L57.0282 126.201Z" fill="#F48C7F"/>
<path d="M37.6976 129.022C36.7258 127.337 35.9391 125.553 35.3511 123.699C34.7973 121.972 33.7132 119.4 35.168 117.917C35.3544 117.758 35.5808 117.654 35.8224 117.615C36.064 117.576 36.3117 117.604 36.5384 117.696C38.1998 118.485 38.2514 120.944 38.7723 122.535C39.3436 124.273 40.0643 125.958 40.9264 127.572C41.1164 128 41.1304 128.486 40.9654 128.925C40.8003 129.364 40.4695 129.721 40.0441 129.918C39.6147 130.102 39.1308 130.113 38.6936 129.949C38.2563 129.784 37.8995 129.457 37.6976 129.036V129.022Z" fill="#F48C7F"/>
<path d="M10.7174 134.945C10.2762 134.171 10.8206 133.293 11.4824 132.903C12.8527 132.106 14.9834 133.227 16.3209 133.762C17.8691 134.392 19.3633 135.147 20.7887 136.02C21.6146 136.517 21.7273 137.78 21.1829 138.517C20.5587 139.376 19.5356 139.381 18.6862 138.911C13.1531 135.842 11.8062 136.86 10.7174 134.945Z" fill="#F48C7F"/>
</g>
<path d="M296.08 38.1069C296.27 35.3683 295.644 32.6348 294.281 30.252C292.917 27.8692 290.878 25.9442 288.421 24.7205C285.964 23.4968 283.199 23.0292 280.476 23.377C277.754 23.7248 275.195 24.8723 273.124 26.6744C271.054 28.4765 269.564 30.8523 268.843 33.5012C268.123 36.1502 268.204 38.9533 269.076 41.5562C269.948 44.1592 271.573 46.4449 273.744 48.1244C275.916 49.8039 278.536 50.8017 281.274 50.9917C284.946 51.2464 288.569 50.032 291.345 47.6157C294.122 45.1994 295.825 41.779 296.08 38.1069Z" fill="#F7CC7F"/>
<path d="M272.544 77.3216C273.372 73.2938 273.874 68.9832 275.247 65.1021C276.43 61.7656 281.636 62.787 281.374 66.3696C281.049 70.7588 279.677 75.2056 278.755 79.5057C278.384 81.2499 276.079 82.0565 274.566 81.5223C272.701 80.8676 272.188 79.071 272.55 77.3321L272.544 77.3216Z" fill="#F7CC7F"/>
<path d="M248.763 60.1053C253.361 57.3922 257.372 54.0348 261.614 50.8241C264.929 48.3205 268.506 52.6311 265.804 55.6114C261.887 59.8853 256.749 63.227 251.784 66.1549C250.213 67.0819 248.029 66.1549 247.26 64.6255C246.401 62.8918 247.212 61.0324 248.789 60.1053H248.763Z" fill="#F7CC7F"/>
<path d="M257.493 35.2577C257.982 35.6153 258.316 36.1454 258.429 36.7405C258.542 37.3356 258.424 37.9514 258.1 38.4631C256.529 41.281 252.596 41.1448 249.794 41.0505C246.856 40.9288 243.952 40.3765 241.174 39.4111C237.084 38.0127 239.299 31.6646 243.405 33.0683C251.413 35.8076 254.45 32.8326 257.493 35.2577Z" fill="#F7CC7F"/>
<path d="M261.892 8.27309C265.93 14.1812 269.224 16.1768 268.7 19.4347C268.402 21.3359 266.899 22.2421 265.06 21.8231C262.892 21.3359 261.714 19.0313 260.41 17.4181C259.106 15.8049 257.938 14.3174 256.828 12.6675C255.817 11.1695 255.676 9.23682 257.158 7.95358C258.394 6.86937 260.85 6.78033 261.871 8.27831L261.892 8.27309Z" fill="#F7CC7F"/>
<path d="M277.629 7.25171C278.918 3.66912 279.201 2.36493 280.876 0.699336C282.332 -0.746271 285.406 0.175569 285.59 2.30732C285.825 4.79523 285.307 5.71707 283.951 9.48298C283.642 10.3073 283.023 10.9777 282.225 11.3503C281.428 11.7229 280.516 11.7681 279.686 11.476C278.856 11.1839 278.173 10.5779 277.785 9.78812C277.396 8.99832 277.333 8.08769 277.608 7.25171H277.629Z" fill="#F7CC7F"/>
<path d="M294.624 15.9149C300.447 11.4942 301.631 10.2477 303.92 10.4886C305.26 10.63 306.763 11.9185 306.47 13.4217C305.946 16.2186 304.302 16.9781 298.95 20.8854C297.509 21.933 295.54 21.9853 294.304 20.5607C293.194 19.2879 293.205 16.9991 294.624 15.9149Z" fill="#F7CC7F"/>
<path d="M318.012 36.1952C320.306 37.4156 319.385 41.3805 316.897 41.7052C314.519 42.0143 313.598 41.6319 302.039 39.5211C300.254 39.1964 298.782 37.8922 298.897 35.9385C299.012 34.2782 300.688 32.4921 302.485 32.7959C314.509 34.9853 315.708 34.9748 318.012 36.1952Z" fill="#F7CC7F"/>
<path d="M299.913 55.1085C306.25 61.2366 307.177 60.1577 309.675 63.9026C310.822 65.6206 308.937 68.3547 306.941 67.988C304.386 67.5166 303.7 67.0871 300.369 64.4473C298.431 62.9127 296.582 61.2681 294.802 59.5553C293.482 58.2826 293.838 55.8889 295.132 54.7733C296.614 53.4848 298.593 53.8305 299.913 55.1085Z" fill="#F7CC7F"/>
</svg>
