<svg width="320" height="761" viewBox="0 0 320 761" fill="none" xmlns="http://www.w3.org/2000/svg">
<g opacity="0.9">
<path d="M87.0461 739.729C87.675 735.246 86.2671 727.525 82.7614 715.477C89.707 715.477 95.5499 712.417 102.65 712.525C104.589 723.869 107.592 742.493 107.592 742.493L107.916 757.212L58.475 757.588C58.475 757.588 58.888 757.799 73.4598 748.585C74.5392 747.905 86.4454 744.061 87.0461 739.729Z" fill="#F7A491"/>
<path d="M108.151 761H57.114C55.2367 760.826 54.7674 759.287 55.4198 758.339C56.7667 756.386 66.7206 751.693 73.4175 748.576C85.1501 749.81 105.799 744.981 107.639 742.259C110.858 751.266 109.202 760.779 108.151 761Z" fill="#3C8F7C"/>
<path d="M148.637 739.729C149.262 735.246 150.327 729.637 148.769 714.693C155.714 714.693 162.327 713.402 169.418 713.51C169.418 725.179 169.174 742.493 169.174 742.493L169.493 757.212L120.052 757.588C120.052 757.588 120.465 757.799 135.042 748.585C136.14 747.905 148.032 744.061 148.637 739.729Z" fill="#F7A491"/>
<path d="M169.742 761H118.705C116.828 760.826 116.359 759.287 117.011 758.339C118.358 756.386 128.312 751.693 135.004 748.576C146.737 749.81 167.386 744.981 169.23 742.259C172.45 751.266 170.788 760.779 169.742 761Z" fill="#3C8F7C"/>
<path d="M112.707 312.739L94.1137 293.115C94.1137 293.115 74.2059 304.065 50.9988 314.527C44.621 303.422 34.2072 266.897 33.6346 265.151C33.0621 263.405 45.8365 241.462 42.9737 240.913C40.111 240.364 36.4035 252.647 33.4 251.385C30.3964 250.122 22.606 221.679 20.8133 223.223C17.4155 226.133 24.8915 240.927 23.1035 241.997C21.3154 243.068 16.7726 225.598 13.3138 226.34C9.85506 227.081 19.1519 242.256 18.1335 243.706C17.1152 245.156 7.39591 230.935 5.3873 234.229C4.29852 236.022 14.351 246.621 12.2861 247.808C10.2211 248.996 1.15888 242.317 0.0841827 244.48C-0.990524 246.644 8.53162 248.897 11.1832 254.37C13.8347 259.842 18.6451 261.973 20.2454 272.323C21.8457 282.672 26.2056 337.981 37.4829 342.421C47.3289 346.336 112.707 312.739 112.707 312.739Z" fill="#F7A491"/>
<path d="M100.693 418.579L115.772 426.99L146.427 473.87L91.6078 602.92C91.6078 602.92 97.7791 622.328 99.7924 632.02C101.881 642.168 107.043 729.243 107.043 729.243L83.6578 729.637C83.6578 729.637 61.441 636.939 57.6772 606.853C53.1109 570.318 80.9264 483.309 80.9264 483.309C86.131 465.553 97.3145 429.032 97.3145 429.032C97.3145 429.032 100.051 420.138 100.693 418.579Z" fill="#355389"/>
<path d="M153.185 400.974C153.185 400.974 151.627 411.999 157.878 424.578C161.679 432.243 168.245 438.255 172.952 447.652C181.868 465.426 186.684 490.678 183.342 506.903C183.342 506.903 164.941 577.18 165.673 602.868C165.945 612.335 169.193 629.401 171.272 640.938C173.107 651.137 172.464 726.798 172.464 726.798L147.614 727.267L127.598 603.183L119.151 492.884L100.703 418.584L153.185 400.974Z" fill="#466EB6"/>
<path d="M95.1227 237.032C97.5349 225.64 100.003 214.207 111.342 205.998C120.498 199.356 130.344 197.46 140.776 201.243C170.343 211.973 154.443 235.436 191.128 260.443C202.527 268.211 206.854 270.919 215.034 281.278C226.485 295.772 232.746 315.222 226.987 331.232C215.086 364.345 178.18 373.911 158.901 366.903C122.999 353.846 93.0671 308.271 91.0867 295.842C88.9466 282.536 93.5693 244.363 95.1227 237.032Z" fill="#13375B"/>
<path d="M92.382 325.069C84.0613 328.913 68.9873 334.691 68.9873 334.691L60.4131 307.567C108.883 279.992 105.077 284.442 141.457 284.981C170.521 285.399 182.699 279.847 207.727 347.406C207.727 347.406 188.674 355.967 181.855 358.713C178.921 350.358 173.618 333.701 170.526 343.201C165.882 357.474 162.408 372.102 160.14 386.94C158.685 395.778 155.513 407.094 157.179 416.101C157.179 416.101 137.388 420.175 122.272 420.837H122.141C114.834 420.649 107.353 420.006 100.693 418.57C100.693 418.57 97.7274 355.892 96.1459 353.278C94.3907 350.377 86.9851 341.023 93.2831 327.031C94.4 324.567 94.0997 324.276 92.382 325.069Z" fill="#50BFA5"/>
<path d="M136.905 257.083C136.905 257.083 139.218 275.777 140.584 282.264C141.992 289.055 144.155 310.425 130.076 313.913C115.997 317.4 120.348 290.646 120.118 283.737C119.888 276.829 115.894 252.76 115.894 252.76L136.905 257.083Z" fill="#F7A491"/>
<path d="M137.67 263.048C137.524 263.133 137.393 263.227 137.243 263.311C129.466 267.77 122.694 267.066 117.607 263.597C116.701 257.618 115.894 252.76 115.894 252.76L136.905 257.083C136.905 257.083 137.21 259.575 137.67 263.048Z" fill="#F47458"/>
<path d="M132.672 208.405C138.123 210.243 142.737 213.973 145.676 218.919C150.435 227.114 152.809 250.648 135.295 260.692C117.781 270.736 105.353 254.647 105.884 239.571C106.414 224.495 110.605 204.627 132.672 208.405Z" fill="#F7A491"/>
<path d="M102.017 233.131C101.82 237.041 103.495 240.308 105.771 240.42C108.047 240.533 110.019 237.459 110.211 233.544C110.403 229.63 108.733 226.368 106.457 226.255C104.18 226.142 102.209 229.217 102.017 233.131Z" fill="#F7A491"/>
<path d="M130.189 207.786C130.189 207.786 139.631 232.399 148.872 235.009C158.112 237.618 157.371 249.737 157.371 249.737C157.371 249.737 158.554 221.768 150.116 214.915C141.677 208.063 130.189 207.786 130.189 207.786Z" fill="#13375B"/>
<path d="M144.906 239.838C143.499 243.687 144.437 247.592 146.995 248.564C149.553 249.535 152.819 247.203 154.241 243.359C155.663 239.515 154.734 235.605 152.157 234.633C149.581 233.662 146.333 235.99 144.906 239.838Z" fill="#F7A491"/>
<path d="M128.767 433.862C128.425 433.909 126.89 433.702 125.618 433.735C124.518 433.76 123.42 433.859 122.333 434.031C121.721 433.549 121.051 433.145 120.338 432.829C119.794 432.581 118.902 432.487 118.297 432.205C117.692 431.923 117.143 431.379 116.551 431.116C115.007 430.445 113.585 430.29 113.121 431.116C112.731 431.783 121.319 437.039 121.319 437.039C129.274 437.086 137.599 441.142 156.048 429.117C166.574 424.517 217.686 399.27 218.714 393.765C219.291 390.681 211.449 366.772 205.038 348.622C200.096 350.837 189.589 355.517 183.708 357.976C189.101 369.41 195.464 384.565 194.793 386.424C194.624 386.893 193.981 387.78 159.431 410.403C158.558 410.967 157.672 411.558 156.766 412.149C154.335 413.74 151.73 415.435 148.971 417.237L139.115 416.205C139.115 416.205 123.506 417.284 123.037 419.058C122.835 419.87 124.13 420.279 125.721 420.509H125.768L126.468 420.603H126.5C128.213 420.804 130.025 420.837 130.461 420.992C131.289 421.277 132.077 421.665 132.808 422.147C123.075 426.122 123.825 424.705 120.606 424.494C119.794 424.432 118.94 424.662 118.175 424.601C116.866 424.494 115.828 423.714 114.805 423.663C113.748 423.593 112.701 423.908 111.858 424.55C111.516 424.892 112.154 425.39 113.402 425.958C120.911 429.215 127.139 427.967 129.133 428.45C130.475 428.779 128.03 429.281 124.21 428.873C123.272 428.779 122.009 429.121 120.747 428.826C119.907 428.638 119.142 428.093 118.316 427.887C117.49 427.68 116.772 427.713 116.134 427.591C115.289 427.436 114.12 426.793 113.449 426.718C110.957 426.437 109.737 426.873 109.46 427.108C108.883 427.619 120.216 431.97 120.216 431.97C120.216 431.97 128.03 433.097 129.776 433.097C129.767 433.083 130.809 433.547 128.767 433.862Z" fill="#F7A491"/>
<path d="M250.115 228.447L242.836 218.464L246.933 206.81C247.038 206.511 247.057 206.188 246.988 205.879C246.92 205.569 246.766 205.285 246.544 205.059C246.323 204.832 246.042 204.672 245.734 204.597C245.426 204.521 245.103 204.533 244.802 204.632L233.07 208.471L223.257 200.961C223.005 200.769 222.704 200.65 222.388 200.62C222.073 200.589 221.755 200.647 221.471 200.788C221.186 200.929 220.947 201.146 220.78 201.415C220.613 201.685 220.525 201.996 220.525 202.313L220.549 214.667L210.388 221.707C210.128 221.887 209.923 222.137 209.797 222.427C209.67 222.717 209.628 223.037 209.674 223.351C209.72 223.664 209.852 223.958 210.056 224.2C210.261 224.442 210.528 224.622 210.829 224.72L222.576 228.527L226.11 240.364C226.201 240.668 226.375 240.939 226.613 241.149C226.85 241.359 227.142 241.498 227.454 241.551C227.767 241.603 228.088 241.568 228.381 241.447C228.674 241.327 228.928 241.128 229.113 240.871L236.355 230.874L248.702 231.169C249.023 231.18 249.34 231.1 249.617 230.938C249.894 230.776 250.119 230.539 250.267 230.254C250.415 229.969 250.479 229.648 250.452 229.328C250.425 229.009 250.308 228.703 250.115 228.447Z" fill="#F7CC7F"/>
<path d="M100.642 240.031L90.7674 233.488L94.6345 225.617L85.117 218.82L87.6935 210.64L81.2077 204.622L83.7513 202.154L92.4335 210.203L89.9884 217.957L99.8907 225.025L96.0894 232.765L105.034 238.698L100.642 240.031Z" fill="#86B1F2"/>
<path d="M47.5259 180.389C46.2275 179.115 44.6623 178.145 42.9433 177.549C41.2244 176.953 39.3946 176.747 37.5861 176.944C31.9545 177.489 28.4957 182.347 28.9979 187.566C29.5845 193.607 35.5681 200.239 49.9241 205.129C63.0646 197.591 67.6825 189.932 67.0959 183.886C66.5937 178.667 62.2762 174.56 56.6351 175.105C54.8198 175.254 53.0605 175.806 51.4849 176.72C49.9093 177.634 48.557 178.888 47.5259 180.389Z" fill="#F48C7F"/>
<path d="M94.3718 178.273C89.709 179.52 84.9785 180.5 80.2036 181.206C78.7628 181.417 76.3224 182.215 75.1445 181.126C74.8354 180.888 74.6292 180.54 74.5681 180.154C74.507 179.769 74.5957 179.374 74.816 179.052C75.6983 177.695 77.9415 177.845 79.3917 177.644C83.8172 176.987 88.7777 176.034 93.7711 174.776C94.2359 174.702 94.7111 174.813 95.0952 175.085C95.4793 175.357 95.7418 175.768 95.8267 176.231C95.8957 176.695 95.7829 177.168 95.5119 177.551C95.2408 177.934 94.8324 178.197 94.3718 178.287V178.273Z" fill="#F48C7F"/>
<path d="M22.1789 200.633C20.067 200.985 17.9552 201.295 15.8292 201.614C13.8065 201.914 11.4647 202.632 9.44201 202.224C7.94963 201.928 7.53665 200.065 8.97271 199.309C10.7936 198.328 13.1964 198.328 15.2426 198.033C17.3591 197.718 19.4663 197.404 21.6016 197.127C23.8684 196.826 24.4691 200.257 22.2023 200.633H22.1789Z" fill="#F48C7F"/>
<path d="M79.0116 208.931C75.6843 204.876 72.2396 203.989 69.513 202.656C69.199 202.525 68.9412 202.288 68.7854 201.985C68.6296 201.683 68.5857 201.335 68.6616 201.004C68.7375 200.672 68.9281 200.378 69.1999 200.174C69.4717 199.969 69.807 199.868 70.1466 199.887C74.6894 199.887 79.0632 203.318 81.7664 206.697C83.1743 208.476 80.4664 210.701 79.0116 208.931Z" fill="#F48C7F"/>
<path d="M56.3067 223.805C56.0739 221.619 55.3865 219.505 54.2887 217.6C53.6035 216.427 50.5342 213.329 52.9418 212.296C55.1897 211.325 57.0341 214.986 57.8413 216.521C58.9184 218.6 59.5935 220.865 59.8312 223.195C60.0658 225.476 56.5461 226.091 56.3067 223.8V223.805Z" fill="#F48C7F"/>
<path d="M36.3332 213.207L33.1935 216.305C32.1516 217.337 31.213 218.75 29.6174 218.652C28.721 218.605 28.247 217.783 28.2094 216.981C28.1766 215.521 29.9224 214.39 30.8798 213.456L34.0383 210.377C34.7375 209.696 36.0093 209.907 36.5866 210.64C36.8731 211.019 37.0049 211.494 36.9553 211.967C36.9056 212.44 36.6782 212.876 36.3191 213.188L36.3332 213.207Z" fill="#F48C7F"/>
<path d="M60.1128 165.201C62.9286 153.702 62.8582 153.664 63.6279 152.636C63.8109 152.39 64.0618 152.202 64.3498 152.097C64.6378 151.991 64.9504 151.971 65.2493 152.041C65.5482 152.11 65.8204 152.265 66.0326 152.487C66.2447 152.708 66.3876 152.987 66.4437 153.289C66.6502 154.622 66.5939 154.406 63.5528 166.492C63.3135 167.454 62.0464 167.9 61.2063 167.562C60.1926 167.177 59.8969 166.154 60.1363 165.215L60.1128 165.201Z" fill="#F48C7F"/>
<path d="M40.7822 168.022C39.8104 166.337 39.0237 164.553 38.4357 162.699C37.8819 160.972 36.7978 158.4 38.2526 156.917C38.439 156.758 38.6653 156.654 38.907 156.615C39.1486 156.576 39.3963 156.604 39.623 156.696C41.2844 157.485 41.336 159.944 41.8569 161.535C42.4282 163.273 43.1489 164.958 44.011 166.572C44.201 167 44.215 167.486 44.05 167.925C43.8849 168.364 43.5541 168.721 43.1287 168.918C42.6993 169.102 42.2154 169.113 41.7782 168.949C41.3409 168.784 40.9841 168.457 40.7822 168.036V168.022Z" fill="#F48C7F"/>
<path d="M13.802 173.945C13.3608 173.171 13.9052 172.293 14.5669 171.903C15.9373 171.106 18.068 172.227 19.4055 172.762C20.9537 173.392 22.4479 174.147 23.8733 175.02C24.6992 175.517 24.8119 176.78 24.2675 177.517C23.6433 178.376 22.6202 178.381 21.7708 177.911C16.2377 174.842 14.8908 175.86 13.802 173.945Z" fill="#F48C7F"/>
</g>
<path d="M296.08 38.1069C296.27 35.3683 295.644 32.6348 294.281 30.252C292.917 27.8692 290.878 25.9442 288.421 24.7205C285.964 23.4968 283.199 23.0292 280.476 23.377C277.754 23.7248 275.195 24.8723 273.124 26.6744C271.054 28.4765 269.564 30.8523 268.843 33.5012C268.123 36.1502 268.204 38.9533 269.076 41.5562C269.948 44.1592 271.573 46.4449 273.744 48.1244C275.916 49.8039 278.536 50.8017 281.274 50.9917C284.946 51.2464 288.569 50.032 291.345 47.6157C294.122 45.1994 295.825 41.779 296.08 38.1069Z" fill="#F7CC7F"/>
<path d="M272.544 77.3216C273.372 73.2938 273.874 68.9832 275.247 65.1021C276.43 61.7656 281.636 62.787 281.374 66.3696C281.049 70.7588 279.677 75.2056 278.755 79.5057C278.384 81.2499 276.079 82.0565 274.566 81.5223C272.701 80.8676 272.188 79.071 272.55 77.3321L272.544 77.3216Z" fill="#F7CC7F"/>
<path d="M248.763 60.1053C253.361 57.3922 257.372 54.0348 261.614 50.8241C264.929 48.3205 268.506 52.6311 265.804 55.6114C261.887 59.8853 256.749 63.227 251.784 66.1549C250.213 67.0819 248.029 66.1549 247.26 64.6255C246.401 62.8918 247.212 61.0324 248.789 60.1053H248.763Z" fill="#F7CC7F"/>
<path d="M257.493 35.2577C257.982 35.6153 258.316 36.1454 258.429 36.7405C258.542 37.3356 258.424 37.9514 258.1 38.4631C256.529 41.281 252.596 41.1448 249.794 41.0505C246.856 40.9288 243.952 40.3765 241.174 39.4111C237.084 38.0127 239.299 31.6646 243.405 33.0683C251.413 35.8076 254.45 32.8326 257.493 35.2577Z" fill="#F7CC7F"/>
<path d="M261.892 8.27309C265.93 14.1812 269.224 16.1768 268.7 19.4347C268.402 21.3359 266.899 22.2421 265.06 21.8231C262.892 21.3359 261.714 19.0313 260.41 17.4181C259.106 15.8049 257.938 14.3174 256.828 12.6675C255.817 11.1695 255.676 9.23682 257.158 7.95358C258.394 6.86937 260.85 6.78033 261.871 8.27831L261.892 8.27309Z" fill="#F7CC7F"/>
<path d="M277.629 7.25171C278.918 3.66912 279.201 2.36493 280.876 0.699336C282.332 -0.746271 285.406 0.175569 285.59 2.30732C285.825 4.79523 285.307 5.71707 283.951 9.48298C283.642 10.3073 283.023 10.9777 282.225 11.3503C281.428 11.7229 280.516 11.7681 279.686 11.476C278.856 11.1839 278.173 10.5779 277.785 9.78812C277.396 8.99832 277.333 8.08769 277.608 7.25171H277.629Z" fill="#F7CC7F"/>
<path d="M294.624 15.9149C300.447 11.4942 301.631 10.2477 303.92 10.4886C305.26 10.63 306.763 11.9185 306.47 13.4217C305.946 16.2186 304.302 16.9781 298.95 20.8854C297.509 21.933 295.54 21.9853 294.304 20.5607C293.194 19.2879 293.205 16.9991 294.624 15.9149Z" fill="#F7CC7F"/>
<path d="M318.012 36.1952C320.306 37.4156 319.385 41.3805 316.897 41.7052C314.519 42.0143 313.598 41.6319 302.039 39.5211C300.254 39.1964 298.782 37.8922 298.897 35.9385C299.012 34.2782 300.688 32.4921 302.485 32.7959C314.509 34.9853 315.708 34.9748 318.012 36.1952Z" fill="#F7CC7F"/>
<path d="M299.913 55.1085C306.25 61.2366 307.177 60.1577 309.675 63.9026C310.822 65.6206 308.937 68.3547 306.941 67.988C304.386 67.5166 303.7 67.0871 300.369 64.4473C298.431 62.9127 296.582 61.2681 294.802 59.5553C293.482 58.2826 293.838 55.8889 295.132 54.7733C296.614 53.4848 298.593 53.8305 299.913 55.1085Z" fill="#F7CC7F"/>
</svg>
